<svg xmlns="http://www.w3.org/2000/svg" xmlns:xlink="http://www.w3.org/1999/xlink" version="1.1" x="0px" y="0px" width="1200mm" height="800mm" viewBox="0 0 1200 800">
    <text x="200.000000" y="500.000000" fill="#000" font-family="MS-Gothic">※グループ化されている展開図を[合体]してください</text>
    <text x="200.000000" y="520.000000" fill="#000" font-family="MS-Gothic">(合成するオブジェクトを選択 → [ウィンドウ] → [パスファインダ] → [合体])</text>
    <g>
        <rect height="154.000000000" width="74.000000000" x="363.000000000" y="323.000000000" fill="none" stroke="#f00" stroke-width="0.01"></rect>
        <rect height="30.799999237" width="3.000000000" x="360.000000000" y="323.000000000" fill="none" stroke="#f00" stroke-width="0.01"></rect>
        <rect height="30.899999619" width="3.000000000" x="437.000000000" y="353.750000000" fill="none" stroke="#f00" stroke-width="0.01"></rect>
        <rect height="30.799999237" width="3.000000000" x="360.000000000" y="384.600006104" fill="none" stroke="#f00" stroke-width="0.01"></rect>
        <rect height="30.899999619" width="3.000000000" x="437.000000000" y="415.350006104" fill="none" stroke="#f00" stroke-width="0.01"></rect>
        <rect height="30.799999237" width="3.000000000" x="360.000000000" y="446.200012207" fill="none" stroke="#f00" stroke-width="0.01"></rect>
        <rect height="3.000000000" width="14.900000572" x="377.750000000" y="320.000000000" fill="none" stroke="#f00" stroke-width="0.01"></rect>
        <rect height="3.000000000" width="14.900000572" x="377.750000000" y="477.000000000" fill="none" stroke="#f00" stroke-width="0.01"></rect>
        <rect height="3.000000000" width="14.900000572" x="407.350006104" y="320.000000000" fill="none" stroke="#f00" stroke-width="0.01"></rect>
        <rect height="3.000000000" width="14.900000572" x="407.350006104" y="477.000000000" fill="none" stroke="#f00" stroke-width="0.01"></rect>
    </g>
    <g>
        <rect height="154.000000000" width="74.000000000" x="633.000000000" y="323.000000000" fill="none" stroke="#f00" stroke-width="0.01"></rect>
        <rect height="30.799999237" width="3.000000000" x="630.000000000" y="323.000000000" fill="none" stroke="#f00" stroke-width="0.01"></rect>
        <rect height="30.899999619" width="3.000000000" x="707.000000000" y="353.750000000" fill="none" stroke="#f00" stroke-width="0.01"></rect>
        <rect height="30.799999237" width="3.000000000" x="630.000000000" y="384.600006104" fill="none" stroke="#f00" stroke-width="0.01"></rect>
        <rect height="30.899999619" width="3.000000000" x="707.000000000" y="415.350006104" fill="none" stroke="#f00" stroke-width="0.01"></rect>
        <rect height="30.799999237" width="3.000000000" x="630.000000000" y="446.200012207" fill="none" stroke="#f00" stroke-width="0.01"></rect>
        <rect height="3.000000000" width="14.900000572" x="647.750000000" y="320.000000000" fill="none" stroke="#f00" stroke-width="0.01"></rect>
        <rect height="3.000000000" width="14.900000572" x="647.750000000" y="477.000000000" fill="none" stroke="#f00" stroke-width="0.01"></rect>
        <rect height="3.000000000" width="14.900000572" x="677.349975586" y="320.000000000" fill="none" stroke="#f00" stroke-width="0.01"></rect>
        <rect height="3.000000000" width="14.900000572" x="677.349975586" y="477.000000000" fill="none" stroke="#f00" stroke-width="0.01"></rect>
    </g>
    <g>
        <rect height="154.000000000" width="154.000000000" x="188.000000000" y="323.000000000" fill="none" stroke="#f00" stroke-width="0.01"></rect>
        <rect height="30.799999237" width="3.000000000" x="185.000000000" y="323.000000000" fill="none" stroke="#f00" stroke-width="0.01"></rect>
        <rect height="30.899999619" width="3.000000000" x="342.000000000" y="353.750000000" fill="none" stroke="#f00" stroke-width="0.01"></rect>
        <rect height="30.799999237" width="3.000000000" x="185.000000000" y="384.600006104" fill="none" stroke="#f00" stroke-width="0.01"></rect>
        <rect height="30.899999619" width="3.000000000" x="342.000000000" y="415.350006104" fill="none" stroke="#f00" stroke-width="0.01"></rect>
        <rect height="30.799999237" width="3.000000000" x="185.000000000" y="446.200012207" fill="none" stroke="#f00" stroke-width="0.01"></rect>
        <rect height="3.000000000" width="30.899999619" x="218.750000000" y="320.000000000" fill="none" stroke="#f00" stroke-width="0.01"></rect>
        <rect height="3.000000000" width="30.899999619" x="218.750000000" y="477.000000000" fill="none" stroke="#f00" stroke-width="0.01"></rect>
        <rect height="3.000000000" width="30.899999619" x="280.350006104" y="320.000000000" fill="none" stroke="#f00" stroke-width="0.01"></rect>
        <rect height="3.000000000" width="30.899999619" x="280.350006104" y="477.000000000" fill="none" stroke="#f00" stroke-width="0.01"></rect>
    </g>
    <g>
        <rect height="154.000000000" width="154.000000000" x="458.000000000" y="323.000000000" fill="none" stroke="#f00" stroke-width="0.01"></rect>
        <rect height="30.799999237" width="3.000000000" x="455.000000000" y="323.000000000" fill="none" stroke="#f00" stroke-width="0.01"></rect>
        <rect height="30.899999619" width="3.000000000" x="612.000000000" y="353.750000000" fill="none" stroke="#f00" stroke-width="0.01"></rect>
        <rect height="30.799999237" width="3.000000000" x="455.000000000" y="384.600006104" fill="none" stroke="#f00" stroke-width="0.01"></rect>
        <rect height="30.899999619" width="3.000000000" x="612.000000000" y="415.350006104" fill="none" stroke="#f00" stroke-width="0.01"></rect>
        <rect height="30.799999237" width="3.000000000" x="455.000000000" y="446.200012207" fill="none" stroke="#f00" stroke-width="0.01"></rect>
        <rect height="3.000000000" width="30.899999619" x="488.750000000" y="320.000000000" fill="none" stroke="#f00" stroke-width="0.01"></rect>
        <rect height="3.000000000" width="30.899999619" x="488.750000000" y="477.000000000" fill="none" stroke="#f00" stroke-width="0.01"></rect>
        <rect height="3.000000000" width="30.899999619" x="550.349975586" y="320.000000000" fill="none" stroke="#f00" stroke-width="0.01"></rect>
        <rect height="3.000000000" width="30.899999619" x="550.349975586" y="477.000000000" fill="none" stroke="#f00" stroke-width="0.01"></rect>
    </g>
    <g>
        <rect height="154.000000000" width="74.000000000" x="363.000000000" y="148.000000000" fill="none" stroke="#f00" stroke-width="0.01"></rect>
        <rect height="3.000000000" width="14.800000191" x="363.000000000" y="145.000000000" fill="none" stroke="#f00" stroke-width="0.01"></rect>
        <rect height="3.000000000" width="14.800000191" x="363.000000000" y="302.000000000" fill="none" stroke="#f00" stroke-width="0.01"></rect>
        <rect height="3.000000000" width="14.800000191" x="392.600006104" y="145.000000000" fill="none" stroke="#f00" stroke-width="0.01"></rect>
        <rect height="3.000000000" width="14.800000191" x="392.600006104" y="302.000000000" fill="none" stroke="#f00" stroke-width="0.01"></rect>
        <rect height="3.000000000" width="14.800000191" x="422.200012207" y="145.000000000" fill="none" stroke="#f00" stroke-width="0.01"></rect>
        <rect height="3.000000000" width="14.800000191" x="422.200012207" y="302.000000000" fill="none" stroke="#f00" stroke-width="0.01"></rect>
        <rect height="30.799999237" width="3.000000000" x="360.000000000" y="148.000000000" fill="none" stroke="#f00" stroke-width="0.01"></rect>
        <rect height="30.799999237" width="3.000000000" x="437.000000000" y="148.000000000" fill="none" stroke="#f00" stroke-width="0.01"></rect>
        <rect height="30.799999237" width="3.000000000" x="360.000000000" y="209.600006104" fill="none" stroke="#f00" stroke-width="0.01"></rect>
        <rect height="30.799999237" width="3.000000000" x="437.000000000" y="209.600006104" fill="none" stroke="#f00" stroke-width="0.01"></rect>
        <rect height="30.799999237" width="3.000000000" x="360.000000000" y="271.200012207" fill="none" stroke="#f00" stroke-width="0.01"></rect>
        <rect height="30.799999237" width="3.000000000" x="437.000000000" y="271.200012207" fill="none" stroke="#f00" stroke-width="0.01"></rect>
        <rect height="3.000000000" width="3.000000000" x="360.000000000" y="145.000000000" fill="none" stroke="#f00" stroke-width="0.01"></rect>
        <rect height="3.000000000" width="3.000000000" x="360.000000000" y="302.000000000" fill="none" stroke="#f00" stroke-width="0.01"></rect>
        <rect height="3.000000000" width="3.000000000" x="437.000000000" y="145.000000000" fill="none" stroke="#f00" stroke-width="0.01"></rect>
        <rect height="3.000000000" width="3.000000000" x="437.000000000" y="302.000000000" fill="none" stroke="#f00" stroke-width="0.01"></rect>
    </g>
    <g>
        <rect height="154.000000000" width="74.000000000" x="363.000000000" y="498.000000000" fill="none" stroke="#f00" stroke-width="0.01"></rect>
        <rect height="3.000000000" width="14.800000191" x="363.000000000" y="495.000000000" fill="none" stroke="#f00" stroke-width="0.01"></rect>
        <rect height="3.000000000" width="14.800000191" x="363.000000000" y="652.000000000" fill="none" stroke="#f00" stroke-width="0.01"></rect>
        <rect height="3.000000000" width="14.800000191" x="392.600006104" y="495.000000000" fill="none" stroke="#f00" stroke-width="0.01"></rect>
        <rect height="3.000000000" width="14.800000191" x="392.600006104" y="652.000000000" fill="none" stroke="#f00" stroke-width="0.01"></rect>
        <rect height="3.000000000" width="14.800000191" x="422.200012207" y="495.000000000" fill="none" stroke="#f00" stroke-width="0.01"></rect>
        <rect height="3.000000000" width="14.800000191" x="422.200012207" y="652.000000000" fill="none" stroke="#f00" stroke-width="0.01"></rect>
        <rect height="30.799999237" width="3.000000000" x="360.000000000" y="498.000000000" fill="none" stroke="#f00" stroke-width="0.01"></rect>
        <rect height="30.799999237" width="3.000000000" x="437.000000000" y="498.000000000" fill="none" stroke="#f00" stroke-width="0.01"></rect>
        <rect height="30.799999237" width="3.000000000" x="360.000000000" y="559.599975586" fill="none" stroke="#f00" stroke-width="0.01"></rect>
        <rect height="30.799999237" width="3.000000000" x="437.000000000" y="559.599975586" fill="none" stroke="#f00" stroke-width="0.01"></rect>
        <rect height="30.799999237" width="3.000000000" x="360.000000000" y="621.200012207" fill="none" stroke="#f00" stroke-width="0.01"></rect>
        <rect height="30.799999237" width="3.000000000" x="437.000000000" y="621.200012207" fill="none" stroke="#f00" stroke-width="0.01"></rect>
        <rect height="3.000000000" width="3.000000000" x="360.000000000" y="495.000000000" fill="none" stroke="#f00" stroke-width="0.01"></rect>
        <rect height="3.000000000" width="3.000000000" x="360.000000000" y="652.000000000" fill="none" stroke="#f00" stroke-width="0.01"></rect>
        <rect height="3.000000000" width="3.000000000" x="437.000000000" y="495.000000000" fill="none" stroke="#f00" stroke-width="0.01"></rect>
        <rect height="3.000000000" width="3.000000000" x="437.000000000" y="652.000000000" fill="none" stroke="#f00" stroke-width="0.01"></rect>
    </g>
    <g>&apos;a&apos;</g>
</svg>
