solid size_test
facet normal 0.447213595499966 0.894427190999912 0.0
   outer loop
      vertex -0.131221417063235 -9.77653989788734 10.0
      vertex 4.86877858293674 -12.2765398978874 -2.8199664825479e-015
      vertex -0.131221417063235 -9.77653989788734 -2.8199664825479e-015
   endloop
endfacet
facet normal 0.447213595499966 0.894427190999912 0.0
   outer loop
      vertex 4.86877858293674 -12.2765398978874 -2.8199664825479e-015
      vertex -0.131221417063235 -9.77653989788734 10.0
      vertex 4.86877858293674 -12.2765398978874 10.0
   endloop
endfacet
facet normal -0.894427190999919 -0.447213595499951 0.0
   outer loop
      vertex 13.2073040744992 -4.77653989788745 -2.8199664825479e-015
      vertex 10.7073040744993 0.223460102112569 10.0
      vertex 10.7073040744993 0.223460102112569 -2.8199664825479e-015
   endloop
endfacet
facet normal -0.894427190999919 -0.447213595499951 0.0
   outer loop
      vertex 10.7073040744993 0.223460102112569 10.0
      vertex 13.2073040744992 -4.77653989788745 -2.8199664825479e-015
      vertex 13.2073040744992 -4.77653989788745 10.0
   endloop
endfacet
facet normal 7.99657962380169e-015 1.0 0.0
   outer loop
      vertex 10.7073040744993 0.223460102112569 10.0
      vertex 19.0302530913744 0.223460102112503 -2.8199664825479e-015
      vertex 10.7073040744993 0.223460102112569 -2.8199664825479e-015
   endloop
endfacet
facet normal 7.99657962380169e-015 1.0 0.0
   outer loop
      vertex 19.0302530913744 0.223460102112503 -2.8199664825479e-015
      vertex 10.7073040744993 0.223460102112569 10.0
      vertex 19.0302530913744 0.223460102112503 10.0
   endloop
endfacet
facet normal -1.0 8.12751283466808e-015 0.0
   outer loop
      vertex 4.86877858293674 -12.2765398978874 -2.8199664825479e-015
      vertex 4.8687785829368 -4.77653989788738 10.0
      vertex 4.8687785829368 -4.77653989788738 -2.8199664825479e-015
   endloop
endfacet
facet normal -1.0 8.12751283466808e-015 0.0
   outer loop
      vertex 4.8687785829368 -4.77653989788738 10.0
      vertex 4.86877858293674 -12.2765398978874 -2.8199664825479e-015
      vertex 4.86877858293674 -12.2765398978874 10.0
   endloop
endfacet
facet normal 8.12751283466808e-015 1.0 0.0
   outer loop
      vertex 4.8687785829368 -4.77653989788738 10.0
      vertex 13.2073040744992 -4.77653989788745 -2.8199664825479e-015
      vertex 4.8687785829368 -4.77653989788738 -2.8199664825479e-015
   endloop
endfacet
facet normal 8.12751283466808e-015 1.0 0.0
   outer loop
      vertex 13.2073040744992 -4.77653989788745 -2.8199664825479e-015
      vertex 4.8687785829368 -4.77653989788738 10.0
      vertex 13.2073040744992 -4.77653989788745 10.0
   endloop
endfacet
facet normal 1.0 -8.12751283466808e-015 0.0
   outer loop
      vertex 24.8687785829367 -12.8355568922625 10.0
      vertex 24.8687785829368 -4.77653989788754 -2.8199664825479e-015
      vertex 24.8687785829368 -4.77653989788754 10.0
   endloop
endfacet
facet normal 1.0 -8.12751283466808e-015 0.0
   outer loop
      vertex 24.8687785829368 -4.77653989788754 -2.8199664825479e-015
      vertex 24.8687785829367 -12.8355568922625 10.0
      vertex 24.8687785829367 -12.8355568922625 -2.8199664825479e-015
   endloop
endfacet
facet normal -0.447213595499952 0.894427190999919 0.0
   outer loop
      vertex 24.8687785829367 -12.8355568922625 10.0
      vertex 29.8687785829368 -10.3355568922625 -2.8199664825479e-015
      vertex 24.8687785829367 -12.8355568922625 -2.8199664825479e-015
   endloop
endfacet
facet normal -0.447213595499952 0.894427190999919 0.0
   outer loop
      vertex 29.8687785829368 -10.3355568922625 -2.8199664825479e-015
      vertex 24.8687785829367 -12.8355568922625 10.0
      vertex 29.8687785829368 -10.3355568922625 10.0
   endloop
endfacet
facet normal 1.0 -8.03939274641572e-015 0.0
   outer loop
      vertex 29.8687785829367 -19.2175229035126 10.0
      vertex 29.8687785829368 -10.3355568922625 -2.8199664825479e-015
      vertex 29.8687785829368 -10.3355568922625 10.0
   endloop
endfacet
facet normal 1.0 -8.03939274641572e-015 0.0
   outer loop
      vertex 29.8687785829368 -10.3355568922625 -2.8199664825479e-015
      vertex 29.8687785829367 -19.2175229035126 10.0
      vertex 29.8687785829367 -19.2175229035126 -2.8199664825479e-015
   endloop
endfacet
facet normal 0.894427190999912 -0.447213595499966 0.0
   outer loop
      vertex 16.5302530913744 -4.77653989788748 10.0
      vertex 19.0302530913744 0.223460102112503 -2.8199664825479e-015
      vertex 19.0302530913744 0.223460102112503 10.0
   endloop
endfacet
facet normal 0.894427190999912 -0.447213595499966 0.0
   outer loop
      vertex 19.0302530913744 0.223460102112503 -2.8199664825479e-015
      vertex 16.5302530913744 -4.77653989788748 10.0
      vertex 16.5302530913744 -4.77653989788748 -2.8199664825479e-015
   endloop
endfacet
facet normal 8.12751283466808e-015 1.0 0.0
   outer loop
      vertex 16.5302530913744 -4.77653989788748 10.0
      vertex 24.8687785829368 -4.77653989788754 -2.8199664825479e-015
      vertex 16.5302530913744 -4.77653989788748 -2.8199664825479e-015
   endloop
endfacet
facet normal 8.12751283466808e-015 1.0 0.0
   outer loop
      vertex 24.8687785829368 -4.77653989788754 -2.8199664825479e-015
      vertex 16.5302530913744 -4.77653989788748 10.0
      vertex 24.8687785829368 -4.77653989788754 10.0
   endloop
endfacet
facet normal -1.0 8.12751283466808e-015 0.0
   outer loop
      vertex 4.86877858293664 -24.7765398978874 -2.8199664825479e-015
      vertex 4.8687785829367 -17.2765398978874 10.0
      vertex 4.8687785829367 -17.2765398978874 -2.8199664825479e-015
   endloop
endfacet
facet normal -1.0 8.12751283466808e-015 0.0
   outer loop
      vertex 4.8687785829367 -17.2765398978874 10.0
      vertex 4.86877858293664 -24.7765398978874 -2.8199664825479e-015
      vertex 4.86877858293664 -24.7765398978874 10.0
   endloop
endfacet
facet normal 0.44721359549995 -0.89442719099992 0.0
   outer loop
      vertex 4.8687785829367 -17.2765398978874 10.0
      vertex -0.13122141706332 -19.7765398978874 -2.8199664825479e-015
      vertex 4.8687785829367 -17.2765398978874 -2.8199664825479e-015
   endloop
endfacet
facet normal 0.44721359549995 -0.89442719099992 0.0
   outer loop
      vertex -0.13122141706332 -19.7765398978874 -2.8199664825479e-015
      vertex 4.8687785829367 -17.2765398978874 10.0
      vertex -0.13122141706332 -19.7765398978874 10.0
   endloop
endfacet
facet normal -1.0 8.12751283466808e-015 0.0
   outer loop
      vertex -0.13122141706332 -19.7765398978874 -2.8199664825479e-015
      vertex -0.131221417063235 -9.77653989788734 10.0
      vertex -0.131221417063235 -9.77653989788734 -2.8199664825479e-015
   endloop
endfacet
facet normal -1.0 8.12751283466808e-015 0.0
   outer loop
      vertex -0.131221417063235 -9.77653989788734 10.0
      vertex -0.13122141706332 -19.7765398978874 -2.8199664825479e-015
      vertex -0.13122141706332 -19.7765398978874 10.0
   endloop
endfacet
facet normal 0.0 0.0 1.0
   outer loop
      vertex 13.2073040744992 -4.77653989788745 10.0
      vertex 9.22639258774159 -13.7070896943994 10.0
      vertex 12.6482870801241 -24.7765398978874 10.0
   endloop
endfacet
facet normal 0.0 0.0 1.0
   outer loop
      vertex 9.22639258774159 -13.7070896943994 10.0
      vertex 13.2073040744992 -4.77653989788745 10.0
      vertex 4.8687785829368 -4.77653989788738 10.0
   endloop
endfacet
facet normal 0.0 0.0 1.0
   outer loop
      vertex 9.22639258774159 -13.7070896943994 10.0
      vertex 4.8687785829368 -4.77653989788738 10.0
      vertex 6.72639258774159 -13.7070896943993 10.0
   endloop
endfacet
facet normal 0.0 0.0 1.0
   outer loop
      vertex 6.72639258774159 -13.7070896943993 10.0
      vertex 4.8687785829368 -4.77653989788738 10.0
      vertex 6.72639258774157 -16.2070896943993 10.0
   endloop
endfacet
facet normal 0.0 0.0 1.0
   outer loop
      vertex 4.86877858293674 -12.2765398978874 10.0
      vertex 4.8687785829367 -17.2765398978874 10.0
      vertex 4.8687785829368 -4.77653989788738 10.0
   endloop
endfacet
facet normal 0.0 0.0 1.0
   outer loop
      vertex 4.8687785829367 -17.2765398978874 10.0
      vertex 4.86877858293674 -12.2765398978874 10.0
      vertex -0.13122141706332 -19.7765398978874 10.0
   endloop
endfacet
facet normal 0.0 0.0 1.0
   outer loop
      vertex -0.13122141706332 -19.7765398978874 10.0
      vertex 4.86877858293674 -12.2765398978874 10.0
      vertex -0.131221417063235 -9.77653989788734 10.0
   endloop
endfacet
facet normal 0.0 0.0 1.0
   outer loop
      vertex 12.6482870801241 -24.7765398978874 10.0
      vertex 9.22639258774158 -16.2070896943994 10.0
      vertex 4.86877858293664 -24.7765398978874 10.0
   endloop
endfacet
facet normal 0.0 0.0 1.0
   outer loop
      vertex 9.22639258774158 -16.2070896943994 10.0
      vertex 12.6482870801241 -24.7765398978874 10.0
      vertex 9.22639258774159 -13.7070896943994 10.0
   endloop
endfacet
facet normal 0.0 0.0 1.0
   outer loop
      vertex 4.86877858293664 -24.7765398978874 10.0
      vertex 9.22639258774158 -16.2070896943994 10.0
      vertex 6.72639258774157 -16.2070896943993 10.0
   endloop
endfacet
facet normal 0.0 0.0 1.0
   outer loop
      vertex 4.86877858293664 -24.7765398978874 10.0
      vertex 6.72639258774157 -16.2070896943993 10.0
      vertex 4.8687785829367 -17.2765398978874 10.0
   endloop
endfacet
facet normal 0.0 0.0 1.0
   outer loop
      vertex 4.8687785829367 -17.2765398978874 10.0
      vertex 6.72639258774157 -16.2070896943993 10.0
      vertex 4.8687785829368 -4.77653989788738 10.0
   endloop
endfacet
facet normal 0.0 0.0 1.0
   outer loop
      vertex 16.5302530913744 -4.77653989788748 10.0
      vertex 24.8687785829367 -12.8355568922625 10.0
      vertex 24.8687785829368 -4.77653989788754 10.0
   endloop
endfacet
facet normal 0.0 0.0 1.0
   outer loop
      vertex 24.8687785829367 -12.8355568922625 10.0
      vertex 16.5302530913744 -4.77653989788748 10.0
      vertex 24.8687785829367 -16.7175229035126 10.0
   endloop
endfacet
facet normal 0.0 0.0 1.0
   outer loop
      vertex 24.8687785829367 -16.7175229035126 10.0
      vertex 16.5302530913744 -4.77653989788748 10.0
      vertex 24.8687785829366 -24.7765398978876 10.0
   endloop
endfacet
facet normal 0.0 0.0 1.0
   outer loop
      vertex 24.8687785829366 -24.7765398978876 10.0
      vertex 16.5302530913744 -4.77653989788748 10.0
      vertex 17.0892700857492 -24.7765398978875 10.0
   endloop
endfacet
facet normal 0.0 0.0 1.0
   outer loop
      vertex 10.7073040744993 0.223460102112569 10.0
      vertex 16.5302530913744 -4.77653989788748 10.0
      vertex 19.0302530913744 0.223460102112503 10.0
   endloop
endfacet
facet normal 0.0 0.0 1.0
   outer loop
      vertex 16.5302530913744 -4.77653989788748 10.0
      vertex 10.7073040744993 0.223460102112569 10.0
      vertex 13.2073040744992 -4.77653989788745 10.0
   endloop
endfacet
facet normal 0.0 0.0 1.0
   outer loop
      vertex 17.0892700857492 -24.7765398978875 10.0
      vertex 10.1482870801241 -29.7765398978874 10.0
      vertex 19.5892700857491 -29.7765398978875 10.0
   endloop
endfacet
facet normal 0.0 0.0 1.0
   outer loop
      vertex 10.1482870801241 -29.7765398978874 10.0
      vertex 17.0892700857492 -24.7765398978875 10.0
      vertex 12.6482870801241 -24.7765398978874 10.0
   endloop
endfacet
facet normal 0.0 0.0 1.0
   outer loop
      vertex 12.6482870801241 -24.7765398978874 10.0
      vertex 17.0892700857492 -24.7765398978875 10.0
      vertex 16.5302530913744 -4.77653989788748 10.0
   endloop
endfacet
facet normal 0.0 0.0 1.0
   outer loop
      vertex 12.6482870801241 -24.7765398978874 10.0
      vertex 16.5302530913744 -4.77653989788748 10.0
      vertex 13.2073040744992 -4.77653989788745 10.0
   endloop
endfacet
facet normal 0.0 0.0 1.0
   outer loop
      vertex 24.8687785829367 -12.8355568922625 10.0
      vertex 29.8687785829367 -19.2175229035126 10.0
      vertex 29.8687785829368 -10.3355568922625 10.0
   endloop
endfacet
facet normal 0.0 0.0 1.0
   outer loop
      vertex 29.8687785829367 -19.2175229035126 10.0
      vertex 24.8687785829367 -12.8355568922625 10.0
      vertex 24.8687785829367 -16.7175229035126 10.0
   endloop
endfacet
facet normal -0.447213595499967 -0.894427190999911 0.0
   outer loop
      vertex 29.8687785829367 -19.2175229035126 10.0
      vertex 24.8687785829367 -16.7175229035126 -2.8199664825479e-015
      vertex 29.8687785829367 -19.2175229035126 -2.8199664825479e-015
   endloop
endfacet
facet normal -0.447213595499967 -0.894427190999911 0.0
   outer loop
      vertex 24.8687785829367 -16.7175229035126 -2.8199664825479e-015
      vertex 29.8687785829367 -19.2175229035126 10.0
      vertex 24.8687785829367 -16.7175229035126 10.0
   endloop
endfacet
facet normal 1.0 -8.12751283466808e-015 0.0
   outer loop
      vertex 24.8687785829366 -24.7765398978876 10.0
      vertex 24.8687785829367 -16.7175229035126 -2.8199664825479e-015
      vertex 24.8687785829367 -16.7175229035126 10.0
   endloop
endfacet
facet normal 1.0 -8.12751283466808e-015 0.0
   outer loop
      vertex 24.8687785829367 -16.7175229035126 -2.8199664825479e-015
      vertex 24.8687785829366 -24.7765398978876 10.0
      vertex 24.8687785829366 -24.7765398978876 -2.8199664825479e-015
   endloop
endfacet
facet normal -8.12751283466808e-015 -1.0 0.0
   outer loop
      vertex 24.8687785829366 -24.7765398978876 10.0
      vertex 17.0892700857492 -24.7765398978875 -2.8199664825479e-015
      vertex 24.8687785829366 -24.7765398978876 -2.8199664825479e-015
   endloop
endfacet
facet normal -8.12751283466808e-015 -1.0 0.0
   outer loop
      vertex 17.0892700857492 -24.7765398978875 -2.8199664825479e-015
      vertex 24.8687785829366 -24.7765398978876 10.0
      vertex 17.0892700857492 -24.7765398978875 10.0
   endloop
endfacet
facet normal 0.0 0.0 -1.0
   outer loop
      vertex 17.0892700857492 -24.7765398978875 -2.8199664825479e-015
      vertex 24.8687785829367 -16.7175229035126 -2.8199664825479e-015
      vertex 24.8687785829366 -24.7765398978876 -2.8199664825479e-015
   endloop
endfacet
facet normal 0.0 0.0 -1.0
   outer loop
      vertex 24.8687785829367 -16.7175229035126 -2.8199664825479e-015
      vertex 17.0892700857492 -24.7765398978875 -2.8199664825479e-015
      vertex 24.8687785829367 -12.8355568922625 -2.8199664825479e-015
   endloop
endfacet
facet normal 0.0 0.0 -1.0
   outer loop
      vertex 10.1482870801241 -29.7765398978874 -2.8199664825479e-015
      vertex 17.0892700857492 -24.7765398978875 -2.8199664825479e-015
      vertex 19.5892700857491 -29.7765398978875 -2.8199664825479e-015
   endloop
endfacet
facet normal 0.0 0.0 -1.0
   outer loop
      vertex 17.0892700857492 -24.7765398978875 -2.8199664825479e-015
      vertex 10.1482870801241 -29.7765398978874 -2.8199664825479e-015
      vertex 12.6482870801241 -24.7765398978874 -2.8199664825479e-015
   endloop
endfacet
facet normal 0.0 0.0 -1.0
   outer loop
      vertex 17.0892700857492 -24.7765398978875 -2.8199664825479e-015
      vertex 12.6482870801241 -24.7765398978874 -2.8199664825479e-015
      vertex 16.5302530913744 -4.77653989788748 -2.8199664825479e-015
   endloop
endfacet
facet normal 0.0 0.0 -1.0
   outer loop
      vertex 16.5302530913744 -4.77653989788748 -2.8199664825479e-015
      vertex 12.6482870801241 -24.7765398978874 -2.8199664825479e-015
      vertex 13.2073040744992 -4.77653989788745 -2.8199664825479e-015
   endloop
endfacet
facet normal 0.0 0.0 -1.0
   outer loop
      vertex 4.86877858293664 -24.7765398978874 -2.8199664825479e-015
      vertex 4.8687785829367 -17.2765398978874 -2.8199664825479e-015
      vertex 12.6482870801241 -24.7765398978874 -2.8199664825479e-015
   endloop
endfacet
facet normal 0.0 0.0 -1.0
   outer loop
      vertex 12.6482870801241 -24.7765398978874 -2.8199664825479e-015
      vertex 4.8687785829368 -4.77653989788738 -2.8199664825479e-015
      vertex 13.2073040744992 -4.77653989788745 -2.8199664825479e-015
   endloop
endfacet
facet normal 0.0 0.0 -1.0
   outer loop
      vertex 4.8687785829368 -4.77653989788738 -2.8199664825479e-015
      vertex 12.6482870801241 -24.7765398978874 -2.8199664825479e-015
      vertex 4.8687785829367 -17.2765398978874 -2.8199664825479e-015
   endloop
endfacet
facet normal 0.0 0.0 -1.0
   outer loop
      vertex 4.8687785829368 -4.77653989788738 -2.8199664825479e-015
      vertex 4.8687785829367 -17.2765398978874 -2.8199664825479e-015
      vertex 4.86877858293674 -12.2765398978874 -2.8199664825479e-015
   endloop
endfacet
facet normal 0.0 0.0 -1.0
   outer loop
      vertex 4.86877858293674 -12.2765398978874 -2.8199664825479e-015
      vertex 4.8687785829367 -17.2765398978874 -2.8199664825479e-015
      vertex -0.13122141706332 -19.7765398978874 -2.8199664825479e-015
   endloop
endfacet
facet normal 0.0 0.0 -1.0
   outer loop
      vertex 4.86877858293674 -12.2765398978874 -2.8199664825479e-015
      vertex -0.13122141706332 -19.7765398978874 -2.8199664825479e-015
      vertex -0.131221417063235 -9.77653989788734 -2.8199664825479e-015
   endloop
endfacet
facet normal 0.0 0.0 -1.0
   outer loop
      vertex 16.5302530913744 -4.77653989788748 -2.8199664825479e-015
      vertex 10.7073040744993 0.223460102112569 -2.8199664825479e-015
      vertex 19.0302530913744 0.223460102112503 -2.8199664825479e-015
   endloop
endfacet
facet normal 0.0 0.0 -1.0
   outer loop
      vertex 10.7073040744993 0.223460102112569 -2.8199664825479e-015
      vertex 16.5302530913744 -4.77653989788748 -2.8199664825479e-015
      vertex 13.2073040744992 -4.77653989788745 -2.8199664825479e-015
   endloop
endfacet
facet normal 0.0 0.0 -1.0
   outer loop
      vertex 24.8687785829367 -12.8355568922625 -2.8199664825479e-015
      vertex 16.5302530913744 -4.77653989788748 -2.8199664825479e-015
      vertex 24.8687785829368 -4.77653989788754 -2.8199664825479e-015
   endloop
endfacet
facet normal 0.0 0.0 -1.0
   outer loop
      vertex 16.5302530913744 -4.77653989788748 -2.8199664825479e-015
      vertex 24.8687785829367 -12.8355568922625 -2.8199664825479e-015
      vertex 17.0892700857492 -24.7765398978875 -2.8199664825479e-015
   endloop
endfacet
facet normal 0.0 0.0 -1.0
   outer loop
      vertex 24.8687785829367 -16.7175229035126 -2.8199664825479e-015
      vertex 29.8687785829368 -10.3355568922625 -2.8199664825479e-015
      vertex 29.8687785829367 -19.2175229035126 -2.8199664825479e-015
   endloop
endfacet
facet normal 0.0 0.0 -1.0
   outer loop
      vertex 29.8687785829368 -10.3355568922625 -2.8199664825479e-015
      vertex 24.8687785829367 -16.7175229035126 -2.8199664825479e-015
      vertex 24.8687785829367 -12.8355568922625 -2.8199664825479e-015
   endloop
endfacet
facet normal 0.894427190999919 0.447213595499951 0.0
   outer loop
      vertex 19.5892700857491 -29.7765398978875 10.0
      vertex 17.0892700857492 -24.7765398978875 -2.8199664825479e-015
      vertex 17.0892700857492 -24.7765398978875 10.0
   endloop
endfacet
facet normal 0.894427190999919 0.447213595499951 0.0
   outer loop
      vertex 17.0892700857492 -24.7765398978875 -2.8199664825479e-015
      vertex 19.5892700857491 -29.7765398978875 10.0
      vertex 19.5892700857491 -29.7765398978875 -2.8199664825479e-015
   endloop
endfacet
facet normal -8.12751283466808e-015 -1.0 0.0
   outer loop
      vertex 19.5892700857491 -29.7765398978875 10.0
      vertex 10.1482870801241 -29.7765398978874 -2.8199664825479e-015
      vertex 19.5892700857491 -29.7765398978875 -2.8199664825479e-015
   endloop
endfacet
facet normal -8.12751283466808e-015 -1.0 0.0
   outer loop
      vertex 10.1482870801241 -29.7765398978874 -2.8199664825479e-015
      vertex 19.5892700857491 -29.7765398978875 10.0
      vertex 10.1482870801241 -29.7765398978874 10.0
   endloop
endfacet
facet normal -0.894427190999912 0.447213595499966 0.0
   outer loop
      vertex 10.1482870801241 -29.7765398978874 -2.8199664825479e-015
      vertex 12.6482870801241 -24.7765398978874 10.0
      vertex 12.6482870801241 -24.7765398978874 -2.8199664825479e-015
   endloop
endfacet
facet normal -0.894427190999912 0.447213595499966 0.0
   outer loop
      vertex 12.6482870801241 -24.7765398978874 10.0
      vertex 10.1482870801241 -29.7765398978874 -2.8199664825479e-015
      vertex 10.1482870801241 -29.7765398978874 10.0
   endloop
endfacet
facet normal -8.12751283466808e-015 -1.0 0.0
   outer loop
      vertex 12.6482870801241 -24.7765398978874 10.0
      vertex 4.86877858293664 -24.7765398978874 -2.8199664825479e-015
      vertex 12.6482870801241 -24.7765398978874 -2.8199664825479e-015
   endloop
endfacet
facet normal -8.12751283466808e-015 -1.0 0.0
   outer loop
      vertex 4.86877858293664 -24.7765398978874 -2.8199664825479e-015
      vertex 12.6482870801241 -24.7765398978874 10.0
      vertex 4.86877858293664 -24.7765398978874 10.0
   endloop
endfacet
facet normal 0.0 0.0 1.0
   outer loop
      vertex 6.72639258774159 -13.7070896943993 5.0
      vertex 9.22639258774158 -16.2070896943994 5.0
      vertex 9.22639258774159 -13.7070896943994 5.0
   endloop
endfacet
facet normal 0.0 0.0 1.0
   outer loop
      vertex 9.22639258774158 -16.2070896943994 5.0
      vertex 6.72639258774159 -13.7070896943993 5.0
      vertex 6.72639258774157 -16.2070896943993 5.0
   endloop
endfacet
facet normal 1.0 -7.89590615113411e-015 0.0
   outer loop
      vertex 6.72639258774157 -16.2070896943993 10.0
      vertex 6.72639258774159 -13.7070896943993 5.0
      vertex 6.72639258774159 -13.7070896943993 10.0
   endloop
endfacet
facet normal 1.0 -7.89590615113411e-015 0.0
   outer loop
      vertex 6.72639258774159 -13.7070896943993 5.0
      vertex 6.72639258774157 -16.2070896943993 10.0
      vertex 6.72639258774157 -16.2070896943993 5.0
   endloop
endfacet
facet normal 9.02389274415327e-015 1.0 0.0
   outer loop
      vertex 6.72639258774157 -16.2070896943993 10.0
      vertex 9.22639258774158 -16.2070896943994 5.0
      vertex 6.72639258774157 -16.2070896943993 5.0
   endloop
endfacet
facet normal 9.02389274415327e-015 1.0 0.0
   outer loop
      vertex 9.22639258774158 -16.2070896943994 5.0
      vertex 6.72639258774157 -16.2070896943993 10.0
      vertex 9.22639258774158 -16.2070896943994 10.0
   endloop
endfacet
facet normal -1.0 7.89590615113411e-015 0.0
   outer loop
      vertex 9.22639258774158 -16.2070896943994 5.0
      vertex 9.22639258774159 -13.7070896943994 10.0
      vertex 9.22639258774159 -13.7070896943994 5.0
   endloop
endfacet
facet normal -1.0 7.89590615113411e-015 0.0
   outer loop
      vertex 9.22639258774159 -13.7070896943994 10.0
      vertex 9.22639258774158 -16.2070896943994 5.0
      vertex 9.22639258774158 -16.2070896943994 10.0
   endloop
endfacet
facet normal -9.02389274415327e-015 -1.0 0.0
   outer loop
      vertex 9.22639258774159 -13.7070896943994 10.0
      vertex 6.72639258774159 -13.7070896943993 5.0
      vertex 9.22639258774159 -13.7070896943994 5.0
   endloop
endfacet
facet normal -9.02389274415327e-015 -1.0 0.0
   outer loop
      vertex 6.72639258774159 -13.7070896943993 5.0
      vertex 9.22639258774159 -13.7070896943994 10.0
      vertex 6.72639258774159 -13.7070896943993 10.0
   endloop
endfacet
endsolid size_test
