<?xml version="1.0" encoding="UTF-8" standalone="no"?>
<svg
   xmlns:dc="http://purl.org/dc/elements/1.1/"
   xmlns:cc="http://creativecommons.org/ns#"
   xmlns:rdf="http://www.w3.org/1999/02/22-rdf-syntax-ns#"
   xmlns:svg="http://www.w3.org/2000/svg"
   xmlns="http://www.w3.org/2000/svg"
   xmlns:sodipodi="http://sodipodi.sourceforge.net/DTD/sodipodi-0.dtd"
   xmlns:inkscape="http://www.inkscape.org/namespaces/inkscape"
   version="1.1"
   x="0px"
   y="0px"
   width="1200mm"
   height="800mm"
   viewBox="0 0 1200 800"
   id="svg3545"
   inkscape:version="0.48.2 r9819"
   sodipodi:docname="2014-11-16-10-56-35-173.svg">
  <metadata
     id="metadata3717">
    <rdf:RDF>
      <cc:Work
         rdf:about="">
        <dc:format>image/svg+xml</dc:format>
        <dc:type
           rdf:resource="http://purl.org/dc/dcmitype/StillImage" />
      </cc:Work>
    </rdf:RDF>
  </metadata>
  <defs
     id="defs3715" />
  <sodipodi:namedview
     pagecolor="#ffffff"
     bordercolor="#666666"
     borderopacity="1"
     objecttolerance="10"
     gridtolerance="10"
     guidetolerance="10"
     inkscape:pageopacity="0"
     inkscape:pageshadow="2"
     inkscape:window-width="1326"
     inkscape:window-height="775"
     id="namedview3713"
     showgrid="false"
     inkscape:zoom="0.66228152"
     inkscape:cx="1529.084"
     inkscape:cy="1288.5002"
     inkscape:window-x="0"
     inkscape:window-y="0"
     inkscape:window-maximized="0"
     inkscape:current-layer="svg3545"
     showguides="true"
     inkscape:guide-bbox="true">
    <sodipodi:guide
       orientation="0,1"
       position="1081.563,1416.8155"
       id="guide3726" />
    <sodipodi:guide
       orientation="1,0"
       position="1416.8155,1416.8155"
       id="guide3728" />
    <sodipodi:guide
       orientation="1,0"
       position="2374.5272,1416.8155"
       id="guide3732" />
  </sodipodi:namedview>
  <g
     id="g3551">
    <path
       style="fill:none;stroke:#ff0000;stroke-width:0.03543307"
       d="M 1338.4688 1133.8438 L 1338.4688 1144.5 L 1286.2188 1144.5 L 1275.5938 1144.5 L 1275.5938 1253.625 L 1286.2188 1253.625 L 1286.2188 1362.75 L 1275.5938 1362.75 L 1275.5938 1471.875 L 1286.2188 1471.875 L 1286.2188 1581.0312 L 1275.5938 1581.0312 L 1275.5938 1690.1562 L 1286.2188 1690.1562 L 1338.4688 1690.1562 L 1338.4688 1700.7812 L 1391.2812 1700.7812 L 1391.2812 1690.1562 L 1443.375 1690.1562 L 1443.375 1700.7812 L 1496.1562 1700.7812 L 1496.1562 1690.1562 L 1548.4375 1690.1562 L 1548.4375 1581.1875 L 1559.0625 1581.1875 L 1559.0625 1471.7188 L 1548.4375 1471.7188 L 1548.4375 1362.9375 L 1559.0625 1362.9375 L 1559.0625 1253.4375 L 1548.4375 1253.4375 L 1548.4375 1144.5 L 1496.1562 1144.5 L 1496.1562 1133.8438 L 1443.375 1133.8438 L 1443.375 1144.5 L 1391.2812 1144.5 L 1391.2812 1133.8438 L 1338.4688 1133.8438 z "
       transform="matrix(0.28222224,0,0,0.28222224,0,-3.4450957e-5)"
       id="rect3553" />
  </g>
  <g
     id="g3573">
    <path
       style="fill:none;stroke:#ff0000;stroke-width:0.035;opacity:1;stroke-miterlimit:4;stroke-dasharray:none"
       d="M 2295.1875 1133.8438 L 2295.1875 1144.5 L 2242.9062 1144.5 L 2232.2812 1144.5 L 2232.2812 1253.625 L 2242.9062 1253.625 L 2242.9062 1362.75 L 2232.2812 1362.75 L 2232.2812 1471.875 L 2242.9062 1471.875 L 2242.9062 1581.0312 L 2232.2812 1581.0312 L 2232.2812 1690.1562 L 2242.9062 1690.1562 L 2295.1875 1690.1562 L 2295.1875 1700.7812 L 2347.9688 1700.7812 L 2347.9688 1690.1562 L 2400.0625 1690.1562 L 2400.0625 1700.7812 L 2452.8438 1700.7812 L 2452.8438 1690.1562 L 2505.125 1690.1562 L 2505.125 1581.1875 L 2515.75 1581.1875 L 2515.75 1471.7188 L 2505.125 1471.7188 L 2505.125 1362.9375 L 2515.75 1362.9375 L 2515.75 1253.4375 L 2505.125 1253.4375 L 2505.125 1144.5 L 2452.8438 1144.5 L 2452.8438 1133.8438 L 2400.0625 1133.8438 L 2400.0625 1144.5 L 2347.9688 1144.5 L 2347.9688 1133.8438 L 2295.1875 1133.8438 z "
       transform="matrix(0.28222224,0,0,0.28222224,0,-3.4450957e-5)"
       id="rect3575" />
    <path
       sodipodi:type="arc"
       style="fill:none;stroke:#ff0000;stroke-width:0.1169579;stroke-miterlimit:4;stroke-opacity:1;stroke-dasharray:none"
       id="path4512"
       sodipodi:cx="1829.475"
       sodipodi:cy="1332.9495"
       sodipodi:rx="16.549088"
       sodipodi:ry="16.549088"
       d="m 1846.0241,1332.9495 a 16.549088,16.549088 0 1 1 -33.0982,0 16.549088,16.549088 0 1 1 33.0982,0 z"
       transform="matrix(0.08426631,0,0,0.08464563,515.98128,287.23952)" />
  </g>
  <g
     id="g3595">
    <path
       style="fill:none;stroke:#ff0000;stroke-width:0.03543307"
       d="M 775.09375 1133.8438 L 775.09375 1144.5 L 666.15625 1144.5 L 655.5 1144.5 L 655.5 1253.625 L 666.15625 1253.625 L 666.15625 1362.75 L 655.5 1362.75 L 655.5 1471.875 L 666.15625 1471.875 L 666.15625 1581.0312 L 655.5 1581.0312 L 655.5 1690.1562 L 666.15625 1690.1562 L 775.09375 1690.1562 L 775.09375 1700.7812 L 884.59375 1700.7812 L 884.59375 1690.1562 L 993.375 1690.1562 L 993.375 1700.7812 L 1102.8438 1700.7812 L 1102.8438 1690.1562 L 1211.8125 1690.1562 L 1211.8125 1581.1875 L 1222.4375 1581.1875 L 1222.4375 1471.7188 L 1211.8125 1471.7188 L 1211.8125 1362.9375 L 1222.4375 1362.9375 L 1222.4375 1253.4375 L 1211.8125 1253.4375 L 1211.8125 1144.5 L 1102.8438 1144.5 L 1102.8438 1133.8438 L 993.375 1133.8438 L 993.375 1144.5 L 884.59375 1144.5 L 884.59375 1133.8438 L 775.09375 1133.8438 z "
       transform="matrix(0.28222224,0,0,0.28222224,0,-3.4450957e-5)"
       id="rect3597" />
  </g>
  <g
     id="g3617"
     style="stroke:#ff0000;stroke-opacity:1">
    <path
       style="fill:none;stroke:#ff0000;stroke-width:0.03543307000000000;stroke-opacity:1"
       d="M 1731.7812 1133.8438 L 1731.7812 1144.5 L 1622.8438 1144.5 L 1612.2188 1144.5 L 1612.2188 1253.625 L 1622.8438 1253.625 L 1622.8438 1362.75 L 1612.2188 1362.75 L 1612.2188 1471.875 L 1622.8438 1471.875 L 1622.8438 1581.0312 L 1612.2188 1581.0312 L 1612.2188 1690.1562 L 1622.8438 1690.1562 L 1731.7812 1690.1562 L 1731.7812 1700.7812 L 1841.2812 1700.7812 L 1841.2812 1690.1562 L 1950.0625 1690.1562 L 1950.0625 1700.7812 L 2059.5625 1700.7812 L 2059.5625 1690.1562 L 2168.5 1690.1562 L 2168.5 1581.1875 L 2179.125 1581.1875 L 2179.125 1471.7188 L 2168.5 1471.7188 L 2168.5 1362.9375 L 2179.125 1362.9375 L 2179.125 1253.4375 L 2168.5 1253.4375 L 2168.5 1144.5 L 2059.5625 1144.5 L 2059.5625 1133.8438 L 1950.0625 1133.8438 L 1950.0625 1144.5 L 1841.2812 1144.5 L 1841.2812 1133.8438 L 1731.7812 1133.8438 z "
       transform="matrix(0.28222224,0,0,0.28222224,0,-3.4450957e-5)"
       id="rect3619" />
  </g>
  <g
     id="g3639">
    <path
       style="fill:none;stroke:#ff0000;stroke-width:0.03543307"
       d="M 1275.5938 513.78125 L 1275.5938 524.40625 L 1275.5938 633.53125 L 1286.2188 633.53125 L 1286.2188 742.6875 L 1275.5938 742.6875 L 1275.5938 851.8125 L 1286.2188 851.8125 L 1286.2188 960.9375 L 1275.5938 960.9375 L 1275.5938 1070.0938 L 1275.5938 1080.7188 L 1286.2188 1080.7188 L 1338.6562 1080.7188 L 1338.6562 1070.0938 L 1391.0938 1070.0938 L 1391.0938 1080.7188 L 1443.5312 1080.7188 L 1443.5312 1070.0938 L 1495.9688 1070.0938 L 1495.9688 1080.7188 L 1548.4375 1080.7188 L 1559.0625 1080.7188 L 1559.0625 1070.0938 L 1559.0625 960.9375 L 1548.4375 960.9375 L 1548.4375 851.8125 L 1559.0625 851.8125 L 1559.0625 742.6875 L 1548.4375 742.6875 L 1548.4375 633.53125 L 1559.0625 633.53125 L 1559.0625 524.40625 L 1559.0625 513.78125 L 1548.4375 513.78125 L 1495.9688 513.78125 L 1495.9688 524.40625 L 1443.5312 524.40625 L 1443.5312 513.78125 L 1391.0938 513.78125 L 1391.0938 524.40625 L 1338.6562 524.40625 L 1338.6562 513.78125 L 1286.2188 513.78125 L 1275.5938 513.78125 z "
       transform="matrix(0.28222224,0,0,0.28222224,0,-3.4450957e-5)"
       id="rect3641" />
  </g>
  <g
     id="g3675">
    <path
       style="fill:none;stroke:#ff0000;stroke-width:0.03543307"
       d="M 1275.5938 1753.9375 L 1275.5938 1764.5625 L 1275.5938 1873.6875 L 1286.2188 1873.6875 L 1286.2188 1982.8438 L 1275.5938 1982.8438 L 1275.5938 2091.9688 L 1286.2188 2091.9688 L 1286.2188 2201.0938 L 1275.5938 2201.0938 L 1275.5938 2310.25 L 1275.5938 2320.875 L 1286.2188 2320.875 L 1338.6562 2320.875 L 1338.6562 2310.25 L 1391.0938 2310.25 L 1391.0938 2320.875 L 1443.5312 2320.875 L 1443.5312 2310.25 L 1495.9688 2310.25 L 1495.9688 2320.875 L 1548.4375 2320.875 L 1559.0625 2320.875 L 1559.0625 2310.25 L 1559.0625 2201.0938 L 1548.4375 2201.0938 L 1548.4375 2091.9688 L 1559.0625 2091.9688 L 1559.0625 1982.8438 L 1548.4375 1982.8438 L 1548.4375 1873.6875 L 1559.0625 1873.6875 L 1559.0625 1764.5625 L 1559.0625 1753.9375 L 1548.4375 1753.9375 L 1495.9688 1753.9375 L 1495.9688 1764.5625 L 1443.5312 1764.5625 L 1443.5312 1753.9375 L 1391.0938 1753.9375 L 1391.0938 1764.5625 L 1338.6562 1764.5625 L 1338.6562 1753.9375 L 1286.2188 1753.9375 L 1275.5938 1753.9375 z "
       transform="matrix(0.28222224,0,0,0.28222224,0,-3.4450957e-5)"
       id="rect3677" />
  </g>
  <g
     id="g3711">'a'</g>
  <path
     sodipodi:type="arc"
     style="fill:none;stroke:#ff0000;stroke-width:0.04174298;stroke-miterlimit:4;stroke-opacity:1;stroke-dasharray:none"
     id="path4514"
     sodipodi:cx="1424.8231"
     sodipodi:cy="1429.0409"
     sodipodi:rx="8.0076075"
     sodipodi:ry="11.210689"
     d="m 1432.8307,1429.0409 a 8.0076075,11.210689 0 1 1 -16.0152,0 8.0076075,11.210689 0 1 1 16.0152,0 z"
     transform="matrix(0.27976516,0,0,0.20015115,1.278639,114.11901)"
     inkscape:transform-center-x="-8.0003918"
     inkscape:transform-center-y="14.483853" />
</svg>
