<?xml version="1.0" encoding="UTF-8" standalone="no"?>
<svg
   xmlns:dc="http://purl.org/dc/elements/1.1/"
   xmlns:cc="http://creativecommons.org/ns#"
   xmlns:rdf="http://www.w3.org/1999/02/22-rdf-syntax-ns#"
   xmlns:svg="http://www.w3.org/2000/svg"
   xmlns="http://www.w3.org/2000/svg"
   xmlns:sodipodi="http://sodipodi.sourceforge.net/DTD/sodipodi-0.dtd"
   xmlns:inkscape="http://www.inkscape.org/namespaces/inkscape"
   version="1.1"
   x="0px"
   y="0px"
   width="1200mm"
   height="800mm"
   viewBox="0 0 1200 800"
   id="svg2"
   inkscape:version="0.48.2 r9819"
   sodipodi:docname="v2.svg">
  <metadata
     id="metadata174">
    <rdf:RDF>
      <cc:Work
         rdf:about="">
        <dc:format>image/svg+xml</dc:format>
        <dc:type
           rdf:resource="http://purl.org/dc/dcmitype/StillImage" />
        <dc:title></dc:title>
      </cc:Work>
    </rdf:RDF>
  </metadata>
  <defs
     id="defs172" />
  <sodipodi:namedview
     pagecolor="#ffffff"
     bordercolor="#666666"
     borderopacity="1"
     objecttolerance="10"
     gridtolerance="10"
     guidetolerance="10"
     inkscape:pageopacity="0"
     inkscape:pageshadow="2"
     inkscape:window-width="1094"
     inkscape:window-height="686"
     id="namedview170"
     showgrid="false"
     inkscape:zoom="0.33114076"
     inkscape:cx="2009.9537"
     inkscape:cy="1421.46"
     inkscape:window-x="0"
     inkscape:window-y="0"
     inkscape:window-maximized="0"
     inkscape:current-layer="g3027"
     showguides="true"
     inkscape:guide-bbox="true">
    <sodipodi:guide
       orientation="0,1"
       position="2374.5272,1676.0244"
       id="guide3157" />
    <sodipodi:guide
       orientation="-0.70710678,0.70710678"
       position="514.62325,2007.2442"
       id="guide3159" />
    <sodipodi:guide
       orientation="1,0"
       position="1417.8832,1417.8832"
       id="guide3161" />
    <sodipodi:guide
       orientation="1,0"
       position="2624.2617,1769.6402"
       id="guide3163" />
  </sodipodi:namedview>
  <g
     id="g52">
    <path
       style="fill:none;stroke:#ff0000;stroke-width:0.03543307"
       d="M 775.09375 992.125 L 775.09375 1002.75 L 666.15625 1002.75 L 655.5 1002.75 L 655.5 1168.5938 L 666.15625 1168.5938 L 666.15625 1334.4062 L 655.5 1334.4062 L 655.5 1500.25 L 666.15625 1500.25 L 666.15625 1666.0625 L 655.5 1666.0625 L 655.5 1831.875 L 666.15625 1831.875 L 775.09375 1831.875 L 775.09375 1842.5312 L 884.59375 1842.5312 L 884.59375 1831.875 L 993.375 1831.875 L 993.375 1842.5312 L 1102.8438 1842.5312 L 1102.8438 1831.875 L 1211.8125 1831.875 L 1211.8125 1666.25 L 1222.4375 1666.25 L 1222.4375 1500.0625 L 1211.8125 1500.0625 L 1211.8125 1334.5938 L 1222.4375 1334.5938 L 1222.4375 1168.4062 L 1211.8125 1168.4062 L 1211.8125 1002.75 L 1102.8438 1002.75 L 1102.8438 992.125 L 993.375 992.125 L 993.375 1002.75 L 884.59375 1002.75 L 884.59375 992.125 L 775.09375 992.125 z "
       transform="matrix(0.28222224,0,0,0.28222224,0,-3.4450957e-5)"
       id="rect54" />
  </g>
  <g
     id="g74">
    <path
       style="fill:none;stroke:#ff0000;stroke-width:0.03543307"
       d="M 1731.7812 992.125 L 1731.7812 1002.75 L 1622.8438 1002.75 L 1612.2188 1002.75 L 1612.2188 1168.5938 L 1622.8438 1168.5938 L 1622.8438 1334.4062 L 1612.2188 1334.4062 L 1612.2188 1500.25 L 1622.8438 1500.25 L 1622.8438 1666.0625 L 1612.2188 1666.0625 L 1612.2188 1831.875 L 1622.8438 1831.875 L 1731.7812 1831.875 L 1731.7812 1842.5312 L 1841.2812 1842.5312 L 1841.2812 1831.875 L 1950.0625 1831.875 L 1950.0625 1842.5312 L 2059.5625 1842.5312 L 2059.5625 1831.875 L 2168.5 1831.875 L 2168.5 1666.25 L 2179.125 1666.25 L 2179.125 1500.0625 L 2168.5 1500.0625 L 2168.5 1334.5938 L 2179.125 1334.5938 L 2179.125 1168.4062 L 2168.5 1168.4062 L 2168.5 1002.75 L 2059.5625 1002.75 L 2059.5625 992.125 L 1950.0625 992.125 L 1950.0625 1002.75 L 1841.2812 1002.75 L 1841.2812 992.125 L 1731.7812 992.125 z "
       transform="matrix(0.28222224,0,0,0.28222224,0,-3.4450957e-5)"
       id="rect76" />
  </g>
  <g
     id="g96">
    <path
       style="fill:none;stroke:#ff0000;stroke-width:0.03543307"
       d="M 1275.5938 372.0625 L 1275.5938 382.6875 L 1275.5938 491.8125 L 1286.2188 491.8125 L 1286.2188 600.9375 L 1275.5938 600.9375 L 1275.5938 710.09375 L 1286.2188 710.09375 L 1286.2188 819.21875 L 1275.5938 819.21875 L 1275.5938 928.34375 L 1275.5938 938.96875 L 1286.2188 938.96875 L 1338.6562 938.96875 L 1338.6562 928.34375 L 1391.0938 928.34375 L 1391.0938 938.96875 L 1443.5312 938.96875 L 1443.5312 928.34375 L 1495.9688 928.34375 L 1495.9688 938.96875 L 1548.4375 938.96875 L 1559.0625 938.96875 L 1559.0625 928.34375 L 1559.0625 819.21875 L 1548.4375 819.21875 L 1548.4375 710.09375 L 1559.0625 710.09375 L 1559.0625 600.9375 L 1548.4375 600.9375 L 1548.4375 491.8125 L 1559.0625 491.8125 L 1559.0625 382.6875 L 1559.0625 372.0625 L 1548.4375 372.0625 L 1495.9688 372.0625 L 1495.9688 382.6875 L 1443.5312 382.6875 L 1443.5312 372.0625 L 1391.0938 372.0625 L 1391.0938 382.6875 L 1338.6562 382.6875 L 1338.6562 372.0625 L 1286.2188 372.0625 L 1275.5938 372.0625 z "
       transform="matrix(0.28222224,0,0,0.28222224,0,-3.4450957e-5)"
       id="rect98" />
  </g>
  <g
     id="g132">
    <path
       style="fill:none;stroke:#ff0000;stroke-width:0.03543307"
       d="M 1275.5938 1895.6562 L 1275.5938 1906.3125 L 1275.5938 2015.4375 L 1286.2188 2015.4375 L 1286.2188 2124.5625 L 1275.5938 2124.5625 L 1275.5938 2233.6875 L 1286.2188 2233.6875 L 1286.2188 2342.8438 L 1275.5938 2342.8438 L 1275.5938 2451.9688 L 1275.5938 2462.5938 L 1286.2188 2462.5938 L 1338.6562 2462.5938 L 1338.6562 2451.9688 L 1391.0938 2451.9688 L 1391.0938 2462.5938 L 1443.5312 2462.5938 L 1443.5312 2451.9688 L 1495.9688 2451.9688 L 1495.9688 2462.5938 L 1548.4375 2462.5938 L 1559.0625 2462.5938 L 1559.0625 2451.9688 L 1559.0625 2342.8438 L 1548.4375 2342.8438 L 1548.4375 2233.6875 L 1559.0625 2233.6875 L 1559.0625 2124.5625 L 1548.4375 2124.5625 L 1548.4375 2015.4375 L 1559.0625 2015.4375 L 1559.0625 1906.3125 L 1559.0625 1895.6562 L 1548.4375 1895.6562 L 1495.9688 1895.6562 L 1495.9688 1906.3125 L 1443.5312 1906.3125 L 1443.5312 1895.6562 L 1391.0938 1895.6562 L 1391.0938 1906.3125 L 1338.6562 1906.3125 L 1338.6562 1895.6562 L 1286.2188 1895.6562 L 1275.5938 1895.6562 z "
       transform="matrix(0.28222224,0,0,0.28222224,0,-3.4450957e-5)"
       id="rect134" />
  </g>
  <g
     id="g168">'a'</g>
  <g
     id="g3027">
    <g
       id="g30">
      <path
         id="rect32"
         transform="matrix(0.28222224,0,0,0.28222224,0,-3.4450957e-5)"
         d="M 2295.1875 992.125 L 2295.1875 1002.75 L 2242.9062 1002.75 L 2232.2812 1002.75 L 2232.2812 1168.5938 L 2242.9062 1168.5938 L 2242.9062 1334.4062 L 2232.2812 1334.4062 L 2232.2812 1500.25 L 2242.9062 1500.25 L 2242.9062 1666.0625 L 2232.2812 1666.0625 L 2232.2812 1831.875 L 2242.9062 1831.875 L 2295.1875 1831.875 L 2295.1875 1842.5312 L 2347.9688 1842.5312 L 2347.9688 1831.875 L 2400.0625 1831.875 L 2400.0625 1842.5312 L 2452.8438 1842.5312 L 2452.8438 1831.875 L 2505.125 1831.875 L 2505.125 1666.25 L 2515.75 1666.25 L 2515.75 1500.0625 L 2505.125 1500.0625 L 2505.125 1334.5938 L 2515.75 1334.5938 L 2515.75 1168.4062 L 2505.125 1168.4062 L 2505.125 1002.75 L 2452.8438 1002.75 L 2452.8438 992.125 L 2400.0625 992.125 L 2400.0625 1002.75 L 2347.9688 1002.75 L 2347.9688 992.125 L 2295.1875 992.125 z "
         style="fill:none;stroke:#ff0000;stroke-width:0.03543307" />
    </g>
    <path
       transform="matrix(1.5352389,0,0,1.6815597,-2974.8043,-1983.1011)"
       d="m 2377.3878,1417.1028 a 3.2086053,2.925493 0 1 1 -6.4172,0 3.2086053,2.925493 0 1 1 6.4172,0 z"
       sodipodi:ry="2.925493"
       sodipodi:rx="3.2086053"
       sodipodi:cy="1417.1028"
       sodipodi:cx="2374.1792"
       id="path3167"
       style="fill:none;stroke:#ff0000;stroke-width:0.00614773;stroke-miterlimit:4;stroke-opacity:1;stroke-dasharray:none"
       sodipodi:type="arc" />
  </g>
  <g
     id="g3021">
    <g
       id="g8">
      <path
         id="rect10"
         transform="matrix(0.28222224,0,0,0.28222224,0,-3.4450957e-5)"
         d="M 1338.4688 992.125 L 1338.4688 1002.75 L 1286.2188 1002.75 L 1275.5938 1002.75 L 1275.5938 1168.5938 L 1286.2188 1168.5938 L 1286.2188 1334.4062 L 1275.5938 1334.4062 L 1275.5938 1500.25 L 1286.2188 1500.25 L 1286.2188 1666.0625 L 1275.5938 1666.0625 L 1275.5938 1831.875 L 1286.2188 1831.875 L 1338.4688 1831.875 L 1338.4688 1842.5312 L 1391.2812 1842.5312 L 1391.2812 1831.875 L 1443.375 1831.875 L 1443.375 1842.5312 L 1496.1562 1842.5312 L 1496.1562 1831.875 L 1548.4375 1831.875 L 1548.4375 1666.25 L 1559.0625 1666.25 L 1559.0625 1500.0625 L 1548.4375 1500.0625 L 1548.4375 1334.5938 L 1559.0625 1334.5938 L 1559.0625 1168.4062 L 1548.4375 1168.4062 L 1548.4375 1002.75 L 1496.1562 1002.75 L 1496.1562 992.125 L 1443.375 992.125 L 1443.375 1002.75 L 1391.2812 1002.75 L 1391.2812 992.125 L 1338.4688 992.125 z "
         style="fill:none;stroke:#ff0000;stroke-width:0.03543307" />
    </g>
    <path
       transform="matrix(0.51982695,0,0,0.63796821,-351.93814,-519.59549)"
       d="m 1475.538,1440.2516 a 28.827419,23.489054 0 1 1 -57.6548,0 28.827419,23.489054 0 1 1 57.6548,0 z"
       sodipodi:ry="23.489054"
       sodipodi:rx="28.827419"
       sodipodi:cy="1440.2516"
       sodipodi:cx="1446.7106"
       id="path3165"
       style="fill:none;stroke:#ff0000;stroke-width:0.01715261;stroke-miterlimit:4;stroke-opacity:1;stroke-dasharray:none"
       sodipodi:type="arc" />
    <rect
       y="448.86368"
       x="369.03345"
       height="64.772728"
       width="63.921097"
       id="rect3000"
       style="fill:none;stroke:#ff0000;stroke-width:0.00987778;stroke-miterlimit:4;stroke-opacity:1;stroke-dasharray:none" />
  </g>
</svg>
