<?xml version="1.0" encoding="UTF-8" standalone="no"?>
<svg
   xmlns:dc="http://purl.org/dc/elements/1.1/"
   xmlns:cc="http://creativecommons.org/ns#"
   xmlns:rdf="http://www.w3.org/1999/02/22-rdf-syntax-ns#"
   xmlns:svg="http://www.w3.org/2000/svg"
   xmlns="http://www.w3.org/2000/svg"
   xmlns:sodipodi="http://sodipodi.sourceforge.net/DTD/sodipodi-0.dtd"
   xmlns:inkscape="http://www.inkscape.org/namespaces/inkscape"
   version="1.1"
   x="0px"
   y="0px"
   width="1200mm"
   height="800mm"
   viewBox="0 0 1200 800"
   id="svg2"
   inkscape:version="0.48.2 r9819"
   sodipodi:docname="v4-1-works-plain.pdf">
  <metadata
     id="metadata174">
    <rdf:RDF>
      <cc:Work
         rdf:about="">
        <dc:format>image/svg+xml</dc:format>
        <dc:type
           rdf:resource="http://purl.org/dc/dcmitype/StillImage" />
        <dc:title></dc:title>
      </cc:Work>
    </rdf:RDF>
  </metadata>
  <defs
     id="defs172" />
  <sodipodi:namedview
     pagecolor="#ffffff"
     bordercolor="#666666"
     borderopacity="1"
     objecttolerance="10"
     gridtolerance="10"
     guidetolerance="10"
     inkscape:pageopacity="0"
     inkscape:pageshadow="2"
     inkscape:window-width="1193"
     inkscape:window-height="743"
     id="namedview170"
     showgrid="false"
     inkscape:zoom="0.31756942"
     inkscape:cx="1263.3216"
     inkscape:cy="2487.1793"
     inkscape:window-x="51"
     inkscape:window-y="22"
     inkscape:window-maximized="0"
     inkscape:current-layer="svg2"
     showguides="true"
     inkscape:guide-bbox="true" />
  <g
     id="g74"
     transform="translate(-359.92132,-271.05187)">
    <path
       style="fill:none;stroke:#ff0000;stroke-width:0.03543307"
       d="m 1731.7812,992.125 0,10.625 -108.9374,0 -10.625,0 0,165.8438 10.625,0 0,165.8124 -10.625,0 0,165.8438 10.625,0 0,165.8125 -10.625,0 0,165.8125 10.625,0 108.9374,0 0,10.6562 109.5,0 0,-10.6562 108.7813,0 0,10.6562 109.5,0 0,-10.6562 c 0,0 74.1781,-0.044 119.4646,-0.044 0,-31.6409 0.082,-110.3874 0.098,-165.5812 0.016,-55.3958 0,-166.1875 0,-166.1875 l -10.625,0 0,-165.4687 10.625,0 0,-166.1876 -10.625,0 0,-165.6562 -108.9375,0 0,-10.625 -109.5,0 0,10.625 -108.7813,0 0,-10.625 z"
       transform="matrix(0.28222224,0,0,0.28222224,0,-3.4450957e-5)"
       id="rect76"
       inkscape:connector-curvature="0"
       sodipodi:nodetypes="cccccccccccccccccccccccacccccccccccccc" />
  </g>
  <g
     id="g132"
     transform="translate(-14.219115,-524.32984)">
    <path
       style="fill:none;stroke:#ff0000;stroke-width:0.03543307"
       d="m 1275.5938,1895.6562 0,10.6563 0,109.125 10.625,0 0,109.125 -10.625,0 0,109.125 10.625,0 0,109.1563 -10.625,0 0,109.125 0,10.625 10.625,0 c 0,0 34.9583,0 52.4374,0 17.4792,0 34.9584,0 52.4376,0 17.4791,0 34.9583,0 52.4374,0 17.4792,0 34.9584,0 52.4376,0 17.4896,0 52.4687,0 52.4687,0 l 10.625,0 0,-10.625 0,-109.125 -10.625,0 0,-109.1563 10.625,0 0,-109.125 -10.625,0 0,-109.125 10.625,0 0,-109.125 0,-10.6563 -10.625,0 -52.4687,0 0,10.6563 -52.4376,0 0,-10.6563 -52.4374,0 0,10.6563 -52.4376,0 0,-10.6563 -52.4374,0 z"
       transform="matrix(0.28222224,0,0,0.28222224,0,-3.4450957e-5)"
       id="rect134"
       inkscape:connector-curvature="0"
       sodipodi:nodetypes="cccccccccccccaaaacccccccccccccccccccccccc" />
  </g>
  <g
     id="g168">'a'</g>
  <g
     id="g3866"
     transform="translate(-351.03438,-271.94056)">
    <g
       id="g3021">
      <g
         id="g8">
        <path
           style="fill:none;stroke:#ff0000;stroke-width:0.03543307"
           d="m 1338.4688,992.125 0,10.625 -52.25,0 -10.625,0 0,165.8438 10.625,0 0,165.8124 -10.625,0 0,165.8438 10.625,0 0,165.8125 -10.625,0 0,165.8125 10.625,0 52.25,0 0,10.6562 52.8124,0 0,-10.6562 52.0938,0 0,10.6562 52.7812,0 0,-10.6562 52.2813,0 0,-165.625 10.625,0 0,-166.1875 -10.625,0 0,-165.4687 10.625,0 0,-166.1876 -10.625,0 0,-165.6562 -52.2813,0 0,-10.625 -52.7812,0 0,10.625 -52.0938,0 0,-10.625 -52.8124,0 z"
           transform="matrix(0.28222224,0,0,0.28222224,0,-3.4450957e-5)"
           id="rect10"
           inkscape:connector-curvature="0" />
      </g>
      <path
         sodipodi:type="arc"
         style="fill:none;stroke:#ff0000;stroke-width:0.01715261;stroke-miterlimit:4;stroke-opacity:1;stroke-dasharray:none"
         id="path3165"
         sodipodi:cx="1446.7106"
         sodipodi:cy="1440.2516"
         sodipodi:rx="28.827419"
         sodipodi:ry="23.489054"
         d="m 1475.538,1440.2516 c 0,12.9726 -12.9065,23.489 -28.8274,23.489 -15.921,0 -28.8274,-10.5164 -28.8274,-23.489 0,-12.9727 12.9064,-23.4891 28.8274,-23.4891 15.9209,0 28.8274,10.5164 28.8274,23.4891 z"
         transform="matrix(0.51982695,0,0,0.63796821,-351.93814,-519.59549)" />
    </g>
  </g>
  <g
     id="g3872"
     transform="translate(-370.58566,-271.05187)">
    <g
       id="g3027">
      <g
         id="g30">
        <path
           sodipodi:nodetypes="ccccccccccccccccccccccccccccccccaaaaccc"
           inkscape:connector-curvature="0"
           style="fill:none;stroke:#ff0000;stroke-width:0.035;stroke-miterlimit:4;stroke-dasharray:none"
           d="m 2515.75,1666.25 0,-83.0938 0,-41.5468 0,-41.5469 m 0,0 -10.625,0 0,-165.4687 10.625,0 0,-166.1876 -10.625,0 0,-165.6562 -52.2812,0 0,-10.625 -52.7813,0 0,10.625 -52.0937,0 0,-10.625 -52.7813,0 0,10.625 -52.2813,0 -10.625,0 0,165.8438 10.625,0 0,165.8124 -10.625,0 0,165.8438 10.625,0 0,41.4531 0,41.4531 0,41.4532 0,41.4531 c -0.142,14.89 -0.5479,124.8951 0,165.8125 0,0 34.8542,0 52.2813,0 17.5938,0 35.1875,0 52.7813,0 17.3646,0 34.7291,0 52.0937,0 17.5938,0 35.1875,0 52.7813,0 17.4271,0 52.2812,0 52.2812,0 l 0,-165.625 10.625,0"
           transform="matrix(0.28222224,0,0,0.28222224,0,-3.4450957e-5)"
           id="rect32" />
      </g>
      <path
         sodipodi:type="arc"
         style="fill:none;stroke:#ff0000;stroke-width:0.00614773;stroke-miterlimit:4;stroke-opacity:1;stroke-dasharray:none"
         id="path3167"
         sodipodi:cx="2374.1792"
         sodipodi:cy="1417.1028"
         sodipodi:rx="3.2086053"
         sodipodi:ry="2.925493"
         d="m 2377.3878,1417.1028 c 0,1.6157 -1.4365,2.9255 -3.2086,2.9255 -1.7721,0 -3.2086,-1.3098 -3.2086,-2.9255 0,-1.6157 1.4365,-2.9255 3.2086,-2.9255 1.7721,0 3.2086,1.3098 3.2086,2.9255 z"
         transform="matrix(1.5352389,0,0,1.6815597,-2974.8043,-1983.1011)" />
    </g>
    <path
       sodipodi:nodetypes="ccc"
       inkscape:connector-curvature="0"
       id="path3024"
       d="m 632.97287,470.20786 c 0.15255,-25.80818 0.4679,-46.87499 36.68842,-46.96323 36.87082,0.1897 37.3978,21.03871 37.34702,47.00636"
       style="fill:none;stroke:#ff0000;stroke-width:0.00987779;stroke-linecap:butt;stroke-linejoin:miter;stroke-miterlimit:4;stroke-opacity:1;stroke-dasharray:none" />
  </g>
</svg>
