<?xml version="1.0" encoding="UTF-8" standalone="no"?>
<svg
   xmlns:dc="http://purl.org/dc/elements/1.1/"
   xmlns:cc="http://creativecommons.org/ns#"
   xmlns:rdf="http://www.w3.org/1999/02/22-rdf-syntax-ns#"
   xmlns:svg="http://www.w3.org/2000/svg"
   xmlns="http://www.w3.org/2000/svg"
   xmlns:sodipodi="http://sodipodi.sourceforge.net/DTD/sodipodi-0.dtd"
   xmlns:inkscape="http://www.inkscape.org/namespaces/inkscape"
   version="1.1"
   x="0px"
   y="0px"
   width="1200mm"
   height="800mm"
   viewBox="0 0 1200 800"
   id="svg2"
   inkscape:version="0.48.2 r9819"
   sodipodi:docname="v4-1.svg">
  <metadata
     id="metadata174">
    <rdf:RDF>
      <cc:Work
         rdf:about="">
        <dc:format>image/svg+xml</dc:format>
        <dc:type
           rdf:resource="http://purl.org/dc/dcmitype/StillImage" />
        <dc:title></dc:title>
      </cc:Work>
    </rdf:RDF>
  </metadata>
  <defs
     id="defs172" />
  <sodipodi:namedview
     pagecolor="#ffffff"
     bordercolor="#666666"
     borderopacity="1"
     objecttolerance="10"
     gridtolerance="10"
     guidetolerance="10"
     inkscape:pageopacity="0"
     inkscape:pageshadow="2"
     inkscape:window-width="1193"
     inkscape:window-height="743"
     id="namedview170"
     showgrid="false"
     inkscape:zoom="0.31756942"
     inkscape:cx="2071.4044"
     inkscape:cy="1122.8826"
     inkscape:window-x="0"
     inkscape:window-y="0"
     inkscape:window-maximized="0"
     inkscape:current-layer="svg2"
     showguides="true"
     inkscape:guide-bbox="true">
    <sodipodi:guide
       orientation="0,1"
       position="2374.5272,1676.0244"
       id="guide3157" />
    <sodipodi:guide
       orientation="1,0"
       position="1417.8832,1417.8832"
       id="guide3161" />
    <sodipodi:guide
       orientation="1,0"
       position="2624.2617,1769.6402"
       id="guide3163" />
    <sodipodi:guide
       orientation="0,1"
       position="2567.1553,1374.5026"
       id="guide3022" />
    <sodipodi:guide
       orientation="0,1"
       position="2453.007,1260.3544"
       id="guide3813" />
    <sodipodi:guide
       orientation="1,0"
       position="2179.0271,1153.2506"
       id="guide3834" />
    <sodipodi:guide
       orientation="0,1"
       position="2178.7488,1002.8145"
       id="guide3836" />
    <sodipodi:guide
       orientation="1,0"
       position="2242.7642,1178.9959"
       id="guide3838" />
  </sodipodi:namedview>
  <g
     id="g52">
    <path
       style="fill:none;stroke:#ff0000;stroke-width:0.03543307"
       d="M 775.09375 992.125 L 775.09375 1002.75 L 666.15625 1002.75 L 655.5 1002.75 L 655.5 1168.5938 L 666.15625 1168.5938 L 666.15625 1334.4062 L 655.5 1334.4062 L 655.5 1500.25 L 666.15625 1500.25 L 666.15625 1666.0625 L 655.5 1666.0625 L 655.5 1831.875 L 666.15625 1831.875 L 775.09375 1831.875 L 775.09375 1842.5312 L 884.59375 1842.5312 L 884.59375 1831.875 L 993.375 1831.875 L 993.375 1842.5312 L 1102.8438 1842.5312 L 1102.8438 1831.875 L 1211.8125 1831.875 L 1211.8125 1666.25 L 1222.4375 1666.25 L 1222.4375 1500.0625 L 1211.8125 1500.0625 L 1211.8125 1334.5938 L 1222.4375 1334.5938 L 1222.4375 1168.4062 L 1211.8125 1168.4062 L 1211.8125 1002.75 L 1102.8438 1002.75 L 1102.8438 992.125 L 993.375 992.125 L 993.375 1002.75 L 884.59375 1002.75 L 884.59375 992.125 L 775.09375 992.125 z "
       transform="matrix(0.28222224,0,0,0.28222224,0,-3.4450957e-5)"
       id="rect54" />
  </g>
  <g
     id="g74">
    <path
       style="fill:none;stroke:#ff0000;stroke-width:0.03543307"
       d="m 1731.7812,992.125 0,10.625 -108.9374,0 -10.625,0 0,165.8438 10.625,0 0,165.8124 -10.625,0 0,165.8438 10.625,0 0,165.8125 -10.625,0 0,165.8125 10.625,0 108.9374,0 0,10.6562 109.5,0 0,-10.6562 108.7813,0 0,10.6562 109.5,0 0,-10.6562 c 0,0 74.1781,-0.044 119.4646,-0.044 0,-31.6409 0.082,-110.3874 0.098,-165.5812 0.016,-55.3958 0,-166.1875 0,-166.1875 l -10.625,0 0,-165.4687 10.625,0 0,-166.1876 -10.625,0 0,-165.6562 -108.9375,0 0,-10.625 -109.5,0 0,10.625 -108.7813,0 0,-10.625 z"
       transform="matrix(0.28222224,0,0,0.28222224,0,-3.4450957e-5)"
       id="rect76"
       inkscape:connector-curvature="0"
       sodipodi:nodetypes="cccccccccccccccccccccccacccccccccccccc" />
  </g>
  <g
     id="g96">
    <path
       style="fill:none;stroke:#ff0000;stroke-width:0.03543307"
       d="M 1275.5938 372.0625 L 1275.5938 382.6875 L 1275.5938 491.8125 L 1286.2188 491.8125 L 1286.2188 600.9375 L 1275.5938 600.9375 L 1275.5938 710.09375 L 1286.2188 710.09375 L 1286.2188 819.21875 L 1275.5938 819.21875 L 1275.5938 928.34375 L 1275.5938 938.96875 L 1286.2188 938.96875 L 1338.6562 938.96875 L 1338.6562 928.34375 L 1391.0938 928.34375 L 1391.0938 938.96875 L 1443.5312 938.96875 L 1443.5312 928.34375 L 1495.9688 928.34375 L 1495.9688 938.96875 L 1548.4375 938.96875 L 1559.0625 938.96875 L 1559.0625 928.34375 L 1559.0625 819.21875 L 1548.4375 819.21875 L 1548.4375 710.09375 L 1559.0625 710.09375 L 1559.0625 600.9375 L 1548.4375 600.9375 L 1548.4375 491.8125 L 1559.0625 491.8125 L 1559.0625 382.6875 L 1559.0625 372.0625 L 1548.4375 372.0625 L 1495.9688 372.0625 L 1495.9688 382.6875 L 1443.5312 382.6875 L 1443.5312 372.0625 L 1391.0938 372.0625 L 1391.0938 382.6875 L 1338.6562 382.6875 L 1338.6562 372.0625 L 1286.2188 372.0625 L 1275.5938 372.0625 z "
       transform="matrix(0.28222224,0,0,0.28222224,0,-3.4450957e-5)"
       id="rect98" />
  </g>
  <g
     id="g132">
    <path
       style="fill:none;stroke:#ff0000;stroke-width:0.03543307"
       d="m 1275.5938,1895.6562 0,10.6563 0,109.125 10.625,0 0,109.125 -10.625,0 0,109.125 10.625,0 0,109.1563 -10.625,0 0,109.125 0,10.625 10.625,0 c 0,0 34.9583,0 52.4374,0 17.4792,0 34.9584,0 52.4376,0 17.4791,0 34.9583,0 52.4374,0 17.4792,0 34.9584,0 52.4376,0 17.4896,0 52.4687,0 52.4687,0 l 10.625,0 0,-10.625 0,-109.125 -10.625,0 0,-109.1563 10.625,0 0,-109.125 -10.625,0 0,-109.125 10.625,0 0,-109.125 0,-10.6563 -10.625,0 -52.4687,0 0,10.6563 -52.4376,0 0,-10.6563 -52.4374,0 0,10.6563 -52.4376,0 0,-10.6563 -52.4374,0 z"
       transform="matrix(0.28222224,0,0,0.28222224,0,-3.4450957e-5)"
       id="rect134"
       inkscape:connector-curvature="0"
       sodipodi:nodetypes="cccccccccccccaaaacccccccccccccccccccccccc" />
  </g>
  <g
     id="g168">'a'</g>
  <g
     id="g3027">
    <g
       id="g30">
      <path
         id="rect32"
         transform="matrix(0.28222224,0,0,0.28222224,0,-3.4450957e-5)"
         d="m 2515.75,1666.25 0,-83.0938 0,-41.5468 0,-41.5469 m 0,0 -10.625,0 0,-165.4687 10.625,0 0,-166.1876 -10.625,0 0,-165.6562 -52.2812,0 0,-10.625 -52.7813,0 0,10.625 -52.0937,0 0,-10.625 -52.7813,0 0,10.625 -52.2813,0 -10.625,0 0,165.8438 10.625,0 0,165.8124 -10.625,0 0,165.8438 10.625,0 0,41.4531 0,41.4531 0,41.4532 0,41.4531 c -0.142,14.89 -0.5479,124.8951 0,165.8125 0,0 34.8542,0 52.2813,0 17.5938,0 35.1875,0 52.7813,0 17.3646,0 34.7291,0 52.0937,0 17.5938,0 35.1875,0 52.7813,0 17.4271,0 52.2812,0 52.2812,0 l 0,-165.625 10.625,0"
         style="fill:none;stroke:#ff0000;stroke-width:0.035;stroke-miterlimit:4;stroke-dasharray:none"
         inkscape:connector-curvature="0"
         sodipodi:nodetypes="ccccccccccccccccccccccccccccccccaaaaccc" />
    </g>
    <path
       transform="matrix(1.5352389,0,0,1.6815597,-2974.8043,-1983.1011)"
       d="m 2377.3878,1417.1028 a 3.2086053,2.925493 0 1 1 -6.4172,0 3.2086053,2.925493 0 1 1 6.4172,0 z"
       sodipodi:ry="2.925493"
       sodipodi:rx="3.2086053"
       sodipodi:cy="1417.1028"
       sodipodi:cx="2374.1792"
       id="path3167"
       style="fill:none;stroke:#ff0000;stroke-width:0.00614773;stroke-miterlimit:4;stroke-opacity:1;stroke-dasharray:none"
       sodipodi:type="arc" />
  </g>
  <g
     id="g3021">
    <g
       id="g8">
      <path
         id="rect10"
         transform="matrix(0.28222224,0,0,0.28222224,0,-3.4450957e-5)"
         d="M 1338.4688 992.125 L 1338.4688 1002.75 L 1286.2188 1002.75 L 1275.5938 1002.75 L 1275.5938 1168.5938 L 1286.2188 1168.5938 L 1286.2188 1334.4062 L 1275.5938 1334.4062 L 1275.5938 1500.25 L 1286.2188 1500.25 L 1286.2188 1666.0625 L 1275.5938 1666.0625 L 1275.5938 1831.875 L 1286.2188 1831.875 L 1338.4688 1831.875 L 1338.4688 1842.5312 L 1391.2812 1842.5312 L 1391.2812 1831.875 L 1443.375 1831.875 L 1443.375 1842.5312 L 1496.1562 1842.5312 L 1496.1562 1831.875 L 1548.4375 1831.875 L 1548.4375 1666.25 L 1559.0625 1666.25 L 1559.0625 1500.0625 L 1548.4375 1500.0625 L 1548.4375 1334.5938 L 1559.0625 1334.5938 L 1559.0625 1168.4062 L 1548.4375 1168.4062 L 1548.4375 1002.75 L 1496.1562 1002.75 L 1496.1562 992.125 L 1443.375 992.125 L 1443.375 1002.75 L 1391.2812 1002.75 L 1391.2812 992.125 L 1338.4688 992.125 z "
         style="fill:none;stroke:#ff0000;stroke-width:0.03543307" />
    </g>
    <path
       transform="matrix(0.51982695,0,0,0.63796821,-351.93814,-519.59549)"
       d="m 1475.538,1440.2516 a 28.827419,23.489054 0 1 1 -57.6548,0 28.827419,23.489054 0 1 1 57.6548,0 z"
       sodipodi:ry="23.489054"
       sodipodi:rx="28.827419"
       sodipodi:cy="1440.2516"
       sodipodi:cx="1446.7106"
       id="path3165"
       style="fill:none;stroke:#ff0000;stroke-width:0.01715261;stroke-miterlimit:4;stroke-opacity:1;stroke-dasharray:none"
       sodipodi:type="arc" />
  </g>
  <path
     style="fill:none;stroke:#ff0000;stroke-width:0.00987779;stroke-linecap:butt;stroke-linejoin:miter;stroke-miterlimit:4;stroke-opacity:1;stroke-dasharray:none"
     d="m 632.97287,470.20786 c 0.15255,-25.80818 0.4679,-46.87499 36.68842,-46.96323 36.87082,0.1897 37.3978,21.03871 37.34702,47.00636"
     id="path3024"
     inkscape:connector-curvature="0"
     sodipodi:nodetypes="ccc" />
</svg>
