<?xml version="1.0" encoding="UTF-8" standalone="no"?>
<!-- Created with Inkscape (http://www.inkscape.org/) -->

<svg
   xmlns:dc="http://purl.org/dc/elements/1.1/"
   xmlns:cc="http://creativecommons.org/ns#"
   xmlns:rdf="http://www.w3.org/1999/02/22-rdf-syntax-ns#"
   xmlns:svg="http://www.w3.org/2000/svg"
   xmlns="http://www.w3.org/2000/svg"
   version="1.1"
   width="1200mm"
   height="800mm"
   viewBox="0 0 1200 800"
   id="svg2">
  <metadata
     id="metadata174">
    <rdf:RDF>
      <cc:Work
         rdf:about="">
        <dc:format>image/svg+xml</dc:format>
        <dc:type
           rdf:resource="http://purl.org/dc/dcmitype/StillImage" />
        <dc:title></dc:title>
      </cc:Work>
    </rdf:RDF>
  </metadata>
  <defs
     id="defs172" />
  <g
     transform="translate(-359.92132,-271.05187)"
     id="g74">
    <path
       d="m 1731.7812,992.125 0,10.625 -108.9374,0 -10.625,0 0,165.8438 10.625,0 0,165.8124 -10.625,0 0,165.8438 10.625,0 0,165.8125 -10.625,0 0,165.8125 10.625,0 108.9374,0 0,10.6562 109.5,0 0,-10.6562 108.7813,0 0,10.6562 109.5,0 0,-10.6562 c 0,0 74.1781,-0.044 119.4646,-0.044 0,-31.6409 0.082,-110.3874 0.098,-165.5812 0.016,-55.3958 0,-166.1875 0,-166.1875 l -10.625,0 0,-165.4687 10.625,0 0,-166.1876 -10.625,0 0,-165.6562 -108.9375,0 0,-10.625 -109.5,0 0,10.625 -108.7813,0 0,-10.625 z"
       transform="matrix(0.28222224,0,0,0.28222224,0,-3.4450957e-5)"
       id="rect76"
       style="fill:none;stroke:#ff0000;stroke-width:0.03543307" />
  </g>
  <g
     transform="translate(-14.219115,-524.32984)"
     id="g132">
    <path
       d="m 1275.5938,1895.6562 0,10.6563 0,109.125 10.625,0 0,109.125 -10.625,0 0,109.125 10.625,0 0,109.1563 -10.625,0 0,109.125 0,10.625 10.625,0 c 0,0 34.9583,0 52.4374,0 17.4792,0 34.9584,0 52.4376,0 17.4791,0 34.9583,0 52.4374,0 17.4792,0 34.9584,0 52.4376,0 17.4896,0 52.4687,0 52.4687,0 l 10.625,0 0,-10.625 0,-109.125 -10.625,0 0,-109.1563 10.625,0 0,-109.125 -10.625,0 0,-109.125 10.625,0 0,-109.125 0,-10.6563 -10.625,0 -52.4687,0 0,10.6563 -52.4376,0 0,-10.6563 -52.4374,0 0,10.6563 -52.4376,0 0,-10.6563 -52.4374,0 z"
       transform="matrix(0.28222224,0,0,0.28222224,0,-3.4450957e-5)"
       id="rect134"
       style="fill:none;stroke:#ff0000;stroke-width:0.03543307" />
  </g>
  <g
     id="g168">'a'</g>
  <g
     transform="translate(-351.03438,-271.94056)"
     id="g3866">
    <g
       id="g3021">
      <g
         id="g8">
        <path
           d="m 1338.4688,992.125 0,10.625 -52.25,0 -10.625,0 0,165.8438 10.625,0 0,165.8124 -10.625,0 0,165.8438 10.625,0 0,165.8125 -10.625,0 0,165.8125 10.625,0 52.25,0 0,10.6562 52.8124,0 0,-10.6562 52.0938,0 0,10.6562 52.7812,0 0,-10.6562 52.2813,0 0,-165.625 10.625,0 0,-166.1875 -10.625,0 0,-165.4687 10.625,0 0,-166.1876 -10.625,0 0,-165.6562 -52.2813,0 0,-10.625 -52.7812,0 0,10.625 -52.0938,0 0,-10.625 -52.8124,0 z"
           transform="matrix(0.28222224,0,0,0.28222224,0,-3.4450957e-5)"
           id="rect10"
           style="fill:none;stroke:#ff0000;stroke-width:0.03543307" />
      </g>
      <path
         d="m 1475.538,1440.2516 a 28.827419,23.489054 0 1 1 -57.6548,0 28.827419,23.489054 0 1 1 57.6548,0 z"
         transform="matrix(0.51982695,0,0,0.63796821,-351.93814,-519.59549)"
         id="path3165"
         style="fill:none;stroke:#ff0000;stroke-width:0.01715261;stroke-miterlimit:4;stroke-opacity:1;stroke-dasharray:none" />
    </g>
  </g>
  <g
     transform="translate(-370.58566,-271.05187)"
     id="g3872">
    <g
       id="g3027">
      <g
         id="g30">
        <path
           d="m 2515.75,1666.25 0,-83.0938 0,-41.5468 0,-41.5469 m 0,0 -10.625,0 0,-165.4687 10.625,0 0,-166.1876 -10.625,0 0,-165.6562 -52.2812,0 0,-10.625 -52.7813,0 0,10.625 -52.0937,0 0,-10.625 -52.7813,0 0,10.625 -52.2813,0 -10.625,0 0,165.8438 10.625,0 0,165.8124 -10.625,0 0,165.8438 10.625,0 0,41.4531 0,41.4531 0,41.4532 0,41.4531 c -0.142,14.89 -0.5479,124.8951 0,165.8125 0,0 34.8542,0 52.2813,0 17.5938,0 35.1875,0 52.7813,0 17.3646,0 34.7291,0 52.0937,0 17.5938,0 35.1875,0 52.7813,0 17.4271,0 52.2812,0 52.2812,0 l 0,-165.625 10.625,0"
           transform="matrix(0.28222224,0,0,0.28222224,0,-3.4450957e-5)"
           id="rect32"
           style="fill:none;stroke:#ff0000;stroke-width:0.035;stroke-miterlimit:4;stroke-dasharray:none" />
      </g>
      <path
         d="m 2377.3878,1417.1028 a 3.2086053,2.925493 0 1 1 -6.4172,0 3.2086053,2.925493 0 1 1 6.4172,0 z"
         transform="matrix(1.5352389,0,0,1.6815597,-2974.8043,-1983.1011)"
         id="path3167"
         style="fill:none;stroke:#ff0000;stroke-width:0.00614773;stroke-miterlimit:4;stroke-opacity:1;stroke-dasharray:none" />
    </g>
    <path
       d="m 632.97287,470.20786 c 0.15255,-25.80818 0.4679,-46.87499 36.68842,-46.96323 36.87082,0.1897 37.3978,21.03871 37.34702,47.00636"
       id="path3024"
       style="fill:none;stroke:#ff0000;stroke-width:0.00987779;stroke-linecap:butt;stroke-linejoin:miter;stroke-miterlimit:4;stroke-opacity:1;stroke-dasharray:none" />
  </g>
</svg>
