solid ascii
  facet normal 5.000000e-01 5.000000e-01 7.071068e-01
    outer loop
      vertex   -1.200000e+02 1.282929e+02 1.050000e+01
      vertex   -1.167071e+02 1.250000e+02 1.050000e+01
      vertex   -1.200000e+02 1.360711e+02 5.000000e+00
    endloop
  endfacet
  facet normal 5.000000e-01 5.000000e-01 7.071068e-01
    outer loop
      vertex   -1.200000e+02 1.360711e+02 5.000000e+00
      vertex   -1.167071e+02 1.250000e+02 1.050000e+01
      vertex   -1.089289e+02 1.250000e+02 5.000000e+00
    endloop
  endfacet
  facet normal -0.000000e+00 8.022518e-17 1.000000e+00
    outer loop
      vertex   -1.089289e+02 1.250000e+02 5.000000e+00
      vertex   -1.010711e+02 1.250000e+02 5.000000e+00
      vertex   -1.200000e+02 1.360711e+02 5.000000e+00
    endloop
  endfacet
  facet normal -4.692174e-17 0.000000e+00 1.000000e+00
    outer loop
      vertex   -1.200000e+02 1.360711e+02 5.000000e+00
      vertex   -1.010711e+02 1.250000e+02 5.000000e+00
      vertex   -1.200000e+02 1.439289e+02 5.000000e+00
    endloop
  endfacet
  facet normal 1.078903e-15 0.000000e+00 -1.000000e+00
    outer loop
      vertex   -1.200000e+02 1.282929e+02 1.050000e+01
      vertex   -1.200000e+02 1.342929e+02 1.050000e+01
      vertex   -1.167071e+02 1.250000e+02 1.050000e+01
    endloop
  endfacet
  facet normal 0.000000e+00 -3.823044e-16 -1.000000e+00
    outer loop
      vertex   -1.167071e+02 1.250000e+02 1.050000e+01
      vertex   -1.200000e+02 1.342929e+02 1.050000e+01
      vertex   -1.107071e+02 1.250000e+02 1.050000e+01
    endloop
  endfacet
  facet normal -5.000000e-01 -5.000000e-01 7.071068e-01
    outer loop
      vertex   -9.329289e+01 1.250000e+02 1.050000e+01
      vertex   -1.200000e+02 1.517071e+02 1.050000e+01
      vertex   -1.010711e+02 1.250000e+02 5.000000e+00
    endloop
  endfacet
  facet normal -5.000000e-01 -5.000000e-01 7.071068e-01
    outer loop
      vertex   -1.010711e+02 1.250000e+02 5.000000e+00
      vertex   -1.200000e+02 1.517071e+02 1.050000e+01
      vertex   -1.200000e+02 1.439289e+02 5.000000e+00
    endloop
  endfacet
  facet normal -1.244897e-16 -2.960595e-16 -1.000000e+00
    outer loop
      vertex   -1.200000e+02 1.457071e+02 1.050000e+01
      vertex   -1.200000e+02 1.517071e+02 1.050000e+01
      vertex   -9.929289e+01 1.250000e+02 1.050000e+01
    endloop
  endfacet
  facet normal 0.000000e+00 -1.995375e-16 -1.000000e+00
    outer loop
      vertex   -9.929289e+01 1.250000e+02 1.050000e+01
      vertex   -1.200000e+02 1.517071e+02 1.050000e+01
      vertex   -9.329289e+01 1.250000e+02 1.050000e+01
    endloop
  endfacet
  facet normal -7.071068e-01 -7.071068e-01 2.043253e-15
    outer loop
      vertex   -1.200000e+02 1.457071e+02 1.050000e+01
      vertex   -9.929289e+01 1.250000e+02 1.050000e+01
      vertex   -1.200000e+02 1.457071e+02 2.000000e+01
    endloop
  endfacet
  facet normal -7.071068e-01 -7.071068e-01 0.000000e+00
    outer loop
      vertex   -1.200000e+02 1.457071e+02 2.000000e+01
      vertex   -9.929289e+01 1.250000e+02 1.050000e+01
      vertex   -9.929289e+01 1.250000e+02 2.000000e+01
    endloop
  endfacet
  facet normal 5.000000e-01 5.000000e-01 7.071068e-01
    outer loop
      vertex   -1.167071e+02 1.550000e+02 1.050000e+01
      vertex   -9.000000e+01 1.282929e+02 1.050000e+01
      vertex   -1.089289e+02 1.550000e+02 5.000000e+00
    endloop
  endfacet
  facet normal 5.000000e-01 5.000000e-01 7.071068e-01
    outer loop
      vertex   -1.089289e+02 1.550000e+02 5.000000e+00
      vertex   -9.000000e+01 1.282929e+02 1.050000e+01
      vertex   -9.000000e+01 1.360711e+02 5.000000e+00
    endloop
  endfacet
  facet normal -2.154217e-16 1.130305e-16 1.000000e+00
    outer loop
      vertex   -9.000000e+01 1.360711e+02 5.000000e+00
      vertex   -9.000000e+01 1.439289e+02 5.000000e+00
      vertex   -1.089289e+02 1.550000e+02 5.000000e+00
    endloop
  endfacet
  facet normal -1.130305e-16 2.880954e-16 1.000000e+00
    outer loop
      vertex   -1.089289e+02 1.550000e+02 5.000000e+00
      vertex   -9.000000e+01 1.439289e+02 5.000000e+00
      vertex   -1.010711e+02 1.550000e+02 5.000000e+00
    endloop
  endfacet
  facet normal 2.960595e-16 2.102746e-16 -1.000000e+00
    outer loop
      vertex   -1.107071e+02 1.550000e+02 1.050000e+01
      vertex   -9.000000e+01 1.342929e+02 1.050000e+01
      vertex   -1.167071e+02 1.550000e+02 1.050000e+01
    endloop
  endfacet
  facet normal -3.260689e-16 -5.921189e-16 -1.000000e+00
    outer loop
      vertex   -1.167071e+02 1.550000e+02 1.050000e+01
      vertex   -9.000000e+01 1.342929e+02 1.050000e+01
      vertex   -9.000000e+01 1.282929e+02 1.050000e+01
    endloop
  endfacet
  facet normal -5.000000e-01 -5.000000e-01 7.071068e-01
    outer loop
      vertex   -9.000000e+01 1.517071e+02 1.050000e+01
      vertex   -9.329289e+01 1.550000e+02 1.050000e+01
      vertex   -9.000000e+01 1.439289e+02 5.000000e+00
    endloop
  endfacet
  facet normal -5.000000e-01 -5.000000e-01 7.071068e-01
    outer loop
      vertex   -9.000000e+01 1.439289e+02 5.000000e+00
      vertex   -9.329289e+01 1.550000e+02 1.050000e+01
      vertex   -1.010711e+02 1.550000e+02 5.000000e+00
    endloop
  endfacet
  facet normal -1.049073e-16 -2.960595e-16 -1.000000e+00
    outer loop
      vertex   -9.000000e+01 1.457071e+02 1.050000e+01
      vertex   -9.929289e+01 1.550000e+02 1.050000e+01
      vertex   -9.000000e+01 1.517071e+02 1.050000e+01
    endloop
  endfacet
  facet normal 0.000000e+00 0.000000e+00 -1.000000e+00
    outer loop
      vertex   -9.000000e+01 1.517071e+02 1.050000e+01
      vertex   -9.929289e+01 1.550000e+02 1.050000e+01
      vertex   -9.329289e+01 1.550000e+02 1.050000e+01
    endloop
  endfacet
  facet normal -7.071068e-01 -7.071068e-01 0.000000e+00
    outer loop
      vertex   -9.929289e+01 1.550000e+02 1.050000e+01
      vertex   -9.000000e+01 1.457071e+02 1.050000e+01
      vertex   -9.929289e+01 1.550000e+02 2.000000e+01
    endloop
  endfacet
  facet normal -7.071068e-01 -7.071068e-01 2.115493e-15
    outer loop
      vertex   -9.929289e+01 1.550000e+02 2.000000e+01
      vertex   -9.000000e+01 1.457071e+02 1.050000e+01
      vertex   -9.000000e+01 1.457071e+02 2.000000e+01
    endloop
  endfacet
  facet normal 7.071068e-01 7.071068e-01 0.000000e+00
    outer loop
      vertex   -9.000000e+01 1.342929e+02 1.050000e+01
      vertex   -1.107071e+02 1.550000e+02 1.050000e+01
      vertex   -9.000000e+01 1.342929e+02 2.000000e+01
    endloop
  endfacet
  facet normal 7.071068e-01 7.071068e-01 2.115493e-15
    outer loop
      vertex   -9.000000e+01 1.342929e+02 2.000000e+01
      vertex   -1.107071e+02 1.550000e+02 1.050000e+01
      vertex   -1.107071e+02 1.550000e+02 2.000000e+01
    endloop
  endfacet
  facet normal -1.911522e-16 -1.911522e-16 1.000000e+00
    outer loop
      vertex   -1.107071e+02 1.550000e+02 2.000000e+01
      vertex   -1.200000e+02 1.457071e+02 2.000000e+01
      vertex   -9.000000e+01 1.342929e+02 2.000000e+01
    endloop
  endfacet
  facet normal 0.000000e+00 -3.823044e-16 1.000000e+00
    outer loop
      vertex   -1.107071e+02 1.550000e+02 2.000000e+01
      vertex   -1.200000e+02 1.550000e+02 2.000000e+01
      vertex   -1.200000e+02 1.457071e+02 2.000000e+01
    endloop
  endfacet
  facet normal -8.578489e-17 8.578489e-17 1.000000e+00
    outer loop
      vertex   -1.200000e+02 1.457071e+02 2.000000e+01
      vertex   -9.929289e+01 1.250000e+02 2.000000e+01
      vertex   -9.000000e+01 1.342929e+02 2.000000e+01
    endloop
  endfacet
  facet normal -0.000000e+00 0.000000e+00 1.000000e+00
    outer loop
      vertex   -9.000000e+01 1.342929e+02 2.000000e+01
      vertex   -9.929289e+01 1.250000e+02 2.000000e+01
      vertex   -9.000000e+01 1.250000e+02 2.000000e+01
    endloop
  endfacet
  facet normal 7.071068e-01 7.071068e-01 2.048817e-15
    outer loop
      vertex   -1.107071e+02 1.250000e+02 1.050000e+01
      vertex   -1.200000e+02 1.342929e+02 1.050000e+01
      vertex   -1.107071e+02 1.250000e+02 2.000000e+01
    endloop
  endfacet
  facet normal 7.071068e-01 7.071068e-01 -0.000000e+00
    outer loop
      vertex   -1.107071e+02 1.250000e+02 2.000000e+01
      vertex   -1.200000e+02 1.342929e+02 1.050000e+01
      vertex   -1.200000e+02 1.342929e+02 2.000000e+01
    endloop
  endfacet
  facet normal -0.000000e+00 0.000000e+00 1.000000e+00
    outer loop
      vertex   -9.929289e+01 1.550000e+02 2.000000e+01
      vertex   -9.000000e+01 1.457071e+02 2.000000e+01
      vertex   -9.000000e+01 1.550000e+02 2.000000e+01
    endloop
  endfacet
  facet normal 0.000000e+00 0.000000e+00 1.000000e+00
    outer loop
      vertex   -1.107071e+02 1.250000e+02 2.000000e+01
      vertex   -1.200000e+02 1.342929e+02 2.000000e+01
      vertex   -1.200000e+02 1.250000e+02 2.000000e+01
    endloop
  endfacet
  facet normal -1.000000e+00 0.000000e+00 0.000000e+00
    outer loop
      vertex   -1.200000e+02 1.250000e+02 0.000000e+00
      vertex   -1.200000e+02 1.250000e+02 2.000000e+01
      vertex   -1.200000e+02 1.282929e+02 1.050000e+01
    endloop
  endfacet
  facet normal -1.000000e+00 -0.000000e+00 0.000000e+00
    outer loop
      vertex   -1.200000e+02 1.360711e+02 5.000000e+00
      vertex   -1.200000e+02 1.250000e+02 0.000000e+00
      vertex   -1.200000e+02 1.282929e+02 1.050000e+01
    endloop
  endfacet
  facet normal -1.000000e+00 0.000000e+00 -0.000000e+00
    outer loop
      vertex   -1.200000e+02 1.360711e+02 5.000000e+00
      vertex   -1.200000e+02 1.439289e+02 5.000000e+00
      vertex   -1.200000e+02 1.250000e+02 0.000000e+00
    endloop
  endfacet
  facet normal -1.000000e+00 0.000000e+00 0.000000e+00
    outer loop
      vertex   -1.200000e+02 1.250000e+02 0.000000e+00
      vertex   -1.200000e+02 1.439289e+02 5.000000e+00
      vertex   -1.200000e+02 1.550000e+02 -4.440892e-15
    endloop
  endfacet
  facet normal -1.000000e+00 0.000000e+00 0.000000e+00
    outer loop
      vertex   -1.200000e+02 1.550000e+02 -4.440892e-15
      vertex   -1.200000e+02 1.439289e+02 5.000000e+00
      vertex   -1.200000e+02 1.517071e+02 1.050000e+01
    endloop
  endfacet
  facet normal -1.000000e+00 -0.000000e+00 0.000000e+00
    outer loop
      vertex   -1.200000e+02 1.550000e+02 2.000000e+01
      vertex   -1.200000e+02 1.517071e+02 1.050000e+01
      vertex   -1.200000e+02 1.457071e+02 2.000000e+01
    endloop
  endfacet
  facet normal -1.000000e+00 -0.000000e+00 -0.000000e+00
    outer loop
      vertex   -1.200000e+02 1.550000e+02 2.000000e+01
      vertex   -1.200000e+02 1.550000e+02 -4.440892e-15
      vertex   -1.200000e+02 1.517071e+02 1.050000e+01
    endloop
  endfacet
  facet normal -1.000000e+00 0.000000e+00 0.000000e+00
    outer loop
      vertex   -1.200000e+02 1.342929e+02 1.050000e+01
      vertex   -1.200000e+02 1.282929e+02 1.050000e+01
      vertex   -1.200000e+02 1.342929e+02 2.000000e+01
    endloop
  endfacet
  facet normal -1.000000e+00 -0.000000e+00 0.000000e+00
    outer loop
      vertex   -1.200000e+02 1.342929e+02 2.000000e+01
      vertex   -1.200000e+02 1.282929e+02 1.050000e+01
      vertex   -1.200000e+02 1.250000e+02 2.000000e+01
    endloop
  endfacet
  facet normal -1.000000e+00 0.000000e+00 0.000000e+00
    outer loop
      vertex   -1.200000e+02 1.517071e+02 1.050000e+01
      vertex   -1.200000e+02 1.457071e+02 1.050000e+01
      vertex   -1.200000e+02 1.457071e+02 2.000000e+01
    endloop
  endfacet
  facet normal -0.000000e+00 1.000000e+00 0.000000e+00
    outer loop
      vertex   -1.200000e+02 1.550000e+02 -4.440892e-15
      vertex   -1.200000e+02 1.550000e+02 2.000000e+01
      vertex   -1.167071e+02 1.550000e+02 1.050000e+01
    endloop
  endfacet
  facet normal 0.000000e+00 1.000000e+00 -0.000000e+00
    outer loop
      vertex   -1.089289e+02 1.550000e+02 5.000000e+00
      vertex   -1.200000e+02 1.550000e+02 -4.440892e-15
      vertex   -1.167071e+02 1.550000e+02 1.050000e+01
    endloop
  endfacet
  facet normal -0.000000e+00 1.000000e+00 0.000000e+00
    outer loop
      vertex   -1.089289e+02 1.550000e+02 5.000000e+00
      vertex   -1.010711e+02 1.550000e+02 5.000000e+00
      vertex   -1.200000e+02 1.550000e+02 -4.440892e-15
    endloop
  endfacet
  facet normal -0.000000e+00 1.000000e+00 0.000000e+00
    outer loop
      vertex   -1.200000e+02 1.550000e+02 -4.440892e-15
      vertex   -1.010711e+02 1.550000e+02 5.000000e+00
      vertex   -9.000000e+01 1.550000e+02 -4.440892e-15
    endloop
  endfacet
  facet normal 0.000000e+00 1.000000e+00 -0.000000e+00
    outer loop
      vertex   -9.000000e+01 1.550000e+02 -4.440892e-15
      vertex   -1.010711e+02 1.550000e+02 5.000000e+00
      vertex   -9.329289e+01 1.550000e+02 1.050000e+01
    endloop
  endfacet
  facet normal 0.000000e+00 1.000000e+00 0.000000e+00
    outer loop
      vertex   -9.000000e+01 1.550000e+02 2.000000e+01
      vertex   -9.329289e+01 1.550000e+02 1.050000e+01
      vertex   -9.929289e+01 1.550000e+02 2.000000e+01
    endloop
  endfacet
  facet normal 0.000000e+00 1.000000e+00 0.000000e+00
    outer loop
      vertex   -9.000000e+01 1.550000e+02 2.000000e+01
      vertex   -9.000000e+01 1.550000e+02 -4.440892e-15
      vertex   -9.329289e+01 1.550000e+02 1.050000e+01
    endloop
  endfacet
  facet normal 0.000000e+00 1.000000e+00 -0.000000e+00
    outer loop
      vertex   -1.107071e+02 1.550000e+02 1.050000e+01
      vertex   -1.167071e+02 1.550000e+02 1.050000e+01
      vertex   -1.107071e+02 1.550000e+02 2.000000e+01
    endloop
  endfacet
  facet normal 0.000000e+00 1.000000e+00 0.000000e+00
    outer loop
      vertex   -1.107071e+02 1.550000e+02 2.000000e+01
      vertex   -1.167071e+02 1.550000e+02 1.050000e+01
      vertex   -1.200000e+02 1.550000e+02 2.000000e+01
    endloop
  endfacet
  facet normal 0.000000e+00 1.000000e+00 -0.000000e+00
    outer loop
      vertex   -9.329289e+01 1.550000e+02 1.050000e+01
      vertex   -9.929289e+01 1.550000e+02 1.050000e+01
      vertex   -9.929289e+01 1.550000e+02 2.000000e+01
    endloop
  endfacet
  facet normal -0.000000e+00 -1.000000e+00 0.000000e+00
    outer loop
      vertex   -1.107071e+02 1.250000e+02 1.050000e+01
      vertex   -1.107071e+02 1.250000e+02 2.000000e+01
      vertex   -1.167071e+02 1.250000e+02 1.050000e+01
    endloop
  endfacet
  facet normal 0.000000e+00 -1.000000e+00 0.000000e+00
    outer loop
      vertex   -1.167071e+02 1.250000e+02 1.050000e+01
      vertex   -1.107071e+02 1.250000e+02 2.000000e+01
      vertex   -1.200000e+02 1.250000e+02 2.000000e+01
    endloop
  endfacet
  facet normal 0.000000e+00 -1.000000e+00 0.000000e+00
    outer loop
      vertex   -1.200000e+02 1.250000e+02 0.000000e+00
      vertex   -1.167071e+02 1.250000e+02 1.050000e+01
      vertex   -1.200000e+02 1.250000e+02 2.000000e+01
    endloop
  endfacet
  facet normal 0.000000e+00 -1.000000e+00 0.000000e+00
    outer loop
      vertex   -1.200000e+02 1.250000e+02 0.000000e+00
      vertex   -1.089289e+02 1.250000e+02 5.000000e+00
      vertex   -1.167071e+02 1.250000e+02 1.050000e+01
    endloop
  endfacet
  facet normal 0.000000e+00 -1.000000e+00 0.000000e+00
    outer loop
      vertex   -1.200000e+02 1.250000e+02 0.000000e+00
      vertex   -9.000000e+01 1.250000e+02 0.000000e+00
      vertex   -1.089289e+02 1.250000e+02 5.000000e+00
    endloop
  endfacet
  facet normal 0.000000e+00 -1.000000e+00 0.000000e+00
    outer loop
      vertex   -1.089289e+02 1.250000e+02 5.000000e+00
      vertex   -9.000000e+01 1.250000e+02 0.000000e+00
      vertex   -1.010711e+02 1.250000e+02 5.000000e+00
    endloop
  endfacet
  facet normal 0.000000e+00 -1.000000e+00 0.000000e+00
    outer loop
      vertex   -1.010711e+02 1.250000e+02 5.000000e+00
      vertex   -9.000000e+01 1.250000e+02 0.000000e+00
      vertex   -9.329289e+01 1.250000e+02 1.050000e+01
    endloop
  endfacet
  facet normal 0.000000e+00 -1.000000e+00 0.000000e+00
    outer loop
      vertex   -9.329289e+01 1.250000e+02 1.050000e+01
      vertex   -9.000000e+01 1.250000e+02 0.000000e+00
      vertex   -9.000000e+01 1.250000e+02 2.000000e+01
    endloop
  endfacet
  facet normal 0.000000e+00 -1.000000e+00 0.000000e+00
    outer loop
      vertex   -9.929289e+01 1.250000e+02 2.000000e+01
      vertex   -9.329289e+01 1.250000e+02 1.050000e+01
      vertex   -9.000000e+01 1.250000e+02 2.000000e+01
    endloop
  endfacet
  facet normal 0.000000e+00 -1.000000e+00 0.000000e+00
    outer loop
      vertex   -9.929289e+01 1.250000e+02 2.000000e+01
      vertex   -9.929289e+01 1.250000e+02 1.050000e+01
      vertex   -9.329289e+01 1.250000e+02 1.050000e+01
    endloop
  endfacet
  facet normal 1.000000e+00 0.000000e+00 -0.000000e+00
    outer loop
      vertex   -9.000000e+01 1.342929e+02 1.050000e+01
      vertex   -9.000000e+01 1.342929e+02 2.000000e+01
      vertex   -9.000000e+01 1.282929e+02 1.050000e+01
    endloop
  endfacet
  facet normal 1.000000e+00 0.000000e+00 -0.000000e+00
    outer loop
      vertex   -9.000000e+01 1.282929e+02 1.050000e+01
      vertex   -9.000000e+01 1.342929e+02 2.000000e+01
      vertex   -9.000000e+01 1.250000e+02 2.000000e+01
    endloop
  endfacet
  facet normal 1.000000e+00 0.000000e+00 -0.000000e+00
    outer loop
      vertex   -9.000000e+01 1.250000e+02 0.000000e+00
      vertex   -9.000000e+01 1.282929e+02 1.050000e+01
      vertex   -9.000000e+01 1.250000e+02 2.000000e+01
    endloop
  endfacet
  facet normal 1.000000e+00 0.000000e+00 -0.000000e+00
    outer loop
      vertex   -9.000000e+01 1.250000e+02 0.000000e+00
      vertex   -9.000000e+01 1.360711e+02 5.000000e+00
      vertex   -9.000000e+01 1.282929e+02 1.050000e+01
    endloop
  endfacet
  facet normal 1.000000e+00 -0.000000e+00 -0.000000e+00
    outer loop
      vertex   -9.000000e+01 1.250000e+02 0.000000e+00
      vertex   -9.000000e+01 1.550000e+02 -4.440892e-15
      vertex   -9.000000e+01 1.360711e+02 5.000000e+00
    endloop
  endfacet
  facet normal 1.000000e+00 -0.000000e+00 -0.000000e+00
    outer loop
      vertex   -9.000000e+01 1.360711e+02 5.000000e+00
      vertex   -9.000000e+01 1.550000e+02 -4.440892e-15
      vertex   -9.000000e+01 1.439289e+02 5.000000e+00
    endloop
  endfacet
  facet normal 1.000000e+00 -0.000000e+00 -0.000000e+00
    outer loop
      vertex   -9.000000e+01 1.439289e+02 5.000000e+00
      vertex   -9.000000e+01 1.550000e+02 -4.440892e-15
      vertex   -9.000000e+01 1.517071e+02 1.050000e+01
    endloop
  endfacet
  facet normal 1.000000e+00 -0.000000e+00 0.000000e+00
    outer loop
      vertex   -9.000000e+01 1.517071e+02 1.050000e+01
      vertex   -9.000000e+01 1.550000e+02 -4.440892e-15
      vertex   -9.000000e+01 1.550000e+02 2.000000e+01
    endloop
  endfacet
  facet normal 1.000000e+00 -0.000000e+00 0.000000e+00
    outer loop
      vertex   -9.000000e+01 1.457071e+02 2.000000e+01
      vertex   -9.000000e+01 1.517071e+02 1.050000e+01
      vertex   -9.000000e+01 1.550000e+02 2.000000e+01
    endloop
  endfacet
  facet normal 1.000000e+00 0.000000e+00 0.000000e+00
    outer loop
      vertex   -9.000000e+01 1.457071e+02 2.000000e+01
      vertex   -9.000000e+01 1.457071e+02 1.050000e+01
      vertex   -9.000000e+01 1.517071e+02 1.050000e+01
    endloop
  endfacet
  facet normal 0.000000e+00 -1.480297e-16 -1.000000e+00
    outer loop
      vertex   -1.200000e+02 1.550000e+02 -4.440892e-15
      vertex   -9.000000e+01 1.550000e+02 -4.440892e-15
      vertex   -1.200000e+02 1.250000e+02 0.000000e+00
    endloop
  endfacet
  facet normal 0.000000e+00 -1.480297e-16 -1.000000e+00
    outer loop
      vertex   -1.200000e+02 1.250000e+02 0.000000e+00
      vertex   -9.000000e+01 1.550000e+02 -4.440892e-15
      vertex   -9.000000e+01 1.250000e+02 0.000000e+00
    endloop
  endfacet
  facet normal -5.000000e-01 5.000000e-01 7.071068e-01
    outer loop
      vertex   -7.900000e+01 1.482929e+02 2.050000e+01
      vertex   -7.900000e+01 1.419289e+02 2.500000e+01
      vertex   -7.229289e+01 1.550000e+02 2.050000e+01
    endloop
  endfacet
  facet normal -5.000000e-01 5.000000e-01 7.071068e-01
    outer loop
      vertex   -7.229289e+01 1.550000e+02 2.050000e+01
      vertex   -7.900000e+01 1.419289e+02 2.500000e+01
      vertex   -6.592893e+01 1.550000e+02 2.500000e+01
    endloop
  endfacet
  facet normal -0.000000e+00 0.000000e+00 1.000000e+00
    outer loop
      vertex   -7.900000e+01 1.419289e+02 2.500000e+01
      vertex   -7.900000e+01 1.380711e+02 2.500000e+01
      vertex   -6.592893e+01 1.550000e+02 2.500000e+01
    endloop
  endfacet
  facet normal -0.000000e+00 0.000000e+00 1.000000e+00
    outer loop
      vertex   -6.592893e+01 1.550000e+02 2.500000e+01
      vertex   -7.900000e+01 1.380711e+02 2.500000e+01
      vertex   -6.207107e+01 1.550000e+02 2.500000e+01
    endloop
  endfacet
  facet normal -1.000000e+00 0.000000e+00 0.000000e+00
    outer loop
      vertex   -7.900000e+01 1.482929e+02 2.050000e+01
      vertex   -7.900000e+01 1.442929e+02 2.050000e+01
      vertex   -7.900000e+01 1.419289e+02 2.500000e+01
    endloop
  endfacet
  facet normal -1.000000e+00 -0.000000e+00 -0.000000e+00
    outer loop
      vertex   -7.900000e+01 1.419289e+02 2.500000e+01
      vertex   -7.900000e+01 1.442929e+02 2.050000e+01
      vertex   -7.900000e+01 1.357071e+02 2.050000e+01
    endloop
  endfacet
  facet normal -1.000000e+00 -0.000000e+00 0.000000e+00
    outer loop
      vertex   -7.900000e+01 1.380711e+02 2.500000e+01
      vertex   -7.900000e+01 1.357071e+02 2.050000e+01
      vertex   -7.900000e+01 1.317071e+02 2.050000e+01
    endloop
  endfacet
  facet normal -1.000000e+00 0.000000e+00 -0.000000e+00
    outer loop
      vertex   -7.900000e+01 1.380711e+02 2.500000e+01
      vertex   -7.900000e+01 1.419289e+02 2.500000e+01
      vertex   -7.900000e+01 1.357071e+02 2.050000e+01
    endloop
  endfacet
  facet normal -1.000000e+00 0.000000e+00 -0.000000e+00
    outer loop
      vertex   -7.900000e+01 1.357071e+02 2.050000e+01
      vertex   -7.900000e+01 1.442929e+02 2.050000e+01
      vertex   -7.900000e+01 1.357071e+02 1.000000e+01
    endloop
  endfacet
  facet normal -1.000000e+00 0.000000e+00 0.000000e+00
    outer loop
      vertex   -7.900000e+01 1.357071e+02 1.000000e+01
      vertex   -7.900000e+01 1.442929e+02 2.050000e+01
      vertex   -7.900000e+01 1.442929e+02 1.000000e+01
    endloop
  endfacet
  facet normal -1.000000e+00 0.000000e+00 0.000000e+00
    outer loop
      vertex   -7.900000e+01 1.250000e+02 0.000000e+00
      vertex   -7.900000e+01 1.442929e+02 1.000000e+01
      vertex   -7.900000e+01 1.550000e+02 0.000000e+00
    endloop
  endfacet
  facet normal -1.000000e+00 0.000000e+00 0.000000e+00
    outer loop
      vertex   -7.900000e+01 1.250000e+02 0.000000e+00
      vertex   -7.900000e+01 1.357071e+02 1.000000e+01
      vertex   -7.900000e+01 1.442929e+02 1.000000e+01
    endloop
  endfacet
  facet normal -1.000000e+00 0.000000e+00 0.000000e+00
    outer loop
      vertex   -7.900000e+01 1.250000e+02 0.000000e+00
      vertex   -7.900000e+01 1.250000e+02 1.000000e+01
      vertex   -7.900000e+01 1.357071e+02 1.000000e+01
    endloop
  endfacet
  facet normal -1.000000e+00 0.000000e+00 0.000000e+00
    outer loop
      vertex   -7.900000e+01 1.442929e+02 1.000000e+01
      vertex   -7.900000e+01 1.550000e+02 1.000000e+01
      vertex   -7.900000e+01 1.550000e+02 0.000000e+00
    endloop
  endfacet
  facet normal 0.000000e+00 -0.000000e+00 -1.000000e+00
    outer loop
      vertex   -7.229289e+01 1.550000e+02 2.050000e+01
      vertex   -6.829289e+01 1.550000e+02 2.050000e+01
      vertex   -7.900000e+01 1.482929e+02 2.050000e+01
    endloop
  endfacet
  facet normal 0.000000e+00 -0.000000e+00 -1.000000e+00
    outer loop
      vertex   -7.900000e+01 1.482929e+02 2.050000e+01
      vertex   -6.829289e+01 1.550000e+02 2.050000e+01
      vertex   -7.900000e+01 1.442929e+02 2.050000e+01
    endloop
  endfacet
  facet normal 5.000000e-01 -5.000000e-01 7.071068e-01
    outer loop
      vertex   -5.570711e+01 1.550000e+02 2.050000e+01
      vertex   -6.207107e+01 1.550000e+02 2.500000e+01
      vertex   -7.900000e+01 1.317071e+02 2.050000e+01
    endloop
  endfacet
  facet normal 5.000000e-01 -5.000000e-01 7.071068e-01
    outer loop
      vertex   -7.900000e+01 1.317071e+02 2.050000e+01
      vertex   -6.207107e+01 1.550000e+02 2.500000e+01
      vertex   -7.900000e+01 1.380711e+02 2.500000e+01
    endloop
  endfacet
  facet normal 0.000000e+00 -0.000000e+00 -1.000000e+00
    outer loop
      vertex   -5.970711e+01 1.550000e+02 2.050000e+01
      vertex   -5.570711e+01 1.550000e+02 2.050000e+01
      vertex   -7.900000e+01 1.357071e+02 2.050000e+01
    endloop
  endfacet
  facet normal 0.000000e+00 -0.000000e+00 -1.000000e+00
    outer loop
      vertex   -7.900000e+01 1.357071e+02 2.050000e+01
      vertex   -5.570711e+01 1.550000e+02 2.050000e+01
      vertex   -7.900000e+01 1.317071e+02 2.050000e+01
    endloop
  endfacet
  facet normal 7.071068e-01 -7.071068e-01 0.000000e+00
    outer loop
      vertex   -5.970711e+01 1.550000e+02 2.050000e+01
      vertex   -7.900000e+01 1.357071e+02 2.050000e+01
      vertex   -5.970711e+01 1.550000e+02 1.000000e+01
    endloop
  endfacet
  facet normal 7.071068e-01 -7.071068e-01 -1.914017e-15
    outer loop
      vertex   -5.970711e+01 1.550000e+02 1.000000e+01
      vertex   -7.900000e+01 1.357071e+02 2.050000e+01
      vertex   -7.900000e+01 1.357071e+02 1.000000e+01
    endloop
  endfacet
  facet normal -5.000000e-01 5.000000e-01 7.071068e-01
    outer loop
      vertex   -7.229289e+01 1.250000e+02 2.050000e+01
      vertex   -6.592893e+01 1.250000e+02 2.500000e+01
      vertex   -4.900000e+01 1.482929e+02 2.050000e+01
    endloop
  endfacet
  facet normal -5.000000e-01 5.000000e-01 7.071068e-01
    outer loop
      vertex   -4.900000e+01 1.482929e+02 2.050000e+01
      vertex   -6.592893e+01 1.250000e+02 2.500000e+01
      vertex   -4.900000e+01 1.419289e+02 2.500000e+01
    endloop
  endfacet
  facet normal -1.083821e-15 2.762705e-15 1.000000e+00
    outer loop
      vertex   -4.900000e+01 1.419289e+02 2.500000e+01
      vertex   -6.592893e+01 1.250000e+02 2.500000e+01
      vertex   -4.900000e+01 1.380711e+02 2.500000e+01
    endloop
  endfacet
  facet normal -0.000000e+00 1.358999e-15 1.000000e+00
    outer loop
      vertex   -4.900000e+01 1.380711e+02 2.500000e+01
      vertex   -6.592893e+01 1.250000e+02 2.500000e+01
      vertex   -6.207107e+01 1.250000e+02 2.500000e+01
    endloop
  endfacet
  facet normal 0.000000e+00 -1.000000e+00 0.000000e+00
    outer loop
      vertex   -7.229289e+01 1.250000e+02 2.050000e+01
      vertex   -6.829289e+01 1.250000e+02 2.050000e+01
      vertex   -6.592893e+01 1.250000e+02 2.500000e+01
    endloop
  endfacet
  facet normal 0.000000e+00 -1.000000e+00 -0.000000e+00
    outer loop
      vertex   -6.592893e+01 1.250000e+02 2.500000e+01
      vertex   -6.829289e+01 1.250000e+02 2.050000e+01
      vertex   -5.970711e+01 1.250000e+02 2.050000e+01
    endloop
  endfacet
  facet normal 0.000000e+00 -1.000000e+00 0.000000e+00
    outer loop
      vertex   -6.207107e+01 1.250000e+02 2.500000e+01
      vertex   -5.970711e+01 1.250000e+02 2.050000e+01
      vertex   -5.570711e+01 1.250000e+02 2.050000e+01
    endloop
  endfacet
  facet normal -0.000000e+00 -1.000000e+00 -0.000000e+00
    outer loop
      vertex   -6.207107e+01 1.250000e+02 2.500000e+01
      vertex   -6.592893e+01 1.250000e+02 2.500000e+01
      vertex   -5.970711e+01 1.250000e+02 2.050000e+01
    endloop
  endfacet
  facet normal -0.000000e+00 -1.000000e+00 -0.000000e+00
    outer loop
      vertex   -5.970711e+01 1.250000e+02 2.050000e+01
      vertex   -6.829289e+01 1.250000e+02 2.050000e+01
      vertex   -5.970711e+01 1.250000e+02 1.000000e+01
    endloop
  endfacet
  facet normal -0.000000e+00 -1.000000e+00 -0.000000e+00
    outer loop
      vertex   -5.970711e+01 1.250000e+02 1.000000e+01
      vertex   -6.829289e+01 1.250000e+02 2.050000e+01
      vertex   -6.829289e+01 1.250000e+02 1.000000e+01
    endloop
  endfacet
  facet normal -0.000000e+00 -1.000000e+00 0.000000e+00
    outer loop
      vertex   -4.900000e+01 1.250000e+02 0.000000e+00
      vertex   -6.829289e+01 1.250000e+02 1.000000e+01
      vertex   -7.900000e+01 1.250000e+02 0.000000e+00
    endloop
  endfacet
  facet normal 0.000000e+00 -1.000000e+00 0.000000e+00
    outer loop
      vertex   -4.900000e+01 1.250000e+02 0.000000e+00
      vertex   -5.970711e+01 1.250000e+02 1.000000e+01
      vertex   -6.829289e+01 1.250000e+02 1.000000e+01
    endloop
  endfacet
  facet normal 0.000000e+00 -1.000000e+00 0.000000e+00
    outer loop
      vertex   -4.900000e+01 1.250000e+02 0.000000e+00
      vertex   -4.900000e+01 1.250000e+02 1.000000e+01
      vertex   -5.970711e+01 1.250000e+02 1.000000e+01
    endloop
  endfacet
  facet normal -0.000000e+00 -1.000000e+00 -0.000000e+00
    outer loop
      vertex   -6.829289e+01 1.250000e+02 1.000000e+01
      vertex   -7.900000e+01 1.250000e+02 1.000000e+01
      vertex   -7.900000e+01 1.250000e+02 0.000000e+00
    endloop
  endfacet
  facet normal 0.000000e+00 0.000000e+00 -1.000000e+00
    outer loop
      vertex   -6.829289e+01 1.250000e+02 2.050000e+01
      vertex   -7.229289e+01 1.250000e+02 2.050000e+01
      vertex   -4.900000e+01 1.442929e+02 2.050000e+01
    endloop
  endfacet
  facet normal -0.000000e+00 0.000000e+00 -1.000000e+00
    outer loop
      vertex   -4.900000e+01 1.442929e+02 2.050000e+01
      vertex   -7.229289e+01 1.250000e+02 2.050000e+01
      vertex   -4.900000e+01 1.482929e+02 2.050000e+01
    endloop
  endfacet
  facet normal 5.000000e-01 -5.000000e-01 7.071068e-01
    outer loop
      vertex   -4.900000e+01 1.317071e+02 2.050000e+01
      vertex   -4.900000e+01 1.380711e+02 2.500000e+01
      vertex   -5.570711e+01 1.250000e+02 2.050000e+01
    endloop
  endfacet
  facet normal 5.000000e-01 -5.000000e-01 7.071068e-01
    outer loop
      vertex   -5.570711e+01 1.250000e+02 2.050000e+01
      vertex   -4.900000e+01 1.380711e+02 2.500000e+01
      vertex   -6.207107e+01 1.250000e+02 2.500000e+01
    endloop
  endfacet
  facet normal 0.000000e+00 -0.000000e+00 -1.000000e+00
    outer loop
      vertex   -4.900000e+01 1.357071e+02 2.050000e+01
      vertex   -4.900000e+01 1.317071e+02 2.050000e+01
      vertex   -5.970711e+01 1.250000e+02 2.050000e+01
    endloop
  endfacet
  facet normal 0.000000e+00 -0.000000e+00 -1.000000e+00
    outer loop
      vertex   -5.970711e+01 1.250000e+02 2.050000e+01
      vertex   -4.900000e+01 1.317071e+02 2.050000e+01
      vertex   -5.570711e+01 1.250000e+02 2.050000e+01
    endloop
  endfacet
  facet normal 7.071068e-01 -7.071068e-01 -1.876995e-15
    outer loop
      vertex   -4.900000e+01 1.357071e+02 2.050000e+01
      vertex   -5.970711e+01 1.250000e+02 2.050000e+01
      vertex   -4.900000e+01 1.357071e+02 1.000000e+01
    endloop
  endfacet
  facet normal 7.071068e-01 -7.071068e-01 0.000000e+00
    outer loop
      vertex   -4.900000e+01 1.357071e+02 1.000000e+01
      vertex   -5.970711e+01 1.250000e+02 2.050000e+01
      vertex   -5.970711e+01 1.250000e+02 1.000000e+01
    endloop
  endfacet
  facet normal -7.071068e-01 7.071068e-01 0.000000e+00
    outer loop
      vertex   -6.829289e+01 1.250000e+02 2.050000e+01
      vertex   -4.900000e+01 1.442929e+02 2.050000e+01
      vertex   -6.829289e+01 1.250000e+02 1.000000e+01
    endloop
  endfacet
  facet normal -7.071068e-01 7.071068e-01 0.000000e+00
    outer loop
      vertex   -6.829289e+01 1.250000e+02 1.000000e+01
      vertex   -4.900000e+01 1.442929e+02 2.050000e+01
      vertex   -4.900000e+01 1.442929e+02 1.000000e+01
    endloop
  endfacet
  facet normal 0.000000e+00 -0.000000e+00 1.000000e+00
    outer loop
      vertex   -7.900000e+01 1.250000e+02 1.000000e+01
      vertex   -6.829289e+01 1.250000e+02 1.000000e+01
      vertex   -7.900000e+01 1.357071e+02 1.000000e+01
    endloop
  endfacet
  facet normal -0.000000e+00 0.000000e+00 1.000000e+00
    outer loop
      vertex   -7.900000e+01 1.357071e+02 1.000000e+01
      vertex   -6.829289e+01 1.250000e+02 1.000000e+01
      vertex   -4.900000e+01 1.442929e+02 1.000000e+01
    endloop
  endfacet
  facet normal -0.000000e+00 0.000000e+00 1.000000e+00
    outer loop
      vertex   -5.970711e+01 1.550000e+02 1.000000e+01
      vertex   -4.900000e+01 1.442929e+02 1.000000e+01
      vertex   -4.900000e+01 1.550000e+02 1.000000e+01
    endloop
  endfacet
  facet normal -0.000000e+00 0.000000e+00 1.000000e+00
    outer loop
      vertex   -5.970711e+01 1.550000e+02 1.000000e+01
      vertex   -7.900000e+01 1.357071e+02 1.000000e+01
      vertex   -4.900000e+01 1.442929e+02 1.000000e+01
    endloop
  endfacet
  facet normal -7.071068e-01 7.071068e-01 0.000000e+00
    outer loop
      vertex   -7.900000e+01 1.442929e+02 2.050000e+01
      vertex   -6.829289e+01 1.550000e+02 2.050000e+01
      vertex   -7.900000e+01 1.442929e+02 1.000000e+01
    endloop
  endfacet
  facet normal -7.071068e-01 7.071068e-01 0.000000e+00
    outer loop
      vertex   -7.900000e+01 1.442929e+02 1.000000e+01
      vertex   -6.829289e+01 1.550000e+02 2.050000e+01
      vertex   -6.829289e+01 1.550000e+02 1.000000e+01
    endloop
  endfacet
  facet normal -0.000000e+00 0.000000e+00 1.000000e+00
    outer loop
      vertex   -4.900000e+01 1.357071e+02 1.000000e+01
      vertex   -5.970711e+01 1.250000e+02 1.000000e+01
      vertex   -4.900000e+01 1.250000e+02 1.000000e+01
    endloop
  endfacet
  facet normal -0.000000e+00 1.000000e+00 0.000000e+00
    outer loop
      vertex   -7.229289e+01 1.550000e+02 2.050000e+01
      vertex   -6.592893e+01 1.550000e+02 2.500000e+01
      vertex   -6.829289e+01 1.550000e+02 2.050000e+01
    endloop
  endfacet
  facet normal 0.000000e+00 1.000000e+00 0.000000e+00
    outer loop
      vertex   -6.829289e+01 1.550000e+02 2.050000e+01
      vertex   -6.592893e+01 1.550000e+02 2.500000e+01
      vertex   -6.207107e+01 1.550000e+02 2.500000e+01
    endloop
  endfacet
  facet normal -0.000000e+00 1.000000e+00 -0.000000e+00
    outer loop
      vertex   -5.970711e+01 1.550000e+02 2.050000e+01
      vertex   -6.207107e+01 1.550000e+02 2.500000e+01
      vertex   -5.570711e+01 1.550000e+02 2.050000e+01
    endloop
  endfacet
  facet normal 0.000000e+00 1.000000e+00 -0.000000e+00
    outer loop
      vertex   -5.970711e+01 1.550000e+02 2.050000e+01
      vertex   -6.829289e+01 1.550000e+02 2.050000e+01
      vertex   -6.207107e+01 1.550000e+02 2.500000e+01
    endloop
  endfacet
  facet normal 0.000000e+00 1.000000e+00 -0.000000e+00
    outer loop
      vertex   -5.970711e+01 1.550000e+02 2.050000e+01
      vertex   -6.829289e+01 1.550000e+02 1.000000e+01
      vertex   -6.829289e+01 1.550000e+02 2.050000e+01
    endloop
  endfacet
  facet normal 0.000000e+00 1.000000e+00 0.000000e+00
    outer loop
      vertex   -5.970711e+01 1.550000e+02 2.050000e+01
      vertex   -5.970711e+01 1.550000e+02 1.000000e+01
      vertex   -6.829289e+01 1.550000e+02 1.000000e+01
    endloop
  endfacet
  facet normal -0.000000e+00 1.000000e+00 0.000000e+00
    outer loop
      vertex   -6.829289e+01 1.550000e+02 1.000000e+01
      vertex   -5.970711e+01 1.550000e+02 1.000000e+01
      vertex   -7.900000e+01 1.550000e+02 0.000000e+00
    endloop
  endfacet
  facet normal -0.000000e+00 1.000000e+00 0.000000e+00
    outer loop
      vertex   -7.900000e+01 1.550000e+02 1.000000e+01
      vertex   -6.829289e+01 1.550000e+02 1.000000e+01
      vertex   -7.900000e+01 1.550000e+02 0.000000e+00
    endloop
  endfacet
  facet normal 0.000000e+00 1.000000e+00 0.000000e+00
    outer loop
      vertex   -4.900000e+01 1.550000e+02 1.000000e+01
      vertex   -4.900000e+01 1.550000e+02 0.000000e+00
      vertex   -5.970711e+01 1.550000e+02 1.000000e+01
    endloop
  endfacet
  facet normal 0.000000e+00 1.000000e+00 0.000000e+00
    outer loop
      vertex   -5.970711e+01 1.550000e+02 1.000000e+01
      vertex   -4.900000e+01 1.550000e+02 0.000000e+00
      vertex   -7.900000e+01 1.550000e+02 0.000000e+00
    endloop
  endfacet
  facet normal 1.000000e+00 0.000000e+00 0.000000e+00
    outer loop
      vertex   -4.900000e+01 1.482929e+02 2.050000e+01
      vertex   -4.900000e+01 1.419289e+02 2.500000e+01
      vertex   -4.900000e+01 1.442929e+02 2.050000e+01
    endloop
  endfacet
  facet normal 1.000000e+00 0.000000e+00 0.000000e+00
    outer loop
      vertex   -4.900000e+01 1.442929e+02 2.050000e+01
      vertex   -4.900000e+01 1.419289e+02 2.500000e+01
      vertex   -4.900000e+01 1.380711e+02 2.500000e+01
    endloop
  endfacet
  facet normal 1.000000e+00 0.000000e+00 -0.000000e+00
    outer loop
      vertex   -4.900000e+01 1.357071e+02 2.050000e+01
      vertex   -4.900000e+01 1.380711e+02 2.500000e+01
      vertex   -4.900000e+01 1.317071e+02 2.050000e+01
    endloop
  endfacet
  facet normal 1.000000e+00 0.000000e+00 -0.000000e+00
    outer loop
      vertex   -4.900000e+01 1.357071e+02 2.050000e+01
      vertex   -4.900000e+01 1.442929e+02 2.050000e+01
      vertex   -4.900000e+01 1.380711e+02 2.500000e+01
    endloop
  endfacet
  facet normal 1.000000e+00 -0.000000e+00 0.000000e+00
    outer loop
      vertex   -4.900000e+01 1.357071e+02 2.050000e+01
      vertex   -4.900000e+01 1.442929e+02 1.000000e+01
      vertex   -4.900000e+01 1.442929e+02 2.050000e+01
    endloop
  endfacet
  facet normal 1.000000e+00 -0.000000e+00 0.000000e+00
    outer loop
      vertex   -4.900000e+01 1.357071e+02 2.050000e+01
      vertex   -4.900000e+01 1.357071e+02 1.000000e+01
      vertex   -4.900000e+01 1.442929e+02 1.000000e+01
    endloop
  endfacet
  facet normal 1.000000e+00 0.000000e+00 0.000000e+00
    outer loop
      vertex   -4.900000e+01 1.442929e+02 1.000000e+01
      vertex   -4.900000e+01 1.357071e+02 1.000000e+01
      vertex   -4.900000e+01 1.550000e+02 0.000000e+00
    endloop
  endfacet
  facet normal 1.000000e+00 0.000000e+00 0.000000e+00
    outer loop
      vertex   -4.900000e+01 1.550000e+02 1.000000e+01
      vertex   -4.900000e+01 1.442929e+02 1.000000e+01
      vertex   -4.900000e+01 1.550000e+02 0.000000e+00
    endloop
  endfacet
  facet normal 1.000000e+00 -0.000000e+00 0.000000e+00
    outer loop
      vertex   -4.900000e+01 1.250000e+02 1.000000e+01
      vertex   -4.900000e+01 1.250000e+02 0.000000e+00
      vertex   -4.900000e+01 1.357071e+02 1.000000e+01
    endloop
  endfacet
  facet normal 1.000000e+00 -0.000000e+00 0.000000e+00
    outer loop
      vertex   -4.900000e+01 1.357071e+02 1.000000e+01
      vertex   -4.900000e+01 1.250000e+02 0.000000e+00
      vertex   -4.900000e+01 1.550000e+02 0.000000e+00
    endloop
  endfacet
  facet normal 0.000000e+00 -0.000000e+00 1.000000e+00
    outer loop
      vertex   -7.900000e+01 1.442929e+02 1.000000e+01
      vertex   -6.829289e+01 1.550000e+02 1.000000e+01
      vertex   -7.900000e+01 1.550000e+02 1.000000e+01
    endloop
  endfacet
  facet normal 0.000000e+00 0.000000e+00 -1.000000e+00
    outer loop
      vertex   -4.900000e+01 1.250000e+02 0.000000e+00
      vertex   -7.900000e+01 1.250000e+02 0.000000e+00
      vertex   -4.900000e+01 1.550000e+02 0.000000e+00
    endloop
  endfacet
  facet normal -0.000000e+00 0.000000e+00 -1.000000e+00
    outer loop
      vertex   -4.900000e+01 1.550000e+02 0.000000e+00
      vertex   -7.900000e+01 1.250000e+02 0.000000e+00
      vertex   -7.900000e+01 1.550000e+02 0.000000e+00
    endloop
  endfacet
endsolid
