solid ascii
  facet normal 1.000000e+00 0.000000e+00 0.000000e+00
    outer loop
      vertex   -9.002090e+01 1.730742e+02 1.450000e+01
      vertex   -9.002090e+01 1.672240e+02 1.450000e+01
      vertex   -9.002090e+01 1.730742e+02 0.000000e+00
    endloop
  endfacet
  facet normal 1.000000e+00 0.000000e+00 0.000000e+00
    outer loop
      vertex   -9.002090e+01 1.730742e+02 0.000000e+00
      vertex   -9.002090e+01 1.672240e+02 1.450000e+01
      vertex   -9.002090e+01 1.672240e+02 0.000000e+00
    endloop
  endfacet
  facet normal -0.000000e+00 1.000000e+00 0.000000e+00
    outer loop
      vertex   -9.002090e+01 1.672240e+02 1.450000e+01
      vertex   -7.968530e+01 1.672240e+02 1.450000e+01
      vertex   -9.002090e+01 1.672240e+02 0.000000e+00
    endloop
  endfacet
  facet normal -0.000000e+00 1.000000e+00 0.000000e+00
    outer loop
      vertex   -9.002090e+01 1.672240e+02 0.000000e+00
      vertex   -7.968530e+01 1.672240e+02 1.450000e+01
      vertex   -7.968530e+01 1.672240e+02 0.000000e+00
    endloop
  endfacet
  facet normal -1.000000e+00 0.000000e+00 -0.000000e+00
    outer loop
      vertex   -7.968530e+01 1.672240e+02 1.450000e+01
      vertex   -7.968530e+01 1.730742e+02 1.450000e+01
      vertex   -7.968530e+01 1.672240e+02 0.000000e+00
    endloop
  endfacet
  facet normal -1.000000e+00 0.000000e+00 0.000000e+00
    outer loop
      vertex   -7.968530e+01 1.672240e+02 0.000000e+00
      vertex   -7.968530e+01 1.730742e+02 1.450000e+01
      vertex   -7.968530e+01 1.730742e+02 0.000000e+00
    endloop
  endfacet
  facet normal -0.000000e+00 -1.000000e+00 -0.000000e+00
    outer loop
      vertex   -7.968530e+01 1.730742e+02 1.450000e+01
      vertex   -9.002090e+01 1.730742e+02 1.450000e+01
      vertex   -7.968530e+01 1.730742e+02 0.000000e+00
    endloop
  endfacet
  facet normal -0.000000e+00 -1.000000e+00 -0.000000e+00
    outer loop
      vertex   -7.968530e+01 1.730742e+02 0.000000e+00
      vertex   -9.002090e+01 1.730742e+02 1.450000e+01
      vertex   -9.002090e+01 1.730742e+02 0.000000e+00
    endloop
  endfacet
  facet normal -0.000000e+00 1.000000e+00 0.000000e+00
    outer loop
      vertex   -9.979720e+01 1.547060e+02 3.000000e+01
      vertex   -9.429720e+01 1.547060e+02 3.000000e+01
      vertex   -9.979720e+01 1.547060e+02 0.000000e+00
    endloop
  endfacet
  facet normal -0.000000e+00 1.000000e+00 0.000000e+00
    outer loop
      vertex   -9.979720e+01 1.547060e+02 0.000000e+00
      vertex   -9.429720e+01 1.547060e+02 3.000000e+01
      vertex   -9.429720e+01 1.547060e+02 0.000000e+00
    endloop
  endfacet
  facet normal -1.000000e+00 -0.000000e+00 -0.000000e+00
    outer loop
      vertex   -9.429720e+01 1.597060e+02 3.000000e+01
      vertex   -9.429720e+01 1.597060e+02 1.450000e+01
      vertex   -9.429720e+01 1.547060e+02 3.000000e+01
    endloop
  endfacet
  facet normal -1.000000e+00 0.000000e+00 -0.000000e+00
    outer loop
      vertex   -9.429720e+01 1.547060e+02 3.000000e+01
      vertex   -9.429720e+01 1.597060e+02 1.450000e+01
      vertex   -9.429720e+01 1.547060e+02 0.000000e+00
    endloop
  endfacet
  facet normal -1.000000e+00 -6.767074e-16 2.333473e-16
    outer loop
      vertex   -9.429720e+01 1.547060e+02 0.000000e+00
      vertex   -9.429720e+01 1.597060e+02 1.450000e+01
      vertex   -9.429720e+01 1.807060e+02 1.450000e+01
    endloop
  endfacet
  facet normal -1.000000e+00 0.000000e+00 0.000000e+00
    outer loop
      vertex   -9.429720e+01 1.857060e+02 0.000000e+00
      vertex   -9.429720e+01 1.807060e+02 1.450000e+01
      vertex   -9.429720e+01 1.857060e+02 3.000000e+01
    endloop
  endfacet
  facet normal -1.000000e+00 -4.584147e-16 -1.580740e-16
    outer loop
      vertex   -9.429720e+01 1.857060e+02 0.000000e+00
      vertex   -9.429720e+01 1.547060e+02 0.000000e+00
      vertex   -9.429720e+01 1.807060e+02 1.450000e+01
    endloop
  endfacet
  facet normal -1.000000e+00 0.000000e+00 0.000000e+00
    outer loop
      vertex   -9.429720e+01 1.807060e+02 1.450000e+01
      vertex   -9.429720e+01 1.807060e+02 3.000000e+01
      vertex   -9.429720e+01 1.857060e+02 3.000000e+01
    endloop
  endfacet
  facet normal -0.000000e+00 -1.000000e+00 -0.000000e+00
    outer loop
      vertex   -9.429720e+01 1.857060e+02 3.000000e+01
      vertex   -9.979720e+01 1.857060e+02 3.000000e+01
      vertex   -9.429720e+01 1.857060e+02 0.000000e+00
    endloop
  endfacet
  facet normal -0.000000e+00 -1.000000e+00 -0.000000e+00
    outer loop
      vertex   -9.429720e+01 1.857060e+02 0.000000e+00
      vertex   -9.979720e+01 1.857060e+02 3.000000e+01
      vertex   -9.979720e+01 1.857060e+02 0.000000e+00
    endloop
  endfacet
  facet normal -0.000000e+00 0.000000e+00 -1.000000e+00
    outer loop
      vertex   -9.002090e+01 1.672240e+02 0.000000e+00
      vertex   -9.429720e+01 1.547060e+02 0.000000e+00
      vertex   -9.002090e+01 1.730742e+02 0.000000e+00
    endloop
  endfacet
  facet normal 0.000000e+00 -0.000000e+00 -1.000000e+00
    outer loop
      vertex   -9.002090e+01 1.672240e+02 0.000000e+00
      vertex   -7.968530e+01 1.672240e+02 0.000000e+00
      vertex   -9.429720e+01 1.547060e+02 0.000000e+00
    endloop
  endfacet
  facet normal 0.000000e+00 0.000000e+00 -1.000000e+00
    outer loop
      vertex   -9.429720e+01 1.547060e+02 0.000000e+00
      vertex   -7.968530e+01 1.672240e+02 0.000000e+00
      vertex   -7.529720e+01 1.547060e+02 0.000000e+00
    endloop
  endfacet
  facet normal 0.000000e+00 0.000000e+00 -1.000000e+00
    outer loop
      vertex   -9.979720e+01 1.002060e+02 0.000000e+00
      vertex   -7.529720e+01 1.547060e+02 0.000000e+00
      vertex   -6.979720e+01 1.002060e+02 0.000000e+00
    endloop
  endfacet
  facet normal 0.000000e+00 0.000000e+00 -1.000000e+00
    outer loop
      vertex   -9.979720e+01 1.002060e+02 0.000000e+00
      vertex   -9.429720e+01 1.547060e+02 0.000000e+00
      vertex   -7.529720e+01 1.547060e+02 0.000000e+00
    endloop
  endfacet
  facet normal 0.000000e+00 0.000000e+00 -1.000000e+00
    outer loop
      vertex   -9.979720e+01 1.002060e+02 0.000000e+00
      vertex   -9.979720e+01 1.547060e+02 0.000000e+00
      vertex   -9.429720e+01 1.547060e+02 0.000000e+00
    endloop
  endfacet
  facet normal 0.000000e+00 0.000000e+00 -1.000000e+00
    outer loop
      vertex   -7.968530e+01 1.672240e+02 0.000000e+00
      vertex   -7.968530e+01 1.730742e+02 0.000000e+00
      vertex   -7.529720e+01 1.547060e+02 0.000000e+00
    endloop
  endfacet
  facet normal 0.000000e+00 0.000000e+00 -1.000000e+00
    outer loop
      vertex   -7.529720e+01 1.547060e+02 0.000000e+00
      vertex   -7.968530e+01 1.730742e+02 0.000000e+00
      vertex   -7.529720e+01 1.857060e+02 0.000000e+00
    endloop
  endfacet
  facet normal -0.000000e+00 0.000000e+00 -1.000000e+00
    outer loop
      vertex   -7.529720e+01 1.857060e+02 0.000000e+00
      vertex   -7.968530e+01 1.730742e+02 0.000000e+00
      vertex   -9.429720e+01 1.857060e+02 0.000000e+00
    endloop
  endfacet
  facet normal -0.000000e+00 0.000000e+00 -1.000000e+00
    outer loop
      vertex   -6.979720e+01 1.902060e+02 0.000000e+00
      vertex   -9.429720e+01 1.857060e+02 0.000000e+00
      vertex   -9.979720e+01 1.902060e+02 0.000000e+00
    endloop
  endfacet
  facet normal -0.000000e+00 0.000000e+00 -1.000000e+00
    outer loop
      vertex   -6.979720e+01 1.902060e+02 0.000000e+00
      vertex   -7.529720e+01 1.857060e+02 0.000000e+00
      vertex   -9.429720e+01 1.857060e+02 0.000000e+00
    endloop
  endfacet
  facet normal -0.000000e+00 -0.000000e+00 -1.000000e+00
    outer loop
      vertex   -6.979720e+01 1.902060e+02 0.000000e+00
      vertex   -6.979720e+01 1.857060e+02 0.000000e+00
      vertex   -7.529720e+01 1.857060e+02 0.000000e+00
    endloop
  endfacet
  facet normal 0.000000e+00 0.000000e+00 -1.000000e+00
    outer loop
      vertex   -7.968530e+01 1.730742e+02 0.000000e+00
      vertex   -9.002090e+01 1.730742e+02 0.000000e+00
      vertex   -9.429720e+01 1.857060e+02 0.000000e+00
    endloop
  endfacet
  facet normal 0.000000e+00 -0.000000e+00 -1.000000e+00
    outer loop
      vertex   -9.429720e+01 1.857060e+02 0.000000e+00
      vertex   -9.002090e+01 1.730742e+02 0.000000e+00
      vertex   -9.429720e+01 1.547060e+02 0.000000e+00
    endloop
  endfacet
  facet normal 0.000000e+00 0.000000e+00 -1.000000e+00
    outer loop
      vertex   -9.429720e+01 1.857060e+02 0.000000e+00
      vertex   -9.979720e+01 1.857060e+02 0.000000e+00
      vertex   -9.979720e+01 1.902060e+02 0.000000e+00
    endloop
  endfacet
  facet normal 0.000000e+00 -0.000000e+00 -1.000000e+00
    outer loop
      vertex   -7.529720e+01 1.547060e+02 0.000000e+00
      vertex   -6.979720e+01 1.547060e+02 0.000000e+00
      vertex   -6.979720e+01 1.002060e+02 0.000000e+00
    endloop
  endfacet
  facet normal -1.000000e+00 0.000000e+00 -0.000000e+00
    outer loop
      vertex   -9.979720e+01 1.857060e+02 3.000000e+01
      vertex   -9.979720e+01 1.902060e+02 3.000000e+01
      vertex   -9.979720e+01 1.857060e+02 0.000000e+00
    endloop
  endfacet
  facet normal -1.000000e+00 0.000000e+00 0.000000e+00
    outer loop
      vertex   -9.979720e+01 1.857060e+02 0.000000e+00
      vertex   -9.979720e+01 1.902060e+02 3.000000e+01
      vertex   -9.979720e+01 1.902060e+02 0.000000e+00
    endloop
  endfacet
  facet normal 0.000000e+00 -0.000000e+00 1.000000e+00
    outer loop
      vertex   -9.979720e+01 1.857060e+02 3.000000e+01
      vertex   -9.429720e+01 1.857060e+02 3.000000e+01
      vertex   -9.979720e+01 1.902060e+02 3.000000e+01
    endloop
  endfacet
  facet normal -0.000000e+00 0.000000e+00 1.000000e+00
    outer loop
      vertex   -9.979720e+01 1.902060e+02 3.000000e+01
      vertex   -9.429720e+01 1.857060e+02 3.000000e+01
      vertex   -7.529720e+01 1.857060e+02 3.000000e+01
    endloop
  endfacet
  facet normal -0.000000e+00 0.000000e+00 1.000000e+00
    outer loop
      vertex   -6.979720e+01 1.902060e+02 3.000000e+01
      vertex   -7.529720e+01 1.857060e+02 3.000000e+01
      vertex   -6.979720e+01 1.857060e+02 3.000000e+01
    endloop
  endfacet
  facet normal 0.000000e+00 0.000000e+00 1.000000e+00
    outer loop
      vertex   -6.979720e+01 1.902060e+02 3.000000e+01
      vertex   -9.979720e+01 1.902060e+02 3.000000e+01
      vertex   -7.529720e+01 1.857060e+02 3.000000e+01
    endloop
  endfacet
  facet normal 0.000000e+00 -0.000000e+00 1.000000e+00
    outer loop
      vertex   -9.429720e+01 1.807060e+02 3.000000e+01
      vertex   -7.529720e+01 1.807060e+02 3.000000e+01
      vertex   -9.429720e+01 1.857060e+02 3.000000e+01
    endloop
  endfacet
  facet normal -0.000000e+00 0.000000e+00 1.000000e+00
    outer loop
      vertex   -9.429720e+01 1.857060e+02 3.000000e+01
      vertex   -7.529720e+01 1.807060e+02 3.000000e+01
      vertex   -7.529720e+01 1.857060e+02 3.000000e+01
    endloop
  endfacet
  facet normal 1.000000e+00 -0.000000e+00 0.000000e+00
    outer loop
      vertex   -7.529720e+01 1.807060e+02 3.000000e+01
      vertex   -7.529720e+01 1.807060e+02 1.450000e+01
      vertex   -7.529720e+01 1.857060e+02 3.000000e+01
    endloop
  endfacet
  facet normal 1.000000e+00 0.000000e+00 0.000000e+00
    outer loop
      vertex   -7.529720e+01 1.857060e+02 3.000000e+01
      vertex   -7.529720e+01 1.807060e+02 1.450000e+01
      vertex   -7.529720e+01 1.857060e+02 0.000000e+00
    endloop
  endfacet
  facet normal 1.000000e+00 1.353415e-15 4.666947e-16
    outer loop
      vertex   -7.529720e+01 1.857060e+02 0.000000e+00
      vertex   -7.529720e+01 1.807060e+02 1.450000e+01
      vertex   -7.529720e+01 1.597060e+02 1.450000e+01
    endloop
  endfacet
  facet normal 1.000000e+00 0.000000e+00 -0.000000e+00
    outer loop
      vertex   -7.529720e+01 1.547060e+02 0.000000e+00
      vertex   -7.529720e+01 1.597060e+02 1.450000e+01
      vertex   -7.529720e+01 1.547060e+02 3.000000e+01
    endloop
  endfacet
  facet normal 1.000000e+00 9.168293e-16 -3.161480e-16
    outer loop
      vertex   -7.529720e+01 1.547060e+02 0.000000e+00
      vertex   -7.529720e+01 1.857060e+02 0.000000e+00
      vertex   -7.529720e+01 1.597060e+02 1.450000e+01
    endloop
  endfacet
  facet normal 1.000000e+00 0.000000e+00 -0.000000e+00
    outer loop
      vertex   -7.529720e+01 1.597060e+02 1.450000e+01
      vertex   -7.529720e+01 1.597060e+02 3.000000e+01
      vertex   -7.529720e+01 1.547060e+02 3.000000e+01
    endloop
  endfacet
  facet normal -0.000000e+00 1.000000e+00 0.000000e+00
    outer loop
      vertex   -7.529720e+01 1.547060e+02 3.000000e+01
      vertex   -6.979720e+01 1.547060e+02 3.000000e+01
      vertex   -7.529720e+01 1.547060e+02 0.000000e+00
    endloop
  endfacet
  facet normal -0.000000e+00 1.000000e+00 0.000000e+00
    outer loop
      vertex   -7.529720e+01 1.547060e+02 0.000000e+00
      vertex   -6.979720e+01 1.547060e+02 3.000000e+01
      vertex   -6.979720e+01 1.547060e+02 0.000000e+00
    endloop
  endfacet
  facet normal -0.000000e+00 -1.000000e+00 -0.000000e+00
    outer loop
      vertex   -6.979720e+01 1.857060e+02 3.000000e+01
      vertex   -7.529720e+01 1.857060e+02 3.000000e+01
      vertex   -6.979720e+01 1.857060e+02 0.000000e+00
    endloop
  endfacet
  facet normal -0.000000e+00 -1.000000e+00 -0.000000e+00
    outer loop
      vertex   -6.979720e+01 1.857060e+02 0.000000e+00
      vertex   -7.529720e+01 1.857060e+02 3.000000e+01
      vertex   -7.529720e+01 1.857060e+02 0.000000e+00
    endloop
  endfacet
  facet normal -0.000000e+00 0.000000e+00 1.000000e+00
    outer loop
      vertex   -9.979720e+01 1.547060e+02 3.000000e+01
      vertex   -9.979720e+01 1.002060e+02 3.000000e+01
      vertex   -9.429720e+01 1.547060e+02 3.000000e+01
    endloop
  endfacet
  facet normal 0.000000e+00 0.000000e+00 1.000000e+00
    outer loop
      vertex   -9.429720e+01 1.547060e+02 3.000000e+01
      vertex   -9.979720e+01 1.002060e+02 3.000000e+01
      vertex   -6.979720e+01 1.002060e+02 3.000000e+01
    endloop
  endfacet
  facet normal -0.000000e+00 0.000000e+00 1.000000e+00
    outer loop
      vertex   -7.529720e+01 1.547060e+02 3.000000e+01
      vertex   -6.979720e+01 1.002060e+02 3.000000e+01
      vertex   -6.979720e+01 1.547060e+02 3.000000e+01
    endloop
  endfacet
  facet normal 0.000000e+00 0.000000e+00 1.000000e+00
    outer loop
      vertex   -7.529720e+01 1.547060e+02 3.000000e+01
      vertex   -9.429720e+01 1.547060e+02 3.000000e+01
      vertex   -6.979720e+01 1.002060e+02 3.000000e+01
    endloop
  endfacet
  facet normal 0.000000e+00 0.000000e+00 1.000000e+00
    outer loop
      vertex   -7.529720e+01 1.547060e+02 3.000000e+01
      vertex   -9.429720e+01 1.597060e+02 3.000000e+01
      vertex   -9.429720e+01 1.547060e+02 3.000000e+01
    endloop
  endfacet
  facet normal 0.000000e+00 -0.000000e+00 1.000000e+00
    outer loop
      vertex   -7.529720e+01 1.547060e+02 3.000000e+01
      vertex   -7.529720e+01 1.597060e+02 3.000000e+01
      vertex   -9.429720e+01 1.597060e+02 3.000000e+01
    endloop
  endfacet
  facet normal 1.000000e+00 -5.214993e-16 0.000000e+00
    outer loop
      vertex   -6.979720e+01 1.547060e+02 3.000000e+01
      vertex   -6.979720e+01 1.002060e+02 3.000000e+01
      vertex   -6.979720e+01 1.547060e+02 0.000000e+00
    endloop
  endfacet
  facet normal 1.000000e+00 -5.214993e-16 0.000000e+00
    outer loop
      vertex   -6.979720e+01 1.547060e+02 0.000000e+00
      vertex   -6.979720e+01 1.002060e+02 3.000000e+01
      vertex   -6.979720e+01 1.002060e+02 0.000000e+00
    endloop
  endfacet
  facet normal -0.000000e+00 1.000000e+00 0.000000e+00
    outer loop
      vertex   -9.429720e+01 1.597060e+02 3.000000e+01
      vertex   -7.529720e+01 1.597060e+02 3.000000e+01
      vertex   -9.429720e+01 1.597060e+02 1.450000e+01
    endloop
  endfacet
  facet normal -0.000000e+00 1.000000e+00 0.000000e+00
    outer loop
      vertex   -9.429720e+01 1.597060e+02 1.450000e+01
      vertex   -7.529720e+01 1.597060e+02 3.000000e+01
      vertex   -7.529720e+01 1.597060e+02 1.450000e+01
    endloop
  endfacet
  facet normal -0.000000e+00 -1.000000e+00 -0.000000e+00
    outer loop
      vertex   -7.529720e+01 1.807060e+02 3.000000e+01
      vertex   -9.429720e+01 1.807060e+02 3.000000e+01
      vertex   -7.529720e+01 1.807060e+02 1.450000e+01
    endloop
  endfacet
  facet normal -0.000000e+00 -1.000000e+00 -0.000000e+00
    outer loop
      vertex   -7.529720e+01 1.807060e+02 1.450000e+01
      vertex   -9.429720e+01 1.807060e+02 3.000000e+01
      vertex   -9.429720e+01 1.807060e+02 1.450000e+01
    endloop
  endfacet
  facet normal 0.000000e+00 0.000000e+00 1.000000e+00
    outer loop
      vertex   -7.968530e+01 1.672240e+02 1.450000e+01
      vertex   -9.002090e+01 1.672240e+02 1.450000e+01
      vertex   -9.429720e+01 1.597060e+02 1.450000e+01
    endloop
  endfacet
  facet normal 0.000000e+00 0.000000e+00 1.000000e+00
    outer loop
      vertex   -7.529720e+01 1.597060e+02 1.450000e+01
      vertex   -7.968530e+01 1.672240e+02 1.450000e+01
      vertex   -9.429720e+01 1.597060e+02 1.450000e+01
    endloop
  endfacet
  facet normal 0.000000e+00 0.000000e+00 1.000000e+00
    outer loop
      vertex   -7.529720e+01 1.597060e+02 1.450000e+01
      vertex   -7.968530e+01 1.730742e+02 1.450000e+01
      vertex   -7.968530e+01 1.672240e+02 1.450000e+01
    endloop
  endfacet
  facet normal 0.000000e+00 0.000000e+00 1.000000e+00
    outer loop
      vertex   -7.529720e+01 1.597060e+02 1.450000e+01
      vertex   -7.529720e+01 1.807060e+02 1.450000e+01
      vertex   -7.968530e+01 1.730742e+02 1.450000e+01
    endloop
  endfacet
  facet normal 0.000000e+00 -0.000000e+00 1.000000e+00
    outer loop
      vertex   -7.968530e+01 1.730742e+02 1.450000e+01
      vertex   -7.529720e+01 1.807060e+02 1.450000e+01
      vertex   -9.429720e+01 1.807060e+02 1.450000e+01
    endloop
  endfacet
  facet normal 0.000000e+00 0.000000e+00 1.000000e+00
    outer loop
      vertex   -9.002090e+01 1.730742e+02 1.450000e+01
      vertex   -9.429720e+01 1.807060e+02 1.450000e+01
      vertex   -9.429720e+01 1.597060e+02 1.450000e+01
    endloop
  endfacet
  facet normal 0.000000e+00 -0.000000e+00 1.000000e+00
    outer loop
      vertex   -9.002090e+01 1.672240e+02 1.450000e+01
      vertex   -9.002090e+01 1.730742e+02 1.450000e+01
      vertex   -9.429720e+01 1.597060e+02 1.450000e+01
    endloop
  endfacet
  facet normal 0.000000e+00 -0.000000e+00 1.000000e+00
    outer loop
      vertex   -9.002090e+01 1.730742e+02 1.450000e+01
      vertex   -7.968530e+01 1.730742e+02 1.450000e+01
      vertex   -9.429720e+01 1.807060e+02 1.450000e+01
    endloop
  endfacet
  facet normal 0.000000e+00 1.000000e+00 -0.000000e+00
    outer loop
      vertex   -6.979720e+01 1.902060e+02 0.000000e+00
      vertex   -9.979720e+01 1.902060e+02 0.000000e+00
      vertex   -6.979720e+01 1.902060e+02 3.000000e+01
    endloop
  endfacet
  facet normal 0.000000e+00 1.000000e+00 -0.000000e+00
    outer loop
      vertex   -6.979720e+01 1.902060e+02 3.000000e+01
      vertex   -9.979720e+01 1.902060e+02 0.000000e+00
      vertex   -9.979720e+01 1.902060e+02 3.000000e+01
    endloop
  endfacet
  facet normal 1.000000e+00 0.000000e+00 -0.000000e+00
    outer loop
      vertex   -6.979720e+01 1.857060e+02 0.000000e+00
      vertex   -6.979720e+01 1.902060e+02 0.000000e+00
      vertex   -6.979720e+01 1.857060e+02 3.000000e+01
    endloop
  endfacet
  facet normal 1.000000e+00 -0.000000e+00 0.000000e+00
    outer loop
      vertex   -6.979720e+01 1.857060e+02 3.000000e+01
      vertex   -6.979720e+01 1.902060e+02 0.000000e+00
      vertex   -6.979720e+01 1.902060e+02 3.000000e+01
    endloop
  endfacet
  facet normal -4.736952e-16 -1.000000e+00 0.000000e+00
    outer loop
      vertex   -9.979720e+01 1.002060e+02 0.000000e+00
      vertex   -6.979720e+01 1.002060e+02 0.000000e+00
      vertex   -9.979720e+01 1.002060e+02 3.000000e+01
    endloop
  endfacet
  facet normal -4.736952e-16 -1.000000e+00 0.000000e+00
    outer loop
      vertex   -9.979720e+01 1.002060e+02 3.000000e+01
      vertex   -6.979720e+01 1.002060e+02 0.000000e+00
      vertex   -6.979720e+01 1.002060e+02 3.000000e+01
    endloop
  endfacet
  facet normal -1.000000e+00 5.214993e-16 0.000000e+00
    outer loop
      vertex   -9.979720e+01 1.547060e+02 0.000000e+00
      vertex   -9.979720e+01 1.002060e+02 0.000000e+00
      vertex   -9.979720e+01 1.547060e+02 3.000000e+01
    endloop
  endfacet
  facet normal -1.000000e+00 5.214993e-16 0.000000e+00
    outer loop
      vertex   -9.979720e+01 1.547060e+02 3.000000e+01
      vertex   -9.979720e+01 1.002060e+02 0.000000e+00
      vertex   -9.979720e+01 1.002060e+02 3.000000e+01
    endloop
  endfacet
  facet normal -0.000000e+00 -1.000000e+00 -0.000000e+00
    outer loop
      vertex   -1.169856e+02 1.777869e+02 1.450000e+01
      vertex   -1.228358e+02 1.777869e+02 1.450000e+01
      vertex   -1.169856e+02 1.777869e+02 2.384186e-06
    endloop
  endfacet
  facet normal -0.000000e+00 -1.000000e+00 -0.000000e+00
    outer loop
      vertex   -1.169856e+02 1.777869e+02 2.384186e-06
      vertex   -1.228358e+02 1.777869e+02 1.450000e+01
      vertex   -1.228358e+02 1.777869e+02 2.384186e-06
    endloop
  endfacet
  facet normal -0.000000e+00 1.000000e+00 0.000000e+00
    outer loop
      vertex   -1.228358e+02 1.627377e+02 1.450000e+01
      vertex   -1.169856e+02 1.627377e+02 1.450000e+01
      vertex   -1.228358e+02 1.627377e+02 2.384186e-06
    endloop
  endfacet
  facet normal -0.000000e+00 1.000000e+00 0.000000e+00
    outer loop
      vertex   -1.228358e+02 1.627377e+02 2.384186e-06
      vertex   -1.169856e+02 1.627377e+02 1.450000e+01
      vertex   -1.169856e+02 1.627377e+02 2.384186e-06
    endloop
  endfacet
  facet normal 0.000000e+00 -0.000000e+00 1.000000e+00
    outer loop
      vertex   -1.293538e+02 1.597060e+02 1.450000e+01
      vertex   -1.103538e+02 1.597060e+02 1.450000e+01
      vertex   -1.169856e+02 1.627377e+02 1.450000e+01
    endloop
  endfacet
  facet normal -0.000000e+00 0.000000e+00 1.000000e+00
    outer loop
      vertex   -1.228358e+02 1.627377e+02 1.450000e+01
      vertex   -1.293538e+02 1.597060e+02 1.450000e+01
      vertex   -1.169856e+02 1.627377e+02 1.450000e+01
    endloop
  endfacet
  facet normal 0.000000e+00 0.000000e+00 1.000000e+00
    outer loop
      vertex   -1.228358e+02 1.627377e+02 1.450000e+01
      vertex   -1.293538e+02 1.807060e+02 1.450000e+01
      vertex   -1.293538e+02 1.597060e+02 1.450000e+01
    endloop
  endfacet
  facet normal 0.000000e+00 -0.000000e+00 1.000000e+00
    outer loop
      vertex   -1.228358e+02 1.627377e+02 1.450000e+01
      vertex   -1.228358e+02 1.777869e+02 1.450000e+01
      vertex   -1.293538e+02 1.807060e+02 1.450000e+01
    endloop
  endfacet
  facet normal -0.000000e+00 0.000000e+00 1.000000e+00
    outer loop
      vertex   -1.293538e+02 1.807060e+02 1.450000e+01
      vertex   -1.228358e+02 1.777869e+02 1.450000e+01
      vertex   -1.169856e+02 1.777869e+02 1.450000e+01
    endloop
  endfacet
  facet normal 0.000000e+00 0.000000e+00 1.000000e+00
    outer loop
      vertex   -1.103538e+02 1.807060e+02 1.450000e+01
      vertex   -1.169856e+02 1.777869e+02 1.450000e+01
      vertex   -1.169856e+02 1.627377e+02 1.450000e+01
    endloop
  endfacet
  facet normal 0.000000e+00 -0.000000e+00 1.000000e+00
    outer loop
      vertex   -1.103538e+02 1.597060e+02 1.450000e+01
      vertex   -1.103538e+02 1.807060e+02 1.450000e+01
      vertex   -1.169856e+02 1.627377e+02 1.450000e+01
    endloop
  endfacet
  facet normal 0.000000e+00 0.000000e+00 1.000000e+00
    outer loop
      vertex   -1.103538e+02 1.807060e+02 1.450000e+01
      vertex   -1.293538e+02 1.807060e+02 1.450000e+01
      vertex   -1.169856e+02 1.777869e+02 1.450000e+01
    endloop
  endfacet
  facet normal 1.000000e+00 0.000000e+00 0.000000e+00
    outer loop
      vertex   -1.228358e+02 1.777869e+02 1.450000e+01
      vertex   -1.228358e+02 1.627377e+02 1.450000e+01
      vertex   -1.228358e+02 1.777869e+02 2.384186e-06
    endloop
  endfacet
  facet normal 1.000000e+00 0.000000e+00 0.000000e+00
    outer loop
      vertex   -1.228358e+02 1.777869e+02 2.384186e-06
      vertex   -1.228358e+02 1.627377e+02 1.450000e+01
      vertex   -1.228358e+02 1.627377e+02 2.384186e-06
    endloop
  endfacet
  facet normal -1.000000e+00 0.000000e+00 -0.000000e+00
    outer loop
      vertex   -1.169856e+02 1.627377e+02 1.450000e+01
      vertex   -1.169856e+02 1.777869e+02 1.450000e+01
      vertex   -1.169856e+02 1.627377e+02 2.384186e-06
    endloop
  endfacet
  facet normal -1.000000e+00 0.000000e+00 0.000000e+00
    outer loop
      vertex   -1.169856e+02 1.627377e+02 2.384186e-06
      vertex   -1.169856e+02 1.777869e+02 1.450000e+01
      vertex   -1.169856e+02 1.777869e+02 2.384186e-06
    endloop
  endfacet
  facet normal 5.167584e-15 1.000000e+00 0.000000e+00
    outer loop
      vertex   -1.293538e+02 1.597060e+02 2.384186e-06
      vertex   -1.348538e+02 1.597060e+02 2.384186e-06
      vertex   -1.293538e+02 1.597060e+02 1.450000e+01
    endloop
  endfacet
  facet normal 5.167584e-15 1.000000e+00 -0.000000e+00
    outer loop
      vertex   -1.293538e+02 1.597060e+02 1.450000e+01
      vertex   -1.348538e+02 1.597060e+02 2.384186e-06
      vertex   -1.348538e+02 1.597060e+02 3.000000e+01
    endloop
  endfacet
  facet normal 0.000000e+00 1.000000e+00 -1.833659e-15
    outer loop
      vertex   -1.103538e+02 1.597060e+02 1.450000e+01
      vertex   -1.348538e+02 1.597060e+02 3.000000e+01
      vertex   -1.048538e+02 1.597060e+02 3.000000e+01
    endloop
  endfacet
  facet normal -5.167584e-15 1.000000e+00 0.000000e+00
    outer loop
      vertex   -1.048538e+02 1.597060e+02 2.384186e-06
      vertex   -1.103538e+02 1.597060e+02 1.450000e+01
      vertex   -1.048538e+02 1.597060e+02 3.000000e+01
    endloop
  endfacet
  facet normal -5.167584e-15 1.000000e+00 0.000000e+00
    outer loop
      vertex   -1.048538e+02 1.597060e+02 2.384186e-06
      vertex   -1.103538e+02 1.597060e+02 2.384186e-06
      vertex   -1.103538e+02 1.597060e+02 1.450000e+01
    endloop
  endfacet
  facet normal 0.000000e+00 1.000000e+00 -1.833659e-15
    outer loop
      vertex   -1.293538e+02 1.597060e+02 1.450000e+01
      vertex   -1.348538e+02 1.597060e+02 3.000000e+01
      vertex   -1.103538e+02 1.597060e+02 1.450000e+01
    endloop
  endfacet
  facet normal 1.000000e+00 0.000000e+00 0.000000e+00
    outer loop
      vertex   -1.048538e+02 1.597060e+02 3.000000e+01
      vertex   -1.048538e+02 1.299560e+02 3.000000e+01
      vertex   -1.048538e+02 1.597060e+02 2.384186e-06
    endloop
  endfacet
  facet normal 1.000000e+00 0.000000e+00 0.000000e+00
    outer loop
      vertex   -1.048538e+02 1.597060e+02 2.384186e-06
      vertex   -1.048538e+02 1.299560e+02 3.000000e+01
      vertex   -1.048538e+02 1.299560e+02 2.384186e-06
    endloop
  endfacet
  facet normal 1.000000e+00 0.000000e+00 -0.000000e+00
    outer loop
      vertex   -1.048538e+02 1.299560e+02 2.384186e-06
      vertex   -1.048538e+02 1.299560e+02 3.000000e+01
      vertex   -1.048538e+02 1.002060e+02 3.000000e+01
    endloop
  endfacet
  facet normal 1.000000e+00 0.000000e+00 -0.000000e+00
    outer loop
      vertex   -1.048538e+02 1.002060e+02 2.384186e-06
      vertex   -1.048538e+02 1.299560e+02 2.384186e-06
      vertex   -1.048538e+02 1.002060e+02 3.000000e+01
    endloop
  endfacet
  facet normal 0.000000e+00 0.000000e+00 1.000000e+00
    outer loop
      vertex   -1.048538e+02 1.597060e+02 3.000000e+01
      vertex   -1.348538e+02 1.597060e+02 3.000000e+01
      vertex   -1.048538e+02 1.299560e+02 3.000000e+01
    endloop
  endfacet
  facet normal 0.000000e+00 0.000000e+00 1.000000e+00
    outer loop
      vertex   -1.048538e+02 1.299560e+02 3.000000e+01
      vertex   -1.348538e+02 1.597060e+02 3.000000e+01
      vertex   -1.348538e+02 1.299560e+02 3.000000e+01
    endloop
  endfacet
  facet normal 0.000000e+00 0.000000e+00 1.000000e+00
    outer loop
      vertex   -1.048538e+02 1.002060e+02 3.000000e+01
      vertex   -1.348538e+02 1.299560e+02 3.000000e+01
      vertex   -1.348538e+02 1.002060e+02 3.000000e+01
    endloop
  endfacet
  facet normal 0.000000e+00 -0.000000e+00 1.000000e+00
    outer loop
      vertex   -1.048538e+02 1.002060e+02 3.000000e+01
      vertex   -1.048538e+02 1.299560e+02 3.000000e+01
      vertex   -1.348538e+02 1.299560e+02 3.000000e+01
    endloop
  endfacet
  facet normal -1.000000e+00 0.000000e+00 0.000000e+00
    outer loop
      vertex   -1.348538e+02 1.597060e+02 2.384186e-06
      vertex   -1.348538e+02 1.299560e+02 2.384186e-06
      vertex   -1.348538e+02 1.597060e+02 3.000000e+01
    endloop
  endfacet
  facet normal -1.000000e+00 -0.000000e+00 0.000000e+00
    outer loop
      vertex   -1.348538e+02 1.597060e+02 3.000000e+01
      vertex   -1.348538e+02 1.299560e+02 2.384186e-06
      vertex   -1.348538e+02 1.299560e+02 3.000000e+01
    endloop
  endfacet
  facet normal -1.000000e+00 -0.000000e+00 -0.000000e+00
    outer loop
      vertex   -1.348538e+02 1.299560e+02 3.000000e+01
      vertex   -1.348538e+02 1.299560e+02 2.384186e-06
      vertex   -1.348538e+02 1.002060e+02 2.384186e-06
    endloop
  endfacet
  facet normal -1.000000e+00 0.000000e+00 -0.000000e+00
    outer loop
      vertex   -1.348538e+02 1.002060e+02 3.000000e+01
      vertex   -1.348538e+02 1.299560e+02 3.000000e+01
      vertex   -1.348538e+02 1.002060e+02 2.384186e-06
    endloop
  endfacet
  facet normal 1.000000e+00 -0.000000e+00 -0.000000e+00
    outer loop
      vertex   -1.103538e+02 1.597060e+02 2.384186e-06
      vertex   -1.103538e+02 1.807060e+02 2.384186e-06
      vertex   -1.103538e+02 1.597060e+02 1.450000e+01
    endloop
  endfacet
  facet normal 1.000000e+00 -0.000000e+00 0.000000e+00
    outer loop
      vertex   -1.103538e+02 1.597060e+02 1.450000e+01
      vertex   -1.103538e+02 1.807060e+02 2.384186e-06
      vertex   -1.103538e+02 1.807060e+02 1.450000e+01
    endloop
  endfacet
  facet normal 1.000000e+00 0.000000e+00 -0.000000e+00
    outer loop
      vertex   -1.048538e+02 1.807060e+02 2.384186e-06
      vertex   -1.048538e+02 1.902060e+02 2.384186e-06
      vertex   -1.048538e+02 1.807060e+02 3.000000e+01
    endloop
  endfacet
  facet normal 1.000000e+00 -0.000000e+00 0.000000e+00
    outer loop
      vertex   -1.048538e+02 1.807060e+02 3.000000e+01
      vertex   -1.048538e+02 1.902060e+02 2.384186e-06
      vertex   -1.048538e+02 1.902060e+02 3.000000e+01
    endloop
  endfacet
  facet normal 1.767079e-16 0.000000e+00 -1.000000e+00
    outer loop
      vertex   -1.228358e+02 1.627377e+02 2.384186e-06
      vertex   -1.293538e+02 1.807060e+02 2.384186e-06
      vertex   -1.228358e+02 1.777869e+02 2.384186e-06
    endloop
  endfacet
  facet normal 7.954685e-17 -3.524518e-17 -1.000000e+00
    outer loop
      vertex   -1.228358e+02 1.627377e+02 2.384186e-06
      vertex   -1.293538e+02 1.597060e+02 2.384186e-06
      vertex   -1.293538e+02 1.807060e+02 2.384186e-06
    endloop
  endfacet
  facet normal 7.821813e-17 -3.238858e-17 -1.000000e+00
    outer loop
      vertex   -1.228358e+02 1.627377e+02 2.384186e-06
      vertex   -1.348538e+02 1.299560e+02 2.384186e-06
      vertex   -1.293538e+02 1.597060e+02 2.384186e-06
    endloop
  endfacet
  facet normal 4.082161e-17 -1.867880e-17 -1.000000e+00
    outer loop
      vertex   -1.228358e+02 1.627377e+02 2.384186e-06
      vertex   -1.169856e+02 1.627377e+02 2.384186e-06
      vertex   -1.348538e+02 1.299560e+02 2.384186e-06
    endloop
  endfacet
  facet normal 0.000000e+00 3.571635e-18 -1.000000e+00
    outer loop
      vertex   -1.348538e+02 1.299560e+02 2.384186e-06
      vertex   -1.169856e+02 1.627377e+02 2.384186e-06
      vertex   -1.048538e+02 1.299560e+02 2.384186e-06
    endloop
  endfacet
  facet normal 0.000000e+00 0.000000e+00 -1.000000e+00
    outer loop
      vertex   -1.348538e+02 1.002060e+02 2.384186e-06
      vertex   -1.048538e+02 1.299560e+02 2.384186e-06
      vertex   -1.048538e+02 1.002060e+02 2.384186e-06
    endloop
  endfacet
  facet normal 0.000000e+00 0.000000e+00 -1.000000e+00
    outer loop
      vertex   -1.348538e+02 1.002060e+02 2.384186e-06
      vertex   -1.348538e+02 1.299560e+02 2.384186e-06
      vertex   -1.048538e+02 1.299560e+02 2.384186e-06
    endloop
  endfacet
  facet normal 1.358265e-16 0.000000e+00 -1.000000e+00
    outer loop
      vertex   -1.169856e+02 1.777869e+02 2.384186e-06
      vertex   -1.103538e+02 1.807060e+02 2.384186e-06
      vertex   -1.169856e+02 1.627377e+02 2.384186e-06
    endloop
  endfacet
  facet normal 2.455666e-16 -2.493131e-16 -1.000000e+00
    outer loop
      vertex   -1.169856e+02 1.777869e+02 2.384186e-06
      vertex   -1.048538e+02 1.902060e+02 2.384186e-06
      vertex   -1.103538e+02 1.807060e+02 2.384186e-06
    endloop
  endfacet
  facet normal 0.000000e+00 -9.427765e-18 -1.000000e+00
    outer loop
      vertex   -1.169856e+02 1.777869e+02 2.384186e-06
      vertex   -1.348538e+02 1.902060e+02 2.384186e-06
      vertex   -1.048538e+02 1.902060e+02 2.384186e-06
    endloop
  endfacet
  facet normal 4.082161e-17 4.930497e-17 -1.000000e+00
    outer loop
      vertex   -1.169856e+02 1.777869e+02 2.384186e-06
      vertex   -1.228358e+02 1.777869e+02 2.384186e-06
      vertex   -1.348538e+02 1.902060e+02 2.384186e-06
    endloop
  endfacet
  facet normal 3.196163e-16 3.190946e-16 -1.000000e+00
    outer loop
      vertex   -1.348538e+02 1.902060e+02 2.384186e-06
      vertex   -1.228358e+02 1.777869e+02 2.384186e-06
      vertex   -1.293538e+02 1.807060e+02 2.384186e-06
    endloop
  endfacet
  facet normal -2.315472e-16 0.000000e+00 -1.000000e+00
    outer loop
      vertex   -1.348538e+02 1.807060e+02 2.384186e-06
      vertex   -1.348538e+02 1.902060e+02 2.384186e-06
      vertex   -1.293538e+02 1.807060e+02 2.384186e-06
    endloop
  endfacet
  facet normal -3.893606e-16 -1.288995e-17 -1.000000e+00
    outer loop
      vertex   -1.048538e+02 1.597060e+02 2.384186e-06
      vertex   -1.048538e+02 1.299560e+02 2.384186e-06
      vertex   -1.103538e+02 1.597060e+02 2.384186e-06
    endloop
  endfacet
  facet normal 2.997838e-16 1.145149e-16 -1.000000e+00
    outer loop
      vertex   -1.103538e+02 1.597060e+02 2.384186e-06
      vertex   -1.048538e+02 1.299560e+02 2.384186e-06
      vertex   -1.169856e+02 1.627377e+02 2.384186e-06
    endloop
  endfacet
  facet normal 2.313200e-16 -3.524520e-17 -1.000000e+00
    outer loop
      vertex   -1.103538e+02 1.807060e+02 2.384186e-06
      vertex   -1.103538e+02 1.597060e+02 2.384186e-06
      vertex   -1.169856e+02 1.627377e+02 2.384186e-06
    endloop
  endfacet
  facet normal -9.697465e-17 0.000000e+00 -1.000000e+00
    outer loop
      vertex   -1.348538e+02 1.299560e+02 2.384186e-06
      vertex   -1.348538e+02 1.597060e+02 2.384186e-06
      vertex   -1.293538e+02 1.597060e+02 2.384186e-06
    endloop
  endfacet
  facet normal -2.547880e-16 4.036589e-17 -1.000000e+00
    outer loop
      vertex   -1.048538e+02 1.902060e+02 2.384186e-06
      vertex   -1.048538e+02 1.807060e+02 2.384186e-06
      vertex   -1.103538e+02 1.807060e+02 2.384186e-06
    endloop
  endfacet
  facet normal -1.000000e+00 0.000000e+00 0.000000e+00
    outer loop
      vertex   -1.293538e+02 1.807060e+02 2.384186e-06
      vertex   -1.293538e+02 1.597060e+02 2.384186e-06
      vertex   -1.293538e+02 1.807060e+02 1.450000e+01
    endloop
  endfacet
  facet normal -1.000000e+00 -0.000000e+00 0.000000e+00
    outer loop
      vertex   -1.293538e+02 1.807060e+02 1.450000e+01
      vertex   -1.293538e+02 1.597060e+02 2.384186e-06
      vertex   -1.293538e+02 1.597060e+02 1.450000e+01
    endloop
  endfacet
  facet normal -1.000000e+00 0.000000e+00 -0.000000e+00
    outer loop
      vertex   -1.348538e+02 1.807060e+02 3.000000e+01
      vertex   -1.348538e+02 1.902060e+02 3.000000e+01
      vertex   -1.348538e+02 1.807060e+02 2.384186e-06
    endloop
  endfacet
  facet normal -1.000000e+00 0.000000e+00 0.000000e+00
    outer loop
      vertex   -1.348538e+02 1.807060e+02 2.384186e-06
      vertex   -1.348538e+02 1.902060e+02 3.000000e+01
      vertex   -1.348538e+02 1.902060e+02 2.384186e-06
    endloop
  endfacet
  facet normal 0.000000e+00 -1.000000e+00 0.000000e+00
    outer loop
      vertex   -1.348538e+02 1.807060e+02 2.384186e-06
      vertex   -1.293538e+02 1.807060e+02 1.450000e+01
      vertex   -1.348538e+02 1.807060e+02 3.000000e+01
    endloop
  endfacet
  facet normal 0.000000e+00 -1.000000e+00 0.000000e+00
    outer loop
      vertex   -1.348538e+02 1.807060e+02 2.384186e-06
      vertex   -1.293538e+02 1.807060e+02 2.384186e-06
      vertex   -1.293538e+02 1.807060e+02 1.450000e+01
    endloop
  endfacet
  facet normal 0.000000e+00 -1.000000e+00 0.000000e+00
    outer loop
      vertex   -1.293538e+02 1.807060e+02 1.450000e+01
      vertex   -1.103538e+02 1.807060e+02 1.450000e+01
      vertex   -1.348538e+02 1.807060e+02 3.000000e+01
    endloop
  endfacet
  facet normal 0.000000e+00 -1.000000e+00 0.000000e+00
    outer loop
      vertex   -1.348538e+02 1.807060e+02 3.000000e+01
      vertex   -1.103538e+02 1.807060e+02 1.450000e+01
      vertex   -1.048538e+02 1.807060e+02 3.000000e+01
    endloop
  endfacet
  facet normal 0.000000e+00 -1.000000e+00 -0.000000e+00
    outer loop
      vertex   -1.048538e+02 1.807060e+02 3.000000e+01
      vertex   -1.103538e+02 1.807060e+02 1.450000e+01
      vertex   -1.048538e+02 1.807060e+02 2.384186e-06
    endloop
  endfacet
  facet normal -0.000000e+00 -1.000000e+00 -0.000000e+00
    outer loop
      vertex   -1.048538e+02 1.807060e+02 2.384186e-06
      vertex   -1.103538e+02 1.807060e+02 1.450000e+01
      vertex   -1.103538e+02 1.807060e+02 2.384186e-06
    endloop
  endfacet
  facet normal 0.000000e+00 -0.000000e+00 1.000000e+00
    outer loop
      vertex   -1.348538e+02 1.807060e+02 3.000000e+01
      vertex   -1.048538e+02 1.807060e+02 3.000000e+01
      vertex   -1.348538e+02 1.902060e+02 3.000000e+01
    endloop
  endfacet
  facet normal -0.000000e+00 0.000000e+00 1.000000e+00
    outer loop
      vertex   -1.348538e+02 1.902060e+02 3.000000e+01
      vertex   -1.048538e+02 1.807060e+02 3.000000e+01
      vertex   -1.048538e+02 1.902060e+02 3.000000e+01
    endloop
  endfacet
  facet normal -0.000000e+00 1.000000e+00 0.000000e+00
    outer loop
      vertex   -1.348538e+02 1.902060e+02 3.000000e+01
      vertex   -1.048538e+02 1.902060e+02 3.000000e+01
      vertex   -1.348538e+02 1.902060e+02 2.384186e-06
    endloop
  endfacet
  facet normal -0.000000e+00 1.000000e+00 0.000000e+00
    outer loop
      vertex   -1.348538e+02 1.902060e+02 2.384186e-06
      vertex   -1.048538e+02 1.902060e+02 3.000000e+01
      vertex   -1.048538e+02 1.902060e+02 2.384186e-06
    endloop
  endfacet
  facet normal -0.000000e+00 -1.000000e+00 -0.000000e+00
    outer loop
      vertex   -1.048538e+02 1.002060e+02 3.000000e+01
      vertex   -1.348538e+02 1.002060e+02 3.000000e+01
      vertex   -1.048538e+02 1.002060e+02 2.384186e-06
    endloop
  endfacet
  facet normal -0.000000e+00 -1.000000e+00 -0.000000e+00
    outer loop
      vertex   -1.048538e+02 1.002060e+02 2.384186e-06
      vertex   -1.348538e+02 1.002060e+02 3.000000e+01
      vertex   -1.348538e+02 1.002060e+02 2.384186e-06
    endloop
  endfacet
  facet normal 0.000000e+00 -0.000000e+00 1.000000e+00
    outer loop
      vertex   -1.575291e+02 1.603682e+02 2.150000e+01
      vertex   -1.536788e+02 1.603682e+02 2.150000e+01
      vertex   -1.575291e+02 1.748682e+02 2.150000e+01
    endloop
  endfacet
  facet normal -0.000000e+00 0.000000e+00 1.000000e+00
    outer loop
      vertex   -1.575291e+02 1.748682e+02 2.150000e+01
      vertex   -1.536788e+02 1.603682e+02 2.150000e+01
      vertex   -1.536788e+02 1.748682e+02 2.150000e+01
    endloop
  endfacet
  facet normal 0.000000e+00 1.000000e+00 0.000000e+00
    outer loop
      vertex   -1.405470e+02 1.603682e+02 3.000000e+01
      vertex   -1.536788e+02 1.603682e+02 2.150000e+01
      vertex   -1.705470e+02 1.603682e+02 3.000000e+01
    endloop
  endfacet
  facet normal 0.000000e+00 1.000000e+00 0.000000e+00
    outer loop
      vertex   -1.405470e+02 1.603682e+02 3.000000e+01
      vertex   -1.405470e+02 1.603682e+02 0.000000e+00
      vertex   -1.536788e+02 1.603682e+02 2.150000e+01
    endloop
  endfacet
  facet normal 0.000000e+00 1.000000e+00 0.000000e+00
    outer loop
      vertex   -1.536788e+02 1.603682e+02 2.150000e+01
      vertex   -1.405470e+02 1.603682e+02 0.000000e+00
      vertex   -1.536788e+02 1.603682e+02 8.500000e+00
    endloop
  endfacet
  facet normal 0.000000e+00 1.000000e+00 0.000000e+00
    outer loop
      vertex   -1.536788e+02 1.603682e+02 8.500000e+00
      vertex   -1.405470e+02 1.603682e+02 0.000000e+00
      vertex   -1.705470e+02 1.603682e+02 0.000000e+00
    endloop
  endfacet
  facet normal 0.000000e+00 1.000000e+00 -0.000000e+00
    outer loop
      vertex   -1.575291e+02 1.603682e+02 8.500000e+00
      vertex   -1.705470e+02 1.603682e+02 0.000000e+00
      vertex   -1.705470e+02 1.603682e+02 3.000000e+01
    endloop
  endfacet
  facet normal -0.000000e+00 1.000000e+00 -0.000000e+00
    outer loop
      vertex   -1.575291e+02 1.603682e+02 2.150000e+01
      vertex   -1.705470e+02 1.603682e+02 3.000000e+01
      vertex   -1.536788e+02 1.603682e+02 2.150000e+01
    endloop
  endfacet
  facet normal 0.000000e+00 1.000000e+00 0.000000e+00
    outer loop
      vertex   -1.575291e+02 1.603682e+02 2.150000e+01
      vertex   -1.575291e+02 1.603682e+02 8.500000e+00
      vertex   -1.705470e+02 1.603682e+02 3.000000e+01
    endloop
  endfacet
  facet normal 0.000000e+00 1.000000e+00 -0.000000e+00
    outer loop
      vertex   -1.536788e+02 1.603682e+02 8.500000e+00
      vertex   -1.705470e+02 1.603682e+02 0.000000e+00
      vertex   -1.575291e+02 1.603682e+02 8.500000e+00
    endloop
  endfacet
  facet normal 0.000000e+00 1.657933e-15 1.000000e+00
    outer loop
      vertex   -1.405470e+02 1.603682e+02 3.000000e+01
      vertex   -1.705470e+02 1.603682e+02 3.000000e+01
      vertex   -1.405470e+02 1.303682e+02 3.000000e+01
    endloop
  endfacet
  facet normal 0.000000e+00 1.657933e-15 1.000000e+00
    outer loop
      vertex   -1.405470e+02 1.303682e+02 3.000000e+01
      vertex   -1.705470e+02 1.603682e+02 3.000000e+01
      vertex   -1.705470e+02 1.303682e+02 3.000000e+01
    endloop
  endfacet
  facet normal 0.000000e+00 1.184238e-16 1.000000e+00
    outer loop
      vertex   -1.405470e+02 1.003682e+02 3.000000e+01
      vertex   -1.705470e+02 1.303682e+02 3.000000e+01
      vertex   -1.705470e+02 1.003682e+02 3.000000e+01
    endloop
  endfacet
  facet normal 0.000000e+00 1.184238e-16 1.000000e+00
    outer loop
      vertex   -1.405470e+02 1.003682e+02 3.000000e+01
      vertex   -1.405470e+02 1.303682e+02 3.000000e+01
      vertex   -1.705470e+02 1.303682e+02 3.000000e+01
    endloop
  endfacet
  facet normal 0.000000e+00 -0.000000e+00 -1.000000e+00
    outer loop
      vertex   -1.575291e+02 1.748682e+02 8.500000e+00
      vertex   -1.536788e+02 1.748682e+02 8.500000e+00
      vertex   -1.575291e+02 1.603682e+02 8.500000e+00
    endloop
  endfacet
  facet normal 0.000000e+00 0.000000e+00 -1.000000e+00
    outer loop
      vertex   -1.575291e+02 1.603682e+02 8.500000e+00
      vertex   -1.536788e+02 1.748682e+02 8.500000e+00
      vertex   -1.536788e+02 1.603682e+02 8.500000e+00
    endloop
  endfacet
  facet normal 1.000000e+00 0.000000e+00 0.000000e+00
    outer loop
      vertex   -1.536788e+02 1.748682e+02 2.150000e+01
      vertex   -1.536788e+02 1.603682e+02 2.150000e+01
      vertex   -1.536788e+02 1.748682e+02 1.944547e+01
    endloop
  endfacet
  facet normal 1.000000e+00 0.000000e+00 0.000000e+00
    outer loop
      vertex   -1.536788e+02 1.748682e+02 1.944547e+01
      vertex   -1.536788e+02 1.603682e+02 2.150000e+01
      vertex   -1.536788e+02 1.748682e+02 1.059748e+01
    endloop
  endfacet
  facet normal 1.000000e+00 -0.000000e+00 0.000000e+00
    outer loop
      vertex   -1.536788e+02 1.903682e+02 1.944547e+01
      vertex   -1.536788e+02 1.748682e+02 1.059748e+01
      vertex   -1.536788e+02 1.903682e+02 1.059748e+01
    endloop
  endfacet
  facet normal 1.000000e+00 0.000000e+00 0.000000e+00
    outer loop
      vertex   -1.536788e+02 1.903682e+02 1.944547e+01
      vertex   -1.536788e+02 1.748682e+02 1.944547e+01
      vertex   -1.536788e+02 1.748682e+02 1.059748e+01
    endloop
  endfacet
  facet normal 1.000000e+00 -0.000000e+00 0.000000e+00
    outer loop
      vertex   -1.536788e+02 1.603682e+02 2.150000e+01
      vertex   -1.536788e+02 1.603682e+02 8.500000e+00
      vertex   -1.536788e+02 1.748682e+02 1.059748e+01
    endloop
  endfacet
  facet normal 1.000000e+00 -0.000000e+00 0.000000e+00
    outer loop
      vertex   -1.536788e+02 1.748682e+02 1.059748e+01
      vertex   -1.536788e+02 1.603682e+02 8.500000e+00
      vertex   -1.536788e+02 1.748682e+02 8.500000e+00
    endloop
  endfacet
  facet normal 0.000000e+00 -4.440892e-16 -1.000000e+00
    outer loop
      vertex   -1.705470e+02 1.603682e+02 0.000000e+00
      vertex   -1.405470e+02 1.603682e+02 0.000000e+00
      vertex   -1.705470e+02 1.303682e+02 1.332268e-14
    endloop
  endfacet
  facet normal 0.000000e+00 -4.440892e-16 -1.000000e+00
    outer loop
      vertex   -1.705470e+02 1.303682e+02 1.332268e-14
      vertex   -1.405470e+02 1.603682e+02 0.000000e+00
      vertex   -1.405470e+02 1.303682e+02 1.332268e-14
    endloop
  endfacet
  facet normal 0.000000e+00 -7.401487e-16 -1.000000e+00
    outer loop
      vertex   -1.705470e+02 1.003682e+02 3.552714e-14
      vertex   -1.405470e+02 1.303682e+02 1.332268e-14
      vertex   -1.405470e+02 1.003682e+02 3.552714e-14
    endloop
  endfacet
  facet normal 0.000000e+00 -7.401487e-16 -1.000000e+00
    outer loop
      vertex   -1.705470e+02 1.003682e+02 3.552714e-14
      vertex   -1.705470e+02 1.303682e+02 1.332268e-14
      vertex   -1.405470e+02 1.303682e+02 1.332268e-14
    endloop
  endfacet
  facet normal -0.000000e+00 1.000000e+00 0.000000e+00
    outer loop
      vertex   -1.575291e+02 1.748682e+02 8.500000e+00
      vertex   -1.575291e+02 1.748682e+02 1.059748e+01
      vertex   -1.536788e+02 1.748682e+02 8.500000e+00
    endloop
  endfacet
  facet normal 0.000000e+00 1.000000e+00 -0.000000e+00
    outer loop
      vertex   -1.536788e+02 1.748682e+02 8.500000e+00
      vertex   -1.575291e+02 1.748682e+02 1.059748e+01
      vertex   -1.536788e+02 1.748682e+02 1.059748e+01
    endloop
  endfacet
  facet normal 0.000000e+00 -0.000000e+00 -1.000000e+00
    outer loop
      vertex   -1.575291e+02 1.903682e+02 1.059748e+01
      vertex   -1.536788e+02 1.903682e+02 1.059748e+01
      vertex   -1.575291e+02 1.748682e+02 1.059748e+01
    endloop
  endfacet
  facet normal 0.000000e+00 0.000000e+00 -1.000000e+00
    outer loop
      vertex   -1.575291e+02 1.748682e+02 1.059748e+01
      vertex   -1.536788e+02 1.903682e+02 1.059748e+01
      vertex   -1.536788e+02 1.748682e+02 1.059748e+01
    endloop
  endfacet
  facet normal 0.000000e+00 1.000000e+00 -0.000000e+00
    outer loop
      vertex   -1.536788e+02 1.903682e+02 1.059748e+01
      vertex   -1.575291e+02 1.903682e+02 1.059748e+01
      vertex   -1.536788e+02 1.903682e+02 1.944547e+01
    endloop
  endfacet
  facet normal 0.000000e+00 1.000000e+00 -0.000000e+00
    outer loop
      vertex   -1.536788e+02 1.903682e+02 1.944547e+01
      vertex   -1.575291e+02 1.903682e+02 1.059748e+01
      vertex   -1.575291e+02 1.903682e+02 1.944547e+01
    endloop
  endfacet
  facet normal -1.000000e+00 -0.000000e+00 -0.000000e+00
    outer loop
      vertex   -1.575291e+02 1.748682e+02 2.150000e+01
      vertex   -1.575291e+02 1.748682e+02 1.944547e+01
      vertex   -1.575291e+02 1.603682e+02 2.150000e+01
    endloop
  endfacet
  facet normal -1.000000e+00 0.000000e+00 0.000000e+00
    outer loop
      vertex   -1.575291e+02 1.603682e+02 2.150000e+01
      vertex   -1.575291e+02 1.748682e+02 1.944547e+01
      vertex   -1.575291e+02 1.748682e+02 1.059748e+01
    endloop
  endfacet
  facet normal -1.000000e+00 0.000000e+00 0.000000e+00
    outer loop
      vertex   -1.575291e+02 1.603682e+02 8.500000e+00
      vertex   -1.575291e+02 1.748682e+02 1.059748e+01
      vertex   -1.575291e+02 1.748682e+02 8.500000e+00
    endloop
  endfacet
  facet normal -1.000000e+00 0.000000e+00 0.000000e+00
    outer loop
      vertex   -1.575291e+02 1.603682e+02 8.500000e+00
      vertex   -1.575291e+02 1.603682e+02 2.150000e+01
      vertex   -1.575291e+02 1.748682e+02 1.059748e+01
    endloop
  endfacet
  facet normal -1.000000e+00 -0.000000e+00 -0.000000e+00
    outer loop
      vertex   -1.575291e+02 1.903682e+02 1.944547e+01
      vertex   -1.575291e+02 1.903682e+02 1.059748e+01
      vertex   -1.575291e+02 1.748682e+02 1.944547e+01
    endloop
  endfacet
  facet normal -1.000000e+00 -0.000000e+00 -0.000000e+00
    outer loop
      vertex   -1.575291e+02 1.748682e+02 1.944547e+01
      vertex   -1.575291e+02 1.903682e+02 1.059748e+01
      vertex   -1.575291e+02 1.748682e+02 1.059748e+01
    endloop
  endfacet
  facet normal 0.000000e+00 0.000000e+00 1.000000e+00
    outer loop
      vertex   -1.536788e+02 1.903682e+02 1.944547e+01
      vertex   -1.575291e+02 1.903682e+02 1.944547e+01
      vertex   -1.536788e+02 1.748682e+02 1.944547e+01
    endloop
  endfacet
  facet normal 0.000000e+00 0.000000e+00 1.000000e+00
    outer loop
      vertex   -1.536788e+02 1.748682e+02 1.944547e+01
      vertex   -1.575291e+02 1.903682e+02 1.944547e+01
      vertex   -1.575291e+02 1.748682e+02 1.944547e+01
    endloop
  endfacet
  facet normal 0.000000e+00 1.000000e+00 0.000000e+00
    outer loop
      vertex   -1.536788e+02 1.748682e+02 2.150000e+01
      vertex   -1.536788e+02 1.748682e+02 1.944547e+01
      vertex   -1.575291e+02 1.748682e+02 2.150000e+01
    endloop
  endfacet
  facet normal 0.000000e+00 1.000000e+00 0.000000e+00
    outer loop
      vertex   -1.575291e+02 1.748682e+02 2.150000e+01
      vertex   -1.536788e+02 1.748682e+02 1.944547e+01
      vertex   -1.575291e+02 1.748682e+02 1.944547e+01
    endloop
  endfacet
  facet normal 1.000000e+00 9.473904e-16 0.000000e+00
    outer loop
      vertex   -1.405470e+02 1.003682e+02 3.000000e+01
      vertex   -1.405470e+02 1.003682e+02 3.552714e-14
      vertex   -1.405470e+02 1.303682e+02 3.000000e+01
    endloop
  endfacet
  facet normal 1.000000e+00 9.473904e-16 0.000000e+00
    outer loop
      vertex   -1.405470e+02 1.303682e+02 3.000000e+01
      vertex   -1.405470e+02 1.003682e+02 3.552714e-14
      vertex   -1.405470e+02 1.303682e+02 1.332268e-14
    endloop
  endfacet
  facet normal 1.000000e+00 4.207258e-31 9.473903e-16
    outer loop
      vertex   -1.405470e+02 1.603682e+02 3.000000e+01
      vertex   -1.405470e+02 1.303682e+02 1.332268e-14
      vertex   -1.405470e+02 1.603682e+02 0.000000e+00
    endloop
  endfacet
  facet normal 1.000000e+00 9.473904e-16 0.000000e+00
    outer loop
      vertex   -1.405470e+02 1.603682e+02 3.000000e+01
      vertex   -1.405470e+02 1.303682e+02 3.000000e+01
      vertex   -1.405470e+02 1.303682e+02 1.332268e-14
    endloop
  endfacet
  facet normal -1.000000e+00 -0.000000e+00 -0.000000e+00
    outer loop
      vertex   -1.705470e+02 1.603682e+02 3.000000e+01
      vertex   -1.705470e+02 1.603682e+02 0.000000e+00
      vertex   -1.705470e+02 1.303682e+02 3.000000e+01
    endloop
  endfacet
  facet normal -1.000000e+00 -0.000000e+00 -0.000000e+00
    outer loop
      vertex   -1.705470e+02 1.303682e+02 3.000000e+01
      vertex   -1.705470e+02 1.603682e+02 0.000000e+00
      vertex   -1.705470e+02 1.303682e+02 1.332268e-14
    endloop
  endfacet
  facet normal -1.000000e+00 -0.000000e+00 -0.000000e+00
    outer loop
      vertex   -1.705470e+02 1.003682e+02 3.000000e+01
      vertex   -1.705470e+02 1.303682e+02 1.332268e-14
      vertex   -1.705470e+02 1.003682e+02 3.552714e-14
    endloop
  endfacet
  facet normal -1.000000e+00 0.000000e+00 0.000000e+00
    outer loop
      vertex   -1.705470e+02 1.003682e+02 3.000000e+01
      vertex   -1.705470e+02 1.303682e+02 3.000000e+01
      vertex   -1.705470e+02 1.303682e+02 1.332268e-14
    endloop
  endfacet
  facet normal 0.000000e+00 -1.000000e+00 0.000000e+00
    outer loop
      vertex   -1.705470e+02 1.003682e+02 3.552714e-14
      vertex   -1.405470e+02 1.003682e+02 3.552714e-14
      vertex   -1.705470e+02 1.003682e+02 3.000000e+01
    endloop
  endfacet
  facet normal 0.000000e+00 -1.000000e+00 0.000000e+00
    outer loop
      vertex   -1.705470e+02 1.003682e+02 3.000000e+01
      vertex   -1.405470e+02 1.003682e+02 3.552714e-14
      vertex   -1.405470e+02 1.003682e+02 3.000000e+01
    endloop
  endfacet
endsolid
